<svg xmlns="http://www.w3.org/2000/svg" x="0px" y="0px" width="102px" height="51px" viewBox="0 0 102 51">
  <rect x="25.5" y="0" style="fill:#1E459F;" width="76.5" height="51"></rect>
  <polygon style="fill:#FFEC00;" points="62.1,11.1 63.7,9.9 65.3,11.1 64.7,9.2 66.4,8 64.4,8 63.7,6.1 63.1,8 61.1,8 62.7,9.2"></polygon>
  <polygon style="fill:#FFEC00;" points="53.8,13.4 55.4,12.2 57,13.4 56.4,11.5 58,10.3 56,10.3 55.4,8.3 54.8,10.3 52.7,10.3
  		54.4,11.5"></polygon>
  <polygon style="fill:#FFEC00;" points="56,39.2 55.4,37.3 54.8,39.2 52.8,39.2 54.4,40.4 53.8,42.3 55.4,41.1 57,42.3
  		56.4,40.4 58,39.2"></polygon>
  <polygon style="fill:#FFEC00;" points="64.4,41.5 63.7,39.5 63.1,41.5 61.1,41.5 62.7,42.6 62.1,44.5 63.7,43.4 65.3,44.5
  		64.7,42.6 66.4,41.5"></polygon>
  <polygon style="fill:#FFEC00;" points="72.7,39.2 72.1,37.3 71.5,39.2 69.4,39.2 71.1,40.4 70.5,42.3 72.1,41.1 73.7,42.3
  		73.1,40.4 74.7,39.2"></polygon>
  <polygon style="fill:#FFEC00;" points="78.8,33.1 78.2,31.2 77.6,33.1 75.6,33.1 77.2,34.3 76.6,36.2 78.2,35 79.8,36.2
  		79.2,34.3 80.8,33.1"></polygon>
  <polygon style="fill:#FFEC00;" points="83.1,24.7 81,24.7 80.4,22.8 79.8,24.7 77.8,24.7 79.4,25.9 78.8,27.8 80.4,26.6
  		82,27.8 81.4,25.9"></polygon>
  <polygon style="fill:#FFEC00;" points="76.6,19.5 78.2,18.3 79.8,19.5 79.2,17.6 80.8,16.4 78.8,16.4 78.2,14.4 77.6,16.4
  		75.6,16.4 77.2,17.6"></polygon>
  <polygon style="fill:#FFEC00;" points="72.1,8.3 71.5,10.3 69.5,10.3 71.1,11.5 70.5,13.4 72.1,12.2 73.7,13.4 73.1,11.5
  		74.7,10.3 72.7,10.3"></polygon>
  <polygon style="fill:#00FF00;" points="37.9,31.1 37.9,31.1 37.9,31.1"></polygon>
  <polygon style="fill:#000068;" points="47.2,34.2 53.5,34.2 47.2,31.1"></polygon>
  <polygon style="fill:#000068;" points="53.2,17.2 47.2,17.2 47.2,20.1"></polygon>
  <polygon style="fill:#000068;" points="66.1,34.2 66.9,34.2 66.9,30.3 58.1,30.3"></polygon>
  <polygon style="fill:#000068;" points="66.9,20.9 66.9,17.2 65.7,17.2 58.1,20.9"></polygon>
  <polygon style="fill:#FFFFFF;" points="47.7,20.9 55.2,17.2 53.2,17.2 47.2,20.1 47.2,17.2 47.2,17.2 47.2,12.9 45.3,14.3
  	45.3,22.8 66.9,22.8 66.9,20.9 58.1,20.9 65.7,17.2 59.4,17.2 51.9,20.9"></polygon>
  <polygon style="fill:#FFFFFF;" points="39.7,32.6 39.7,28.4 34.5,28.4"></polygon>
  <polygon style="fill:#FFFFFF;" points="34.1,22.8 39.7,22.8 39.7,18.5"></polygon>
  <polygon style="fill:#FFFFFF;" points="45.3,37 47.2,38.5 47.2,34.2 47.2,34.2 47.2,31.1 53.5,34.2 59.8,34.2 51.9,30.3 56,30.3
  	64,34.2 66.1,34.2 58.1,30.3 66.9,30.3 66.9,28.4 45.3,28.4"></polygon>
  <polygon style="fill:#ED0000;" points="45.3,14.3 39.7,18.5 39.7,22.8 34.1,22.8 30.7,25.4 34.5,28.4 39.7,28.4 39.7,32.6
  	45.3,37 45.3,28.4 66.9,28.4 66.9,22.8 45.3,22.8"></polygon>
  <polygon style="fill:#ED0000;" points="47.7,20.9 51.9,20.9 59.4,17.2 55.2,17.2"></polygon>
  <polygon style="fill:#ED0000;" points="51.9,30.3 59.8,34.2 64,34.2 56,30.3"></polygon>
</svg>
