<svg version="1.1" xmlns="http://www.w3.org/2000/svg" xmlns:xlink="http://www.w3.org/1999/xlink" x="0px" y="0px" width="297px" height="594px" viewBox="49 -197 297 594" style="enable-background:new 49 -197 297 594;" xml:space="preserve">
<style type="text/css">
<![CDATA[
	.up-arrow {
	  -webkit-animation: up-arrow 5s;
	          animation: up-arrow 5s;
	  -webkit-animation-iteration-count: infinite;
	          animation-iteration-count: infinite;
	}

	@-webkit-keyframes up-arrow {
	  0% {
	    -webkit-transform:translateY(0px);
	            transform:translateY(0px)
	  }
	  4% {
	    -webkit-transform:translateY(-5px);
	            transform:translateY(-5px)
	  }
	  8% {
	    -webkit-transform:translateY(-0px);
	            transform:translateY(-0px)
	  }
	  12% {
	    -webkit-transform:translateY(-5px);
	            transform:translateY(-5px)
	  }
	  16% {
	    -webkit-transform:translateY(0px);
	            transform:translateY(0px)
	  }
	}

	@keyframes up-arrow {
	  0% {
	    -webkit-transform:translateY(0px);
	            transform:translateY(0px)
	  }
	  4% {
	    -webkit-transform:translateY(-5px);
	            transform:translateY(-5px)
	  }
	  8% {
	    -webkit-transform:translateY(-0px);
	            transform:translateY(-0px)
	  }
	  12% {
	    -webkit-transform:translateY(-5px);
	            transform:translateY(-5px)
	  }
	  16% {
	    -webkit-transform:translateY(0px);
	            transform:translateY(0px)
	  }
	}
]]>
</style>
<g id="Locked_1_">
	<rect x="49" y="74" style="fill:#1E459F;" width="297" height="323"></rect>
	<g>
		<path style="opacity:0.7;fill:#FFFFFF;" d="M173.2,91.5v-9.9h5.8v1.7h-4v2.5h3.7v1.7h-3.7v4.1H173.2z"></path>
		<path style="opacity:0.7;fill:#FFFFFF;" d="M181.2,83.2c-0.5,0-0.9-0.4-0.9-0.9c0-0.6,0.4-1,1-1c0.5,0,0.9,0.4,0.9,1
			C182.1,82.8,181.7,83.2,181.2,83.2z M180.4,91.5v-7h1.7v7H180.4z"></path>
		<path style="opacity:0.7;fill:#FFFFFF;" d="M183.9,91.5v-7h1.6v0.8c0.4-0.6,1.3-1,2.2-1c1.1,0,1.8,0.5,2.1,1.5
			c0.1,0.5,0.1,1.1,0.1,1.8v3.9h-1.7v-3.8c0-0.6,0-1.1-0.1-1.4c-0.2-0.4-0.5-0.6-1-0.6c-0.6,0-1.3,0.3-1.6,0.9v4.9H183.9z"></path>
		<path style="opacity:0.7;fill:#FFFFFF;" d="M196.4,91.5v-0.7c-0.5,0.5-1.2,0.8-2.1,0.8c-1.8,0-2.9-1.4-2.9-3.5
			c0-2.2,1.2-3.9,3.3-3.9c0.7,0,1.3,0.2,1.7,0.5V81h1.7v10.5H196.4z M196.3,86.2c-0.2-0.4-0.7-0.6-1.4-0.6c-1.1,0-1.9,0.8-1.9,2.4
			c0,1.7,0.8,2.3,1.7,2.3c0.6,0,1.3-0.3,1.6-0.7V86.2z"></path>
		<path style="opacity:0.7;fill:#FFFFFF;" d="M205.9,91.7c-2.1,0-3.4-1.5-3.4-3.7c0-2.2,1.4-3.7,3.5-3.7c2.1,0,3.4,1.5,3.4,3.7
			C209.3,90.2,208,91.7,205.9,91.7z M205.9,85.7c-1.1,0-1.8,0.8-1.8,2.3c0,1.4,0.7,2.2,1.8,2.2c1.1,0,1.8-0.7,1.8-2.3
			C207.6,86.5,207,85.7,205.9,85.7z"></path>
		<path style="opacity:0.7;fill:#FFFFFF;" d="M215.1,91.5v-0.8c-0.5,0.6-1.2,1-2.1,1s-1.7-0.3-2-1.1c-0.2-0.6-0.3-1.2-0.3-2.2v-3.9
			h1.7v3.8c0,0.5,0,1,0.1,1.2c0.2,0.5,0.5,0.7,1.1,0.7c0.6,0,1.1-0.3,1.5-0.8v-4.9h1.7v7H215.1z"></path>
		<path style="opacity:0.7;fill:#FFFFFF;" d="M220.9,91.7c-0.9,0-1.6-0.4-1.9-1.2c-0.2-0.5-0.2-1.1-0.2-1.8v-2.9H218v-1.4h0.9v-2
			h1.7v2h1.9v1.4h-1.9v2.9c0,0.5,0,0.8,0.1,1c0.1,0.3,0.4,0.5,0.9,0.5c0.4,0,0.8-0.1,1.1-0.3v1.4C222.2,91.5,221.6,91.7,220.9,91.7z
			"></path>
	</g>
</g>
<g id="up-arrow">
	<g id="up-arrow_2_">
		<g>
			<polyline class="up-arrow" style="fill:none;stroke:#E1230B;stroke-width:2;stroke-miterlimit:10;" points="203.5,64 197.5,59 191.5,64 			"></polyline>
		</g>
	</g>
</g>
<g id="Text">
	<g>
		<path style="fill:#E1230B;" d="M76.4-174.9H80c0.5,0,1.2,0,1.6,0.1c1.4,0.2,2.5,0.9,2.5,2.3c0,1.1-0.4,1.8-1.5,2.3
			c1.4,0.2,2.2,1,2.2,2.3c0,1.2-0.7,2.1-1.8,2.5c-0.5,0.2-1.6,0.3-2.7,0.3h-3.9V-174.9z M79.9-171c0.4,0,0.8,0,1.1-0.1
			c0.4-0.1,0.5-0.4,0.5-0.8c0-0.3-0.1-0.6-0.5-0.7c-0.3-0.1-0.6-0.1-1-0.1h-0.8v1.7H79.9z M80.2-167.2c0.6,0,0.9,0,1.2-0.1
			c0.5-0.1,0.6-0.4,0.6-0.9c0-0.4-0.2-0.7-0.7-0.8c-0.3-0.1-0.7-0.1-1.1-0.1h-1.1v1.8H80.2z"></path>
		<path style="fill:#E1230B;" d="M86.9-165v-9.9h3.2c0.9,0,1.8,0.1,2.4,0.2c1.4,0.4,2.1,1.2,2.1,2.6c0,1.2-0.6,2-1.7,2.6
			c0.8,0.4,1.3,1.3,2.7,4.5h-3c-0.9-2.2-1.3-3.1-1.8-3.4c-0.1-0.1-0.4-0.2-0.7-0.2h-0.4v3.6H86.9z M90.3-170.7c0.3,0,0.6,0,0.9-0.1
			c0.4-0.2,0.6-0.5,0.6-0.9c0-0.4-0.2-0.8-0.8-0.9c-0.3-0.1-0.6-0.1-0.9-0.1h-0.4v2.1H90.3z"></path>
		<path style="fill:#E1230B;" d="M97.2-165v-9.9h6.6v2.3h-3.9v1.4h3.6v2.2h-3.6v1.6h4.2v2.3H97.2z"></path>
		<path style="fill:#E1230B;" d="M105.5-165l3.4-5.3l-3.1-4.6h3.3c1.1,1.7,1.6,2.4,1.9,3c0.3-0.5,0.7-1.3,1.8-3h2.9l-3.1,4.7
			l3.5,5.2h-3.3c-1.5-2.3-1.8-2.8-2.2-3.4c-0.3,0.5-0.6,1.1-2.1,3.4H105.5z"></path>
		<path style="fill:#E1230B;" d="M117.7-165v-9.9h2.7v9.9H117.7z"></path>
		<path style="fill:#E1230B;" d="M124.8-165v-7.5h-2.6v-2.4h8v2.4h-2.7v7.5H124.8z"></path>
		<path style="fill:#383E42;" d="M75.2-146.6l0.6-0.1c0.6-0.1,1-0.4,1.3-1.5l1.7-6.8c0.1-0.3,0.1-0.5,0.1-0.8c0-0.5-0.3-0.7-0.7-0.8
			l-0.5-0.1l0.1-0.6c0.5,0,1.1,0,1.7,0c0.4,0,1.2,0,1.8,0l1.8,8.8l4.5-8.8c0.5,0,1.4,0,1.8,0c0.6,0,1.2,0,1.6,0l-0.1,0.6l-0.6,0.1
			c-0.5,0.1-0.8,0.3-0.9,1c0,0.1,0,0.3,0,0.5l-0.5,6.8c-0.1,0.7,0,1.3,0.7,1.4l0.5,0.1l-0.1,0.6c-0.5,0-1.4,0-2.2,0
			c-0.8,0-2,0-2.4,0l0.1-0.6l0.7-0.1c0.6-0.1,0.8-0.6,0.9-1.4l0.5-6.9l-4.7,9.1h-1.1l-1.9-9l-1.7,6.8c-0.1,0.3-0.1,0.5-0.1,0.8
			c0,0.4,0.3,0.7,0.7,0.7l0.5,0.1L79-146c-0.5,0-1.3,0-2.1,0c-0.8,0-1.3,0-1.8,0L75.2-146.6z"></path>
		<path style="fill:#383E42;" d="M89.7-142.4l0.2-1.4c0.3,0.1,0.6,0.1,0.9,0.1c1.3,0,2.1-0.9,2.8-2.3l-1.2-6.7
			c-0.1-0.5-0.2-1.2-0.7-1.2c-0.2,0-0.5,0.2-0.7,0.4l-0.2-0.5c0.4-0.4,1.1-1,2-1c0.9,0,1.2,0.7,1.4,1.7l0.9,5.6h0.1
			c2.1-3.2,2.5-4.4,2.5-5.9c0-0.3-0.1-0.7-0.3-1l1.6-0.4c0.2,0.3,0.3,0.8,0.3,1.1c0,1.9-2.1,4.6-5,8.9c-1.2,1.7-2.2,2.6-3.8,2.6
			C90.2-142.3,89.9-142.4,89.7-142.4z"></path>
		<path style="fill:#383E42;" d="M100.6-147.3c0-0.3,0-0.6,0.1-1l0.9-5.5h-1.1l0.1-0.6c1.4-0.4,2.1-1.4,2.5-2.4h0.7l-0.3,2.1h2
			l-0.2,1h-2l-0.8,5.3c0,0.3-0.1,0.5-0.1,0.8c0,0.5,0.3,0.8,0.8,0.8c0.6,0,1-0.1,1.4-0.3l0.1,0.5c-0.5,0.5-1.5,1-2.7,1
			C101.1-145.8,100.6-146.5,100.6-147.3z"></path>
		<path style="fill:#383E42;" d="M110.9-147.2c0-0.3,0.1-0.7,0.1-1l0.6-3.4c0.1-0.5,0.1-0.8,0.1-1c0-0.6-0.2-1-0.9-1
			c-0.8,0-1.6,0.7-2.2,1.3l-1,6.4H106l1.5-9.9c0-0.2,0.1-0.6,0.1-0.8c0-0.5-0.2-0.6-1-0.8l0.1-0.5c1-0.2,2.1-0.4,3.1-0.8l-0.9,5.4h0
			c0.5-0.7,1.7-1.6,2.7-1.6c1.4,0,2,0.9,2,2.2c0,0.2,0,0.6-0.1,1.2l-0.6,3.3c0,0.3-0.1,0.5-0.1,0.8c0,0.4,0.2,0.6,0.6,0.6
			c0.3,0,0.6-0.1,0.9-0.3l0.2,0.5c-0.5,0.5-1.2,0.9-2.2,0.9C111.3-145.8,110.9-146.4,110.9-147.2z"></path>
		<path style="fill:#383E42;" d="M120.2-157.3h3.7c0.7,0,1.6,0,2.1,0.1c1.3,0.2,2.2,1,2.2,2.3c0,1.7-0.7,2.5-2.2,3
			c1.4,0.2,2.1,1.1,2.1,2.2c0,1.6-0.9,2.7-2.5,3.2c-0.7,0.2-2,0.4-3.3,0.4H118L120.2-157.3z M122.6-148.4c0.7,0,1.2,0,1.5-0.1
			c0.6-0.1,0.9-0.5,0.9-1.1c0-0.5-0.2-0.8-0.7-0.9c-0.3-0.1-0.8-0.1-1.3-0.1h-1l-0.4,2.2H122.6z M123.1-152.8c0.5,0,1,0,1.3-0.1
			c0.5-0.2,0.7-0.6,0.7-1.1c0-0.3-0.2-0.6-0.5-0.7c-0.3-0.1-0.7-0.1-1.1-0.1h-0.6l-0.4,2.1H123.1z"></path>
		<path style="fill:#383E42;" d="M133.9-146l0.1-0.8c-0.7,0.7-1.6,1-2.5,1c-1.4,0-2.1-0.7-2.1-1.9c0-0.5,0.1-1.3,0.2-2.1l0.8-4.3
			h2.8l-0.8,4.2c-0.1,0.4-0.1,0.8-0.1,1c0,0.5,0.2,0.7,0.7,0.7c0.4,0,1-0.3,1.3-0.8l1-5.2h2.8l-1.6,8.1H133.9z"></path>
		<path style="fill:#383E42;" d="M138.8-149.2c0.8,0.8,2,1.2,2.9,1.2c0.5,0,0.8-0.2,0.8-0.4c0-0.2-0.1-0.4-0.8-0.7l-0.8-0.3
			c-1.1-0.5-1.6-1.1-1.6-2.2c0-1.8,1.6-2.7,3.4-2.7c1,0,2.1,0.3,3,0.8l-0.4,2.3c-0.9-0.6-1.8-1-2.5-1c-0.4,0-0.7,0.2-0.7,0.4
			c0,0.2,0.1,0.3,0.8,0.6l0.8,0.4c1.2,0.5,1.7,1.2,1.7,2.2c0,1.9-1.7,2.8-3.6,2.8c-1.2,0-2.3-0.3-3.3-0.9L138.8-149.2z"></path>
		<path style="fill:#383E42;" d="M148.9-145.8c-1.3,0-2.3-0.6-2.3-2.1c0-0.5,0.1-1.2,0.3-2l0.4-2.1h-0.9l0.4-2.2h1l0.5-2.4h2.8
			l-0.4,2.4h2l-0.4,2.2h-2l-0.4,2.2c0,0.3-0.1,0.6-0.1,0.8c0,0.5,0.2,0.8,0.8,0.8c0.4,0,0.8-0.1,1.3-0.3l-0.4,2.2
			C150.5-145.9,149.8-145.8,148.9-145.8z"></path>
		<path style="fill:#383E42;" d="M156.4-145.8c-2.4,0-3.7-1.5-3.7-3.5c0-2.8,1.7-5,4.6-5c2.1,0,3.2,1.1,3.2,2.9
			c0,0.4-0.1,1.3-0.2,1.9h-4.8c0,0.1,0,0.3,0,0.4c0.2,0.7,0.8,1,1.7,1c1,0,1.9-0.2,2.8-0.8l-0.4,2.3
			C158.6-146,157.7-145.8,156.4-145.8z M157.9-150.9c0-0.1,0-0.3,0-0.4c0-0.6-0.3-0.9-0.9-0.9c-0.6,0-1.2,0.4-1.4,1.4H157.9z"></path>
		<path style="fill:#383E42;" d="M161.1-146l1.6-8.1h2.8l-0.2,1c0.5-0.8,1.3-1.2,2.2-1.2c0.4,0,0.6,0,0.9,0.2l-0.5,2.4
			c-0.3-0.2-0.7-0.3-1.1-0.3c-0.7,0-1.4,0.4-2,1.2l-0.9,4.9H161.1z"></path>
		<path style="fill:#383E42;" d="M169.7-153h1.9l0.4-2.5h1l-0.4,2.5h2l0.4-2.5h1l-0.4,2.5h1.9l-0.2,1h-1.9l-0.3,2.1h1.9l-0.2,1H175
			l-0.4,2.6h-1l0.4-2.6h-2l-0.4,2.6h-1l0.4-2.6h-1.9l0.2-1h1.9l0.3-2.1h-1.9L169.7-153z M172.1-149.8h2l0.3-2.1h-2L172.1-149.8z"></path>
		<path style="fill:#383E42;" d="M178.5-146.6l1.1-0.1c0.4,0,0.6-0.2,0.8-1.4l0.7-4.5c0.1-0.4,0.1-0.6,0.1-0.8
			c0-0.4-0.2-0.6-0.5-0.6l-1-0.1l0.1-0.6c0.5,0,1.9,0.1,2.6,0.1c0.7,0,2,0,2.5-0.1l-0.1,0.6l-1,0.1c-0.4,0-0.6,0.2-0.8,1.4l-0.7,4.5
			c-0.1,0.3-0.1,0.6-0.1,0.8c0,0.5,0.2,0.6,0.5,0.7l0.9,0.1l-0.1,0.6c-0.5,0-1.8-0.1-2.5-0.1c-0.7,0-2.1,0-2.6,0.1L178.5-146.6z"></path>
	</g>
	<g>
		<path style="fill:#383E42;" d="M81.8-97.6h-3.6c-0.9,0-2.6,0-3.2,0.1l0.1-0.9l0.9-0.2c0.7-0.1,1.1-0.5,1.4-2.1l1.5-9.9
			c0.1-0.4,0.1-0.7,0.1-0.9c0-0.8-0.3-1-0.8-1.1l-0.9-0.2l0.1-0.9c0.5,0,2.3,0.1,3.2,0.1c1.7,0,3.9,0,5.3,0c1.5,0,3-0.1,3.2-0.1
			c-0.2,1.2-0.4,2.7-0.5,3.7h-1l-0.1-1.2c0-0.6-0.4-1-1.2-1l-4.4,0l-0.9,5.9h3.2c0.9,0,1.1-0.2,1.2-0.7l0.4-1.1h1
			c-0.2,0.7-0.3,1.6-0.5,2.4c-0.1,0.7-0.2,1.8-0.3,2.5h-1l-0.1-1c0-0.5-0.1-0.8-1-0.8H81l-0.8,4.7c-0.1,0.3-0.1,0.6-0.1,0.8
			c0,0.6,0.4,0.9,1.8,0.9h2.7c0.9,0,1.4-0.3,1.7-1l0.7-1.5h1c-0.4,1.4-0.9,3.2-1,3.9C86.1-97.5,83.1-97.6,81.8-97.6z"></path>
		<path style="fill:#383E42;" d="M91.2-100.5c0-0.4,0.1-1,0.1-1.5l0.7-4.5c0.1-0.3,0.1-0.8,0.1-1c0-0.6-0.3-0.9-1.5-1.1l0.1-0.8
			c1.5-0.3,3-0.6,4.4-1.1l-1.3,8.3c-0.1,0.7-0.1,1-0.1,1.4c0,0.9,0.4,1.5,1.4,1.5c1.2,0,2.3-1,3.1-1.8l1.4-8.9l2.6-0.5l-1.5,9.6
			c-0.1,0.5-0.1,0.9-0.1,1.2c0,0.5,0.3,0.8,0.8,0.8c0.5,0,0.9-0.2,1.3-0.4l0.3,0.7c-0.7,0.7-1.7,1.4-3.1,1.4c-1.2,0-1.8-0.7-1.8-1.8
			c0-0.2,0-0.5,0.1-0.8h0c-0.8,1.1-2.4,2.6-4.1,2.6C92.1-97.3,91.2-98.6,91.2-100.5z"></path>
		<path style="fill:#383E42;" d="M106.6-106.7c0-0.3,0.1-0.8,0.1-1c0-0.7-0.3-0.9-1.5-1.1l0.1-0.8c1.5-0.3,2.9-0.6,4.3-1.1
			c0,0.1-0.5,2.8-0.5,3h0.1c0.8-1.4,2-2.7,3.5-2.7c0.4,0,0.9,0.1,1.2,0.2l-0.6,2.4c-0.3-0.2-0.8-0.2-1.2-0.2c-1.1,0-2.1,0.7-2.9,1.8
			l-1.4,8.8h-2.5L106.6-106.7z"></path>
		<path style="fill:#383E42;" d="M113.8-102.1c0-4.6,2.8-8.5,6.8-8.5c2.6,0,4.3,1.9,4.3,4.9c0,4.6-2.8,8.5-6.8,8.5
			C115.6-97.2,113.8-99.1,113.8-102.1z M122.2-105.4c0-2.6-0.7-3.8-2.1-3.8c-2.3,0-3.6,3.5-3.6,6.9c0,2.5,0.7,3.8,2.1,3.8
			C120.9-98.5,122.2-102,122.2-105.4z"></path>
		<path style="fill:#383E42;" d="M124.8-93.4l0.8-0.1c0.7-0.1,1.1-0.5,1.3-2.1l1.7-11c0-0.3,0.1-0.9,0.1-1.1c0-0.7-0.3-0.9-1.5-1.1
			l0.1-0.8c1.5-0.3,2.9-0.6,4.3-1.1l-0.5,2.8h0c0.8-1.3,2.3-2.6,4.1-2.6c2.1,0,3.4,1.7,3.4,4.1c0,5.6-4,9-8,9c-0.3,0-0.7,0-0.9-0.1
			l-0.3,1.9c-0.1,0.5-0.1,0.9-0.1,1.1c0,0.8,0.4,1,0.9,1l1.1,0.1l-0.1,0.9c-0.6,0-2.6-0.1-3.6-0.1c-1,0-2.3,0.1-3,0.1L124.8-93.4z
			 M136.1-106.3c0-1.3-0.7-2.3-1.7-2.3c-1.3,0-2.5,1-3.2,2.1l-1.1,7.5c0.3,0.2,0.7,0.3,1.2,0.3C133.8-98.8,136.1-102.2,136.1-106.3z
			"></path>
		<path style="fill:#383E42;" d="M140.4-102.1c0-4.5,3-8.5,6.8-8.5c2.1,0,3.4,0.9,3.4,2.5c0,2.8-2.7,4.6-7.5,4.9c0,0.1,0,0.3,0,0.4
			c0,2.3,0.9,3.8,2.9,3.8c1.2,0,2.1-0.4,2.9-0.8l0.2,0.5c-0.4,0.8-2.2,2.1-4.1,2.1C141.9-97.2,140.4-99,140.4-102.1z M148.2-107.9
			c0-0.8-0.4-1.4-1.3-1.4c-1.6,0-3.4,1.9-3.8,5.1C146.2-104.5,148.2-106.1,148.2-107.9z"></path>
		<path style="fill:#383E42;" d="M151.6-101.3c0-5.6,3.9-9.1,7.9-9.1c0.7,0,1.6,0.2,2.2,0.2c0.4,0,1-0.1,1.3-0.2l-1.5,9.3
			c-0.1,0.4-0.1,0.9-0.1,1.2c0,0.7,0.3,1,0.8,1c0.5,0,0.9-0.2,1.3-0.4l0.3,0.7c-0.5,0.6-1.7,1.3-3.1,1.3c-1.3,0-1.7-0.7-1.7-1.8
			c0-0.2,0.1-0.5,0.1-0.8H159c-0.8,1.4-2.3,2.7-4.2,2.7C152.7-97.2,151.6-98.9,151.6-101.3z M159-101.2l1.2-7.6
			c-0.3-0.2-0.7-0.3-1.2-0.3c-2.5,0-4.7,3.5-4.7,7.6c0,1.3,0.6,2.3,1.6,2.3C157.2-99.1,158.3-100.1,159-101.2z"></path>
		<path style="fill:#383E42;" d="M173-99.3c0-0.4,0.1-1,0.2-1.5l0.9-4.9c0.1-0.7,0.2-1.2,0.2-1.4c0-0.9-0.3-1.5-1.3-1.5
			c-1.2,0-2.4,1-3.2,1.8l-1.4,9.2h-2.5l1.4-9c0-0.3,0.1-0.9,0.1-1.1c0-0.7-0.3-0.9-1.5-1.1l0.1-0.8c1.5-0.3,3-0.6,4.4-1.1l-0.4,2.5
			h0.1c0.8-1,2.4-2.4,4-2.4c2.1,0,2.9,1.2,2.9,3.1c0,0.3-0.1,0.8-0.2,1.7l-0.9,4.7c-0.1,0.4-0.1,0.8-0.1,1.2c0,0.6,0.3,0.9,0.9,0.9
			c0.5,0,0.9-0.2,1.4-0.4l0.3,0.7c-0.7,0.6-1.8,1.4-3.2,1.4C173.6-97.4,173-98.1,173-99.3z"></path>
		<path style="fill:#383E42;" d="M186.9-102.1c0-0.3,0.1-0.8,0.1-1.1l1.2-7.4c0.1-0.4,0.1-0.7,0.1-1c0-0.8-0.3-1-0.8-1.1l-0.8-0.2
			l0.1-0.9c0.6,0,2.1,0.1,3.3,0.1c1.1,0,2.8,0,3.4-0.1l-0.1,0.9l-1.1,0.2c-0.7,0.1-1.1,0.5-1.4,2.1l-1.2,7.5
			c-0.1,0.3-0.1,0.7-0.1,0.9c0,2.2,1.5,3.4,3.7,3.4c2.7,0,4.3-1.6,4.7-4.3l1.2-7.4c0.1-0.4,0.1-0.7,0.1-1c0-0.8-0.3-1.1-0.8-1.2
			l-1-0.2l0.1-0.9c0.6,0,1.7,0.1,2.8,0.1c1.1,0,1.9,0,2.5-0.1l-0.1,0.9l-0.9,0.2c-0.8,0.1-1.1,0.6-1.4,2.2l-1.2,7.6
			c-0.5,3.5-3.1,5.6-6.9,5.6C189.1-97.3,186.9-99.4,186.9-102.1z"></path>
		<path style="fill:#383E42;" d="M211-99.3c0-0.4,0.1-1,0.2-1.5l0.9-4.9c0.1-0.7,0.2-1.2,0.2-1.4c0-0.9-0.3-1.5-1.3-1.5
			c-1.2,0-2.4,1-3.2,1.8l-1.4,9.2h-2.5l1.4-9c0-0.3,0.1-0.9,0.1-1.1c0-0.7-0.3-0.9-1.5-1.1l0.1-0.8c1.5-0.3,3-0.6,4.4-1.1l-0.4,2.5
			h0.1c0.8-1,2.4-2.4,4-2.4c2.1,0,2.9,1.2,2.9,3.1c0,0.3-0.1,0.8-0.2,1.7l-0.9,4.7c-0.1,0.4-0.1,0.8-0.1,1.2c0,0.6,0.3,0.9,0.9,0.9
			c0.5,0,0.9-0.2,1.4-0.4l0.3,0.7c-0.7,0.6-1.8,1.4-3.2,1.4C211.6-97.4,211-98.1,211-99.3z"></path>
		<path style="fill:#383E42;" d="M218.4-99.3c0-0.4,0.1-1,0.2-1.5l0.9-5.8c0.1-0.3,0.1-0.8,0.1-1.1c0-0.6-0.3-0.9-1.5-1.1l0.1-0.8
			c1.5-0.3,3-0.6,4.4-1.1l-1.5,9.7c-0.1,0.4-0.1,0.9-0.1,1.2c0,0.6,0.3,0.9,0.9,0.9c0.5,0,0.9-0.2,1.4-0.4l0.3,0.7
			c-0.7,0.6-1.8,1.4-3.2,1.4C218.9-97.4,218.4-98.1,218.4-99.3z M220.2-114.5c0-0.9,0.7-1.6,1.6-1.6c0.9,0,1.6,0.7,1.6,1.6
			c0,0.9-0.7,1.6-1.6,1.6C220.9-112.9,220.2-113.7,220.2-114.5z"></path>
		<path style="fill:#383E42;" d="M224.9-102.1c0-4.6,2.8-8.5,6.8-8.5c2.6,0,4.3,1.9,4.3,4.9c0,4.6-2.8,8.5-6.8,8.5
			C226.6-97.2,224.9-99.1,224.9-102.1z M233.3-105.4c0-2.6-0.7-3.8-2.1-3.8c-2.3,0-3.6,3.5-3.6,6.9c0,2.5,0.7,3.8,2.1,3.8
			C232-98.5,233.3-102,233.3-105.4z"></path>
		<path style="fill:#383E42;" d="M245.5-99.3c0-0.4,0.1-1,0.2-1.5l0.9-4.9c0.1-0.7,0.2-1.2,0.2-1.4c0-0.9-0.3-1.5-1.3-1.5
			c-1.2,0-2.4,1-3.2,1.8l-1.4,9.2h-2.5l1.4-9c0-0.3,0.1-0.9,0.1-1.1c0-0.7-0.3-0.9-1.5-1.1l0.1-0.8c1.5-0.3,3-0.6,4.4-1.1l-0.4,2.5
			h0.1c0.8-1,2.4-2.4,4-2.4c2.1,0,2.9,1.2,2.9,3.1c0,0.3-0.1,0.8-0.2,1.7l-0.9,4.7c-0.1,0.4-0.1,0.8-0.1,1.2c0,0.6,0.3,0.9,0.9,0.9
			c0.5,0,0.9-0.2,1.4-0.4l0.3,0.7c-0.7,0.6-1.8,1.4-3.2,1.4C246.1-97.4,245.5-98.1,245.5-99.3z"></path>
		<path style="fill:#383E42;" d="M258.2-99.3c0-0.4,0.1-1.1,0.2-1.6l1.7-11c0-0.3,0.1-0.8,0.1-1c0-0.6-0.3-0.9-1.5-1.1l0.1-0.8
			c1.5-0.3,3-0.6,4.4-1.1l-2.3,14.9c-0.1,0.5-0.1,0.9-0.1,1.2c0,0.6,0.3,0.9,0.9,0.9c0.5,0,0.9-0.2,1.4-0.4l0.3,0.7
			c-0.7,0.6-1.8,1.4-3.2,1.4C258.8-97.4,258.2-98.1,258.2-99.3z"></path>
		<path style="fill:#383E42;" d="M264.6-101.3c0-5.6,3.9-9.1,7.9-9.1c0.7,0,1.6,0.2,2.2,0.2c0.4,0,1-0.1,1.3-0.2l-1.5,9.3
			c-0.1,0.4-0.1,0.9-0.1,1.2c0,0.7,0.3,1,0.8,1c0.5,0,0.9-0.2,1.3-0.4l0.3,0.7c-0.5,0.6-1.7,1.3-3.1,1.3c-1.3,0-1.7-0.7-1.7-1.8
			c0-0.2,0.1-0.5,0.1-0.8h-0.1c-0.8,1.4-2.3,2.7-4.2,2.7C265.8-97.2,264.6-98.9,264.6-101.3z M272.1-101.2l1.2-7.6
			c-0.3-0.2-0.7-0.3-1.2-0.3c-2.5,0-4.7,3.5-4.7,7.6c0,1.3,0.6,2.3,1.6,2.3C270.2-99.1,271.4-100.1,272.1-101.2z"></path>
		<path style="fill:#383E42;" d="M280.1-107.2c-0.1-1-0.3-1.7-1-1.7c-0.4,0-0.8,0.3-1.1,0.6l-0.3-0.8c0.6-0.6,1.7-1.5,2.9-1.5
			s1.8,1,1.9,2.5l0.5,8h0.1l3.8-6.3l-0.3-3.7l2.5-0.5l0.6,10.5h0.1c3.1-4.8,3.8-6.8,3.8-8.5c0-0.4-0.2-1.1-0.5-1.5l2.4-0.6
			c0.3,0.4,0.5,1.1,0.5,1.6c0,1.8-2.4,5.5-6.5,11.4h-2l-0.5-6.6l-4.1,6.6h-2.1L280.1-107.2z"></path>
		<path style="fill:#383E42;" d="M296.4-98.1l1-1.8c1.1,0.8,2.3,1.1,3.4,1.1c1.3,0,2.1-0.7,2.1-1.6c0-1.1-1.2-1.9-2.5-2.6
			s-2.7-1.7-2.7-3.5c0-2.2,2.4-4,4.9-4c1.1,0,2.2,0.4,3.1,0.8l-1,1.8c-0.8-0.5-1.7-1.1-3.1-1.1c-1,0-1.7,0.5-1.7,1.4
			c0,0.9,0.6,1.5,1.6,2.2c1.6,1.1,3.4,1.9,3.4,4.2c0,2.5-2.9,4-5.1,4C298.7-97.2,297.5-97.6,296.4-98.1z"></path>
		<path style="fill:#383E42;" d="M75.9-71.3c0-5.6,3.9-9.1,7.9-9.1c0.7,0,1.6,0.2,2.2,0.2c0.4,0,1-0.1,1.3-0.2l-1.5,9.3
			c-0.1,0.4-0.1,0.9-0.1,1.2c0,0.7,0.3,1,0.8,1c0.5,0,0.9-0.2,1.3-0.4l0.3,0.7c-0.5,0.6-1.7,1.3-3.1,1.3c-1.3,0-1.7-0.7-1.7-1.8
			c0-0.2,0.1-0.5,0.1-0.8h-0.1c-0.8,1.4-2.3,2.7-4.2,2.7C77-67.2,75.9-68.9,75.9-71.3z M83.3-71.2l1.2-7.6C84.1-79,83.7-79,83.3-79
			c-2.5,0-4.7,3.5-4.7,7.6c0,1.3,0.6,2.3,1.6,2.3C81.4-69.1,82.6-70.1,83.3-71.2z"></path>
		<path style="fill:#383E42;" d="M91.5-76.7c0-0.3,0.1-0.8,0.1-1c0-0.7-0.3-0.9-1.5-1.1l0.1-0.8c1.5-0.3,2.9-0.6,4.3-1.1
			c0,0.1-0.5,2.8-0.5,3h0.1c0.8-1.4,2-2.7,3.5-2.7c0.4,0,0.9,0.1,1.2,0.2l-0.7,2.4c-0.3-0.2-0.8-0.2-1.2-0.2c-1.1,0-2.1,0.7-2.9,1.8
			l-1.4,8.8h-2.5L91.5-76.7z"></path>
		<path style="fill:#383E42;" d="M98.7-72.1c0-4.5,3-8.5,6.8-8.5c2.1,0,3.4,0.9,3.4,2.5c0,2.8-2.7,4.6-7.5,4.9c0,0.1,0,0.3,0,0.4
			c0,2.3,0.9,3.8,2.9,3.8c1.2,0,2.1-0.4,2.9-0.8l0.2,0.5c-0.4,0.8-2.2,2.1-4.1,2.1C100.3-67.2,98.7-69,98.7-72.1z M106.5-77.9
			c0-0.8-0.4-1.4-1.3-1.4c-1.6,0-3.4,1.9-3.8,5.1C104.6-74.5,106.5-76.1,106.5-77.9z"></path>
		<path style="fill:#383E42;" d="M116.7-69.3c0-0.4,0.1-1,0.2-1.5l0.9-5.8c0.1-0.3,0.1-0.8,0.1-1.1c0-0.6-0.3-0.9-1.5-1.1l0.1-0.8
			c1.5-0.3,3-0.6,4.4-1.1l-1.5,9.7c-0.1,0.4-0.1,0.9-0.1,1.2c0,0.6,0.3,0.9,0.9,0.9c0.5,0,0.9-0.2,1.4-0.4l0.3,0.7
			c-0.7,0.6-1.8,1.4-3.2,1.4C117.3-67.4,116.7-68.1,116.7-69.3z M118.5-84.5c0-0.9,0.7-1.6,1.6-1.6c0.9,0,1.6,0.7,1.6,1.6
			c0,0.9-0.7,1.6-1.6,1.6C119.3-82.9,118.5-83.7,118.5-84.5z"></path>
		<path style="fill:#383E42;" d="M137.5-69.3c0-0.4,0.1-1,0.2-1.5l0.9-4.9c0.1-0.7,0.2-1.2,0.2-1.4c0-0.9-0.3-1.5-1.3-1.5
			c-1.1,0-2.2,1.1-3,1.8c0,0.3-0.1,0.6-0.1,0.8l-1.3,8.4h-2.5l1.3-8.2c0.1-0.5,0.1-1,0.1-1.4c0-0.9-0.4-1.5-1.4-1.5
			c-1,0-2.1,1-2.9,1.8l-1.4,9.3h-2.5l1.4-9c0-0.3,0.1-0.9,0.1-1.1c0-0.7-0.3-0.9-1.5-1.1l0.1-0.8c1.5-0.3,3-0.6,4.4-1.1l-0.4,2.5
			h0.1c0.8-1.1,2-2.4,3.7-2.4c1.8,0,2.7,1.1,2.8,2.6c0.9-1.1,2.2-2.6,4-2.6c2.1,0,2.9,1.2,2.9,3.1c0,0.3-0.1,0.8-0.2,1.7l-0.9,4.7
			c-0.1,0.4-0.1,0.8-0.1,1.2c0,0.6,0.3,0.9,0.9,0.9c0.5,0,0.9-0.2,1.4-0.4l0.3,0.7c-0.7,0.6-1.8,1.4-3.2,1.4
			C138-67.4,137.5-68.1,137.5-69.3z"></path>
		<path style="fill:#383E42;" d="M142.1-63.4l0.8-0.1c0.7-0.1,1.1-0.5,1.3-2.1l1.7-11c0-0.3,0.1-0.9,0.1-1.1c0-0.7-0.3-0.9-1.5-1.1
			l0.1-0.8c1.5-0.3,2.9-0.6,4.3-1.1l-0.5,2.8h0c0.8-1.3,2.3-2.6,4.1-2.6c2.1,0,3.4,1.7,3.4,4.1c0,5.6-4,9-8,9c-0.3,0-0.7,0-0.9-0.1
			l-0.3,1.9c-0.1,0.5-0.1,0.9-0.1,1.1c0,0.8,0.4,1,0.9,1l1.1,0.1l-0.1,0.9c-0.6,0-2.6-0.1-3.6-0.1c-1,0-2.3,0.1-3,0.1L142.1-63.4z
			 M153.4-76.3c0-1.3-0.7-2.3-1.7-2.3c-1.3,0-2.5,1-3.2,2.1l-1.1,7.5c0.3,0.2,0.7,0.3,1.2,0.3C151.1-68.8,153.4-72.2,153.4-76.3z"></path>
		<path style="fill:#383E42;" d="M157.7-72.1c0-4.6,2.8-8.5,6.8-8.5c2.6,0,4.3,1.9,4.3,4.9c0,4.6-2.8,8.5-6.8,8.5
			C159.4-67.2,157.7-69.1,157.7-72.1z M166.1-75.4c0-2.6-0.7-3.8-2.1-3.8c-2.3,0-3.6,3.5-3.6,6.9c0,2.5,0.7,3.8,2.1,3.8
			C164.8-68.5,166.1-72,166.1-75.4z"></path>
		<path style="fill:#383E42;" d="M169.9-68.1l1-1.8c1.1,0.8,2.3,1.1,3.4,1.1c1.3,0,2.1-0.7,2.1-1.6c0-1.1-1.2-1.9-2.5-2.6
			s-2.7-1.7-2.7-3.5c0-2.2,2.4-4,4.9-4c1.1,0,2.2,0.4,3.1,0.8l-1,1.8c-0.8-0.5-1.7-1.1-3.1-1.1c-1,0-1.7,0.5-1.7,1.4
			c0,0.9,0.6,1.5,1.6,2.2c1.6,1.1,3.4,1.9,3.4,4.2c0,2.5-2.9,4-5.1,4C172.3-67.2,171.1-67.6,169.9-68.1z"></path>
		<path style="fill:#383E42;" d="M180.8-72.1c0-4.5,3-8.5,6.8-8.5c2.1,0,3.4,0.9,3.4,2.5c0,2.8-2.7,4.6-7.5,4.9c0,0.1,0,0.3,0,0.4
			c0,2.3,0.9,3.8,2.9,3.8c1.2,0,2.1-0.4,2.9-0.8l0.2,0.5c-0.4,0.8-2.2,2.1-4.1,2.1C182.3-67.2,180.8-69,180.8-72.1z M188.6-77.9
			c0-0.8-0.4-1.4-1.3-1.4c-1.6,0-3.4,1.9-3.8,5.1C186.6-74.5,188.6-76.1,188.6-77.9z"></path>
		<path style="fill:#383E42;" d="M191.9-71.3c0-5.6,4-9,8-9c0.3,0,0.7,0.1,0.9,0.1l0.2-1.6c0.1-0.3,0.1-0.8,0.1-1
			c0-0.6-0.3-0.9-1.5-1.1l0.1-0.8c1.5-0.3,3-0.6,4.4-1.1L202-71.2c-0.1,0.4-0.1,0.9-0.1,1.2c0,0.7,0.3,1,0.8,1
			c0.5,0,0.9-0.2,1.3-0.4l0.3,0.7c-0.5,0.6-1.7,1.3-3.1,1.3c-1.3,0-1.7-0.7-1.7-1.8c0-0.2,0.1-0.6,0.1-0.8h-0.1
			c-0.8,1.4-2.3,2.7-4.2,2.7C193.2-67.2,191.9-68.9,191.9-71.3z M199.4-71.2l1.2-7.5c-0.3-0.2-0.7-0.3-1.2-0.3
			c-2.5,0-4.9,3.4-4.9,7.5c0,1.3,0.7,2.3,1.7,2.3C197.6-69.1,198.8-70.1,199.4-71.2z"></path>
		<path style="fill:#383E42;" d="M211.3-72.1c0-4.6,2.8-8.5,6.8-8.5c2.6,0,4.3,1.9,4.3,4.9c0,4.6-2.8,8.5-6.8,8.5
			C213-67.2,211.3-69.1,211.3-72.1z M219.7-75.4c0-2.6-0.7-3.8-2.1-3.8c-2.3,0-3.6,3.5-3.6,6.9c0,2.5,0.7,3.8,2.1,3.8
			C218.4-68.5,219.7-72,219.7-75.4z"></path>
		<path style="fill:#383E42;" d="M231.9-69.3c0-0.4,0.1-1,0.2-1.5l0.9-4.9c0.1-0.7,0.2-1.2,0.2-1.4c0-0.9-0.3-1.5-1.3-1.5
			c-1.2,0-2.4,1-3.2,1.8l-1.4,9.2h-2.5l1.4-9c0-0.3,0.1-0.9,0.1-1.1c0-0.7-0.3-0.9-1.5-1.1l0.1-0.8c1.5-0.3,3-0.6,4.4-1.1l-0.4,2.5
			h0.1c0.8-1,2.4-2.4,4-2.4c2.1,0,2.9,1.2,2.9,3.1c0,0.3-0.1,0.8-0.2,1.7l-0.9,4.7c-0.1,0.4-0.1,0.8-0.1,1.2c0,0.6,0.3,0.9,0.9,0.9
			c0.5,0,0.9-0.2,1.4-0.4l0.3,0.7c-0.7,0.6-1.8,1.4-3.2,1.4C232.5-67.4,231.9-68.1,231.9-69.3z"></path>
		<path style="fill:#383E42;" d="M245-70.5c0-0.4,0.1-1,0.1-1.5l0.7-4.5c0.1-0.3,0.1-0.8,0.1-1c0-0.6-0.3-0.9-1.5-1.1l0.1-0.8
			c1.5-0.3,3-0.6,4.4-1.1l-1.3,8.3c-0.1,0.7-0.1,1-0.1,1.4c0,0.9,0.4,1.5,1.4,1.5c1.2,0,2.3-1,3.1-1.8l1.4-8.9l2.6-0.5l-1.5,9.6
			c-0.1,0.5-0.1,0.9-0.1,1.2c0,0.5,0.3,0.8,0.8,0.8c0.5,0,0.9-0.2,1.3-0.4l0.3,0.7c-0.7,0.7-1.7,1.4-3.1,1.4c-1.2,0-1.8-0.7-1.8-1.8
			c0-0.2,0-0.5,0.1-0.8h0c-0.8,1.1-2.4,2.6-4.1,2.6C245.8-67.3,245-68.6,245-70.5z"></path>
		<path style="fill:#383E42;" d="M257.7-68.1l1-1.8c1.1,0.8,2.3,1.1,3.4,1.1c1.3,0,2.1-0.7,2.1-1.6c0-1.1-1.2-1.9-2.5-2.6
			s-2.7-1.7-2.7-3.5c0-2.2,2.4-4,4.9-4c1.1,0,2.2,0.4,3.1,0.8l-1,1.8c-0.8-0.5-1.7-1.1-3.1-1.1c-1,0-1.7,0.5-1.7,1.4
			c0,0.9,0.6,1.5,1.6,2.2c1.6,1.1,3.4,1.9,3.4,4.2c0,2.5-2.9,4-5.1,4C260-67.2,258.8-67.6,257.7-68.1z"></path>
		<path style="fill:#383E42;" d="M274.4-67.8l2.2-14.1c0-0.3,0.1-0.8,0.1-1c0-0.6-0.3-0.9-1.5-1.1l0.1-0.8c1.5-0.3,3-0.6,4.4-1.1
			l-1.3,7.9h0c0.8-1.2,2.3-2.4,4-2.4c2.1,0,3.4,1.7,3.4,4.1c0,5.6-4.1,9.1-8.1,9.1C276.6-67.4,275.5-67.5,274.4-67.8z M283.2-76.3
			c0-1.3-0.7-2.3-1.7-2.3c-1.3,0-2.5,1-3.2,2.1l-1.2,7.5c0.3,0.2,0.7,0.3,1.2,0.3C280.9-68.8,283.2-72.2,283.2-76.3z"></path>
		<path style="fill:#383E42;" d="M285.2-62.4l0.2-2c0.4,0.1,0.9,0.1,1.2,0.1c1.8,0,3-1.3,4-3.4l-1.7-9.7c-0.1-0.8-0.3-1.7-1-1.7
			c-0.3,0-0.7,0.3-1.1,0.6l-0.3-0.8c0.5-0.6,1.6-1.5,2.9-1.5c1.3,0,1.7,1.1,2,2.5l1.3,8.1h0.1c3-4.7,3.6-6.3,3.6-8.6
			c0-0.4-0.2-1.1-0.5-1.5l2.3-0.6c0.3,0.4,0.5,1.1,0.5,1.6c0,2.7-3,6.7-7.2,12.9c-1.7,2.5-3.2,3.8-5.5,3.8
			C285.9-62.3,285.4-62.3,285.2-62.4z"></path>
		<path style="fill:#383E42;" d="M76.8-40.5c0-0.4,0.1-1,0.1-1.5l0.7-4.5c0.1-0.3,0.1-0.8,0.1-1c0-0.6-0.3-0.9-1.5-1.1l0.1-0.8
			c1.5-0.3,3-0.6,4.4-1.1l-1.3,8.3c-0.1,0.7-0.1,1-0.1,1.4c0,0.9,0.4,1.5,1.4,1.5c1.2,0,2.3-1,3.1-1.8l1.4-8.9l2.6-0.5l-1.5,9.6
			c-0.1,0.5-0.1,0.9-0.1,1.2c0,0.5,0.3,0.8,0.8,0.8c0.5,0,0.9-0.2,1.3-0.4l0.3,0.7C88-38,87-37.3,85.6-37.3c-1.2,0-1.8-0.7-1.8-1.8
			c0-0.2,0-0.5,0.1-0.8h0c-0.8,1.1-2.4,2.6-4.1,2.6C77.7-37.3,76.8-38.6,76.8-40.5z"></path>
		<path style="fill:#383E42;" d="M97.9-39.3c0-0.4,0.1-1,0.2-1.5l0.9-4.9c0.1-0.7,0.2-1.2,0.2-1.4c0-0.9-0.3-1.5-1.3-1.5
			c-1.2,0-2.4,1-3.2,1.8l-1.4,9.2h-2.5l1.4-9c0-0.3,0.1-0.9,0.1-1.1c0-0.7-0.3-0.9-1.5-1.1l0.1-0.8c1.5-0.3,3-0.6,4.4-1.1l-0.4,2.5
			H95c0.8-1,2.4-2.4,4-2.4c2.1,0,2.9,1.2,2.9,3.1c0,0.3-0.1,0.8-0.2,1.7l-0.9,4.7c-0.1,0.4-0.1,0.8-0.1,1.2c0,0.6,0.3,0.9,0.9,0.9
			c0.5,0,0.9-0.2,1.4-0.4l0.3,0.7c-0.7,0.6-1.8,1.4-3.2,1.4C98.5-37.4,97.9-38.1,97.9-39.3z"></path>
		<path style="fill:#383E42;" d="M104.4-42.1c0-4.5,3-8.5,6.8-8.5c2.1,0,3.4,0.9,3.4,2.5c0,2.8-2.7,4.6-7.5,4.9c0,0.1,0,0.3,0,0.4
			c0,2.3,0.9,3.8,2.9,3.8c1.2,0,2.1-0.4,2.9-0.8l0.2,0.5c-0.4,0.8-2.2,2.1-4.1,2.1C105.9-37.2,104.4-39,104.4-42.1z M112.2-47.9
			c0-0.8-0.4-1.4-1.3-1.4c-1.6,0-3.4,1.9-3.8,5.1C110.3-44.5,112.2-46.1,112.2-47.9z"></path>
		<path style="fill:#383E42;" d="M116.5-39.3c0-0.4,0.1-1.1,0.2-1.6l1.7-11c0-0.3,0.1-0.8,0.1-1c0-0.6-0.3-0.9-1.5-1.1l0.1-0.8
			c1.5-0.3,3-0.6,4.4-1.1l-2.3,14.9c-0.1,0.5-0.1,0.9-0.1,1.2c0,0.6,0.3,0.9,0.9,0.9c0.5,0,0.9-0.2,1.4-0.4l0.3,0.7
			c-0.7,0.6-1.8,1.4-3.2,1.4C117.1-37.4,116.5-38.1,116.5-39.3z"></path>
		<path style="fill:#383E42;" d="M122.9-42.1c0-4.5,3-8.5,6.8-8.5c2.1,0,3.4,0.9,3.4,2.5c0,2.8-2.7,4.6-7.5,4.9c0,0.1,0,0.3,0,0.4
			c0,2.3,0.9,3.8,2.9,3.8c1.2,0,2.1-0.4,2.9-0.8l0.2,0.5c-0.4,0.8-2.2,2.1-4.1,2.1C124.5-37.2,122.9-39,122.9-42.1z M130.7-47.9
			c0-0.8-0.4-1.4-1.3-1.4c-1.6,0-3.4,1.9-3.8,5.1C128.8-44.5,130.7-46.1,130.7-47.9z"></path>
		<path style="fill:#383E42;" d="M134-42.3c0-4.8,3.6-8.2,7.1-8.2c1.2,0,2.2,0.3,3,0.7l-0.8,1.9c-0.8-0.6-1.7-0.9-2.7-0.9
			c-2.1,0-4,1.9-4,6c0,2.4,1,3.8,3,3.8c1.2,0,2.2-0.4,3-0.8l0.2,0.5c-0.4,0.8-2.2,2.1-4.2,2.1C135.7-37.2,134-39.3,134-42.3z"></path>
		<path style="fill:#383E42;" d="M145.8-39.5c0-0.4,0.1-0.9,0.1-1.4l1.2-8h-1.6l0.2-0.9c2-0.6,3-2,3.6-3.5h1.1l-0.5,3h2.9l-0.2,1.4
			h-2.9l-1.2,7.6c-0.1,0.4-0.1,0.7-0.1,1.1c0,0.8,0.4,1.1,1.1,1.1c0.8,0,1.5-0.2,2.1-0.5l0.2,0.7c-0.8,0.7-2.2,1.4-3.9,1.4
			C146.5-37.4,145.8-38.3,145.8-39.5z"></path>
		<path style="fill:#383E42;" d="M153.4-42.1c0-4.5,3-8.5,6.8-8.5c2.1,0,3.4,0.9,3.4,2.5c0,2.8-2.7,4.6-7.5,4.9c0,0.1,0,0.3,0,0.4
			c0,2.3,0.9,3.8,2.9,3.8c1.2,0,2.1-0.4,2.9-0.8l0.2,0.5c-0.4,0.8-2.2,2.1-4.1,2.1C155-37.2,153.4-39,153.4-42.1z M161.2-47.9
			c0-0.8-0.4-1.4-1.3-1.4c-1.6,0-3.4,1.9-3.8,5.1C159.3-44.5,161.2-46.1,161.2-47.9z"></path>
		<path style="fill:#383E42;" d="M164.6-41.3c0-5.6,4-9,8-9c0.3,0,0.7,0.1,0.9,0.1l0.2-1.6c0.1-0.3,0.1-0.8,0.1-1
			c0-0.6-0.3-0.9-1.5-1.1l0.1-0.8c1.5-0.3,3-0.6,4.4-1.1l-2.3,14.8c-0.1,0.4-0.1,0.9-0.1,1.2c0,0.7,0.3,1,0.8,1
			c0.5,0,0.9-0.2,1.3-0.4l0.3,0.7c-0.5,0.6-1.7,1.3-3.1,1.3c-1.3,0-1.7-0.7-1.7-1.8c0-0.2,0.1-0.6,0.1-0.8h-0.1
			c-0.8,1.4-2.3,2.7-4.2,2.7C165.9-37.2,164.6-38.9,164.6-41.3z M172.1-41.2l1.2-7.5c-0.3-0.2-0.7-0.3-1.2-0.3
			c-2.5,0-4.9,3.4-4.9,7.5c0,1.3,0.7,2.3,1.7,2.3C170.3-39.1,171.4-40.1,172.1-41.2z"></path>
		<path style="fill:#383E42;" d="M184.2-37.8l2.2-14.1c0-0.3,0.1-0.8,0.1-1c0-0.6-0.3-0.9-1.5-1.1l0.1-0.8c1.5-0.3,3-0.6,4.4-1.1
			l-1.3,7.9h0c0.8-1.2,2.3-2.4,4-2.4c2.1,0,3.4,1.7,3.4,4.1c0,5.6-4.1,9.1-8.1,9.1C186.4-37.4,185.3-37.5,184.2-37.8z M193-46.3
			c0-1.3-0.7-2.3-1.7-2.3c-1.3,0-2.5,1-3.2,2.1l-1.2,7.5c0.3,0.2,0.7,0.3,1.2,0.3C190.7-38.8,193-42.2,193-46.3z"></path>
		<path style="fill:#383E42;" d="M198.3-40.5c0-0.4,0.1-1,0.1-1.5l0.7-4.5c0.1-0.3,0.1-0.8,0.1-1c0-0.6-0.3-0.9-1.5-1.1l0.1-0.8
			c1.5-0.3,3-0.6,4.4-1.1l-1.3,8.3c-0.1,0.7-0.1,1-0.1,1.4c0,0.9,0.4,1.5,1.4,1.5c1.2,0,2.3-1,3.1-1.8l1.4-8.9l2.6-0.5l-1.5,9.6
			c-0.1,0.5-0.1,0.9-0.1,1.2c0,0.5,0.3,0.8,0.8,0.8c0.5,0,0.9-0.2,1.3-0.4l0.3,0.7c-0.7,0.7-1.7,1.4-3.1,1.4c-1.2,0-1.8-0.7-1.8-1.8
			c0-0.2,0-0.5,0.1-0.8h0c-0.8,1.1-2.4,2.6-4.1,2.6C199.1-37.3,198.3-38.6,198.3-40.5z"></path>
		<path style="fill:#383E42;" d="M213.6-46.7c0-0.3,0.1-0.8,0.1-1c0-0.7-0.3-0.9-1.5-1.1l0.1-0.8c1.5-0.3,2.9-0.6,4.3-1.1
			c0,0.1-0.5,2.8-0.5,3h0.1c0.8-1.4,2-2.7,3.5-2.7c0.4,0,0.9,0.1,1.2,0.2l-0.7,2.4c-0.3-0.2-0.8-0.2-1.2-0.2c-1.1,0-2.1,0.7-2.9,1.8
			l-1.4,8.8h-2.5L213.6-46.7z"></path>
		<path style="fill:#383E42;" d="M220.8-42.1c0-4.5,3-8.5,6.8-8.5c2.1,0,3.4,0.9,3.4,2.5c0,2.8-2.7,4.6-7.5,4.9c0,0.1,0,0.3,0,0.4
			c0,2.3,0.9,3.8,2.9,3.8c1.2,0,2.1-0.4,2.9-0.8l0.2,0.5c-0.4,0.8-2.2,2.1-4.1,2.1C222.4-37.2,220.8-39,220.8-42.1z M228.6-47.9
			c0-0.8-0.4-1.4-1.3-1.4c-1.6,0-3.4,1.9-3.8,5.1C226.7-44.5,228.6-46.1,228.6-47.9z"></path>
		<path style="fill:#383E42;" d="M232-41.3c0-5.6,3.9-9.1,7.9-9.1c0.7,0,1.6,0.2,2.2,0.2c0.4,0,1-0.1,1.3-0.2l-1.5,9.3
			c-0.1,0.4-0.1,0.9-0.1,1.2c0,0.7,0.3,1,0.8,1c0.5,0,0.9-0.2,1.3-0.4l0.3,0.7c-0.5,0.6-1.7,1.3-3.1,1.3c-1.3,0-1.7-0.7-1.7-1.8
			c0-0.2,0.1-0.5,0.1-0.8h-0.1c-0.8,1.4-2.3,2.7-4.2,2.7C233.2-37.2,232-38.9,232-41.3z M239.4-41.2l1.2-7.6
			c-0.3-0.2-0.7-0.3-1.2-0.3c-2.5,0-4.7,3.5-4.7,7.6c0,1.3,0.6,2.3,1.6,2.3C237.6-39.1,238.8-40.1,239.4-41.2z"></path>
		<path style="fill:#383E42;" d="M246.7-40.5c0-0.4,0.1-1,0.1-1.5l0.7-4.5c0.1-0.3,0.1-0.8,0.1-1c0-0.6-0.3-0.9-1.5-1.1l0.1-0.8
			c1.5-0.3,3-0.6,4.4-1.1l-1.3,8.3c-0.1,0.7-0.1,1-0.1,1.4c0,0.9,0.4,1.5,1.4,1.5c1.2,0,2.3-1,3.1-1.8l1.4-8.9l2.6-0.5l-1.5,9.6
			c-0.1,0.5-0.1,0.9-0.1,1.2c0,0.5,0.3,0.8,0.8,0.8c0.5,0,0.9-0.2,1.3-0.4l0.3,0.7c-0.7,0.7-1.7,1.4-3.1,1.4c-1.2,0-1.8-0.7-1.8-1.8
			c0-0.2,0-0.5,0.1-0.8h0c-0.8,1.1-2.4,2.6-4.1,2.6C247.5-37.3,246.7-38.6,246.7-40.5z"></path>
		<path style="fill:#383E42;" d="M259.9-42.3c0-4.8,3.6-8.2,7.1-8.2c1.2,0,2.2,0.3,3,0.7l-0.8,1.9c-0.8-0.6-1.7-0.9-2.7-0.9
			c-2.1,0-4,1.9-4,6c0,2.4,1,3.8,3,3.8c1.2,0,2.2-0.4,3-0.8l0.2,0.5c-0.4,0.8-2.2,2.1-4.2,2.1C261.6-37.2,259.9-39.3,259.9-42.3z"></path>
		<path style="fill:#383E42;" d="M272.6-46.7c0-0.3,0.1-0.8,0.1-1c0-0.7-0.3-0.9-1.5-1.1l0.1-0.8c1.5-0.3,2.9-0.6,4.3-1.1
			c0,0.1-0.5,2.8-0.5,3h0.1c0.8-1.4,2-2.7,3.5-2.7c0.4,0,0.9,0.1,1.2,0.2l-0.7,2.4c-0.3-0.2-0.8-0.2-1.2-0.2c-1.1,0-2.1,0.7-2.9,1.8
			l-1.4,8.8h-2.5L272.6-46.7z"></path>
		<path style="fill:#383E42;" d="M279.8-41.3c0-5.6,3.9-9.1,7.9-9.1c0.7,0,1.6,0.2,2.2,0.2c0.4,0,1-0.1,1.3-0.2l-1.5,9.3
			c-0.1,0.4-0.1,0.9-0.1,1.2c0,0.7,0.3,1,0.8,1c0.5,0,0.9-0.2,1.3-0.4l0.3,0.7c-0.5,0.6-1.7,1.3-3.1,1.3c-1.3,0-1.7-0.7-1.7-1.8
			c0-0.2,0.1-0.5,0.1-0.8h-0.1c-0.8,1.4-2.3,2.7-4.2,2.7C281-37.2,279.8-38.9,279.8-41.3z M287.2-41.2l1.2-7.6
			c-0.3-0.2-0.7-0.3-1.2-0.3c-2.5,0-4.7,3.5-4.7,7.6c0,1.3,0.6,2.3,1.6,2.3C285.4-39.1,286.6-40.1,287.2-41.2z"></path>
		<path style="fill:#383E42;" d="M294.5-39.5c0-0.4,0.1-0.9,0.1-1.4l1.2-8h-1.6l0.2-0.9c2-0.6,3-2,3.6-3.5h1.1l-0.5,3h2.9l-0.2,1.4
			h-2.9l-1.2,7.6c-0.1,0.4-0.1,0.7-0.1,1.1c0,0.8,0.4,1.1,1.1,1.1c0.8,0,1.5-0.2,2.1-0.5l0.2,0.7c-0.8,0.7-2.2,1.4-3.9,1.4
			C295.2-37.4,294.5-38.3,294.5-39.5z"></path>
		<path style="fill:#383E42;" d="M301.7-38.1l1-1.8c1.1,0.8,2.3,1.1,3.4,1.1c1.3,0,2.1-0.7,2.1-1.6c0-1.1-1.2-1.9-2.5-2.6
			s-2.7-1.7-2.7-3.5c0-2.2,2.4-4,4.9-4c1.1,0,2.2,0.4,3.1,0.8l-1,1.8c-0.8-0.5-1.7-1.1-3.1-1.1c-1,0-1.7,0.5-1.7,1.4
			c0,0.9,0.6,1.5,1.6,2.2c1.6,1.1,3.4,1.9,3.4,4.2c0,2.5-2.9,4-5.1,4C304.1-37.2,302.9-37.6,301.7-38.1z"></path>
		<path style="fill:#383E42;" d="M76.7-9.3c0-0.4,0.1-1,0.2-1.5l0.9-5.8c0.1-0.3,0.1-0.8,0.1-1.1c0-0.6-0.3-0.9-1.5-1.1l0.1-0.8
			c1.5-0.3,3-0.6,4.4-1.1l-1.5,9.7c-0.1,0.4-0.1,0.9-0.1,1.2c0,0.6,0.3,0.9,0.9,0.9c0.5,0,0.9-0.2,1.4-0.4l0.3,0.7
			c-0.7,0.6-1.8,1.4-3.2,1.4C77.3-7.4,76.7-8.1,76.7-9.3z M78.6-24.5c0-0.9,0.7-1.6,1.6-1.6c0.9,0,1.6,0.7,1.6,1.6
			c0,0.9-0.7,1.6-1.6,1.6C79.3-22.9,78.6-23.7,78.6-24.5z"></path>
		<path style="fill:#383E42;" d="M91-9.3c0-0.4,0.1-1,0.2-1.5l0.9-4.9c0.1-0.7,0.2-1.2,0.2-1.4c0-0.9-0.3-1.5-1.3-1.5
			c-1.2,0-2.4,1-3.2,1.8l-1.4,9.2h-2.5l1.4-9c0-0.3,0.1-0.9,0.1-1.1c0-0.7-0.3-0.9-1.5-1.1l0.1-0.8c1.5-0.3,3-0.6,4.4-1.1L88-18.2
			h0.1c0.8-1,2.4-2.4,4-2.4c2.1,0,2.9,1.2,2.9,3.1c0,0.3-0.1,0.8-0.2,1.7l-0.9,4.7c-0.1,0.4-0.1,0.8-0.1,1.2c0,0.6,0.3,0.9,0.9,0.9
			c0.5,0,0.9-0.2,1.4-0.4l0.3,0.7c-0.7,0.6-1.8,1.4-3.2,1.4C91.6-7.4,91-8.1,91-9.3z"></path>
		<path style="fill:#383E42;" d="M104.1-9.5c0-0.4,0.1-0.9,0.1-1.4l1.2-8h-1.6l0.2-0.9c2-0.6,3-2,3.6-3.5h1.1l-0.5,3h2.9l-0.2,1.4
			H108l-1.2,7.6c-0.1,0.4-0.1,0.7-0.1,1.1c0,0.8,0.4,1.1,1.1,1.1c0.8,0,1.5-0.2,2.1-0.5l0.2,0.7c-0.8,0.7-2.2,1.4-3.9,1.4
			C104.8-7.4,104.1-8.3,104.1-9.5z"></path>
		<path style="fill:#383E42;" d="M119.4-9.3c0-0.4,0.1-1,0.2-1.5l0.9-4.9c0.1-0.7,0.2-1.2,0.2-1.4c0-0.9-0.3-1.5-1.3-1.5
			c-1.2,0-2.4,1-3.2,1.8l-1.4,9.2h-2.5l2.2-14.3c0.1-0.3,0.1-0.9,0.1-1.1c0-0.6-0.3-0.9-1.5-1.1l0.1-0.8c1.5-0.3,3-0.6,4.4-1.1
			l-1.2,7.8h0.1c0.8-1,2.4-2.4,4-2.4c2.1,0,2.9,1.2,2.9,3.1c0,0.3-0.1,0.8-0.2,1.7l-0.9,4.7c-0.1,0.4-0.1,0.8-0.1,1.2
			c0,0.6,0.3,0.9,0.9,0.9c0.5,0,0.9-0.2,1.4-0.4l0.3,0.7c-0.7,0.6-1.8,1.4-3.2,1.4C120-7.4,119.4-8.1,119.4-9.3z"></path>
		<path style="fill:#383E42;" d="M125.9-12.1c0-4.5,3-8.5,6.8-8.5c2.1,0,3.4,0.9,3.4,2.5c0,2.8-2.7,4.6-7.5,4.9c0,0.1,0,0.3,0,0.4
			c0,2.3,0.9,3.8,2.9,3.8c1.2,0,2.1-0.4,2.9-0.8l0.2,0.5c-0.4,0.8-2.2,2.1-4.1,2.1C127.4-7.2,125.9-9,125.9-12.1z M133.7-17.9
			c0-0.8-0.4-1.4-1.3-1.4c-1.6,0-3.4,1.9-3.8,5.1C131.7-14.5,133.7-16.1,133.7-17.9z"></path>
		<path style="fill:#383E42;" d="M148.9-7.6h-3.6c-0.9,0-2.6,0-3.2,0.1l0.1-0.9l0.9-0.2c0.7-0.1,1.1-0.5,1.4-2.1l1.5-9.9
			c0.1-0.4,0.1-0.7,0.1-0.9c0-0.8-0.3-1-0.8-1.1l-0.9-0.2l0.1-0.9c0.5,0,2.3,0.1,3.2,0.1c1.7,0,3.9,0,5.3,0c1.5,0,3-0.1,3.2-0.1
			c-0.2,1.2-0.4,2.7-0.5,3.7h-1l-0.1-1.2c0-0.6-0.4-1-1.2-1l-4.4,0l-0.9,5.9h3.2c0.9,0,1.1-0.2,1.2-0.7l0.4-1.1h1
			c-0.2,0.7-0.3,1.6-0.5,2.4c-0.1,0.7-0.2,1.8-0.3,2.5h-1l-0.1-1c0-0.5-0.1-0.8-1-0.8h-3.2l-0.8,4.7c-0.1,0.3-0.1,0.6-0.1,0.8
			c0,0.6,0.4,0.9,1.8,0.9h2.7c0.9,0,1.4-0.3,1.7-1l0.7-1.5h1c-0.4,1.4-0.9,3.2-1,3.9C153.2-7.5,150.3-7.6,148.9-7.6z"></path>
		<path style="fill:#383E42;" d="M158.4-10.5c0-0.4,0.1-1,0.1-1.5l0.7-4.5c0.1-0.3,0.1-0.8,0.1-1c0-0.6-0.3-0.9-1.5-1.1l0.1-0.8
			c1.5-0.3,3-0.6,4.4-1.1l-1.3,8.3c-0.1,0.7-0.1,1-0.1,1.4c0,0.9,0.4,1.5,1.4,1.5c1.2,0,2.3-1,3.1-1.8l1.4-8.9l2.6-0.5l-1.5,9.6
			c-0.1,0.5-0.1,0.9-0.1,1.2c0,0.5,0.3,0.8,0.8,0.8c0.5,0,0.9-0.2,1.3-0.4l0.3,0.7c-0.7,0.7-1.7,1.4-3.1,1.4c-1.2,0-1.8-0.7-1.8-1.8
			c0-0.2,0-0.5,0.1-0.8h0c-0.8,1.1-2.4,2.6-4.1,2.6C159.2-7.3,158.4-8.6,158.4-10.5z"></path>
		<path style="fill:#383E42;" d="M173.7-16.7c0-0.3,0.1-0.8,0.1-1c0-0.7-0.3-0.9-1.5-1.1l0.1-0.8c1.5-0.3,2.9-0.6,4.3-1.1
			c0,0.1-0.5,2.8-0.5,3h0.1c0.8-1.4,2-2.7,3.5-2.7c0.4,0,0.9,0.1,1.2,0.2l-0.6,2.4c-0.3-0.2-0.8-0.2-1.2-0.2c-1.1,0-2.1,0.7-2.9,1.8
			l-1.4,8.8h-2.5L173.7-16.7z"></path>
		<path style="fill:#383E42;" d="M180.9-12.1c0-4.6,2.8-8.5,6.8-8.5c2.6,0,4.3,1.9,4.3,4.9c0,4.6-2.8,8.5-6.8,8.5
			C182.7-7.2,180.9-9.1,180.9-12.1z M189.3-15.4c0-2.6-0.7-3.8-2.1-3.8c-2.3,0-3.6,3.5-3.6,6.9c0,2.5,0.7,3.8,2.1,3.8
			C188-8.5,189.3-12,189.3-15.4z"></path>
		<path style="fill:#383E42;" d="M192-3.4l0.8-0.1c0.7-0.1,1.1-0.5,1.3-2.1l1.7-11c0-0.3,0.1-0.9,0.1-1.1c0-0.7-0.3-0.9-1.5-1.1
			l0.1-0.8c1.5-0.3,2.9-0.6,4.3-1.1l-0.5,2.8h0c0.8-1.3,2.3-2.6,4.1-2.6c2.1,0,3.4,1.7,3.4,4.1c0,5.6-4,9-8,9c-0.3,0-0.7,0-0.9-0.1
			l-0.3,1.9c-0.1,0.5-0.1,0.9-0.1,1.1c0,0.8,0.4,1,0.9,1l1.1,0.1l-0.1,0.9c-0.6,0-2.6-0.1-3.6-0.1c-1,0-2.3,0.1-3,0.1L192-3.4z
			 M203.2-16.3c0-1.3-0.7-2.3-1.7-2.3c-1.3,0-2.5,1-3.2,2.1l-1.1,7.5c0.3,0.2,0.7,0.3,1.2,0.3C200.9-8.8,203.2-12.2,203.2-16.3z"></path>
		<path style="fill:#383E42;" d="M207.5-12.1c0-4.5,3-8.5,6.8-8.5c2.1,0,3.4,0.9,3.4,2.5c0,2.8-2.7,4.6-7.5,4.9c0,0.1,0,0.3,0,0.4
			c0,2.3,0.9,3.8,2.9,3.8c1.2,0,2.1-0.4,2.9-0.8l0.2,0.5c-0.4,0.8-2.2,2.1-4.1,2.1C209-7.2,207.5-9,207.5-12.1z M215.3-17.9
			c0-0.8-0.4-1.4-1.3-1.4c-1.6,0-3.4,1.9-3.8,5.1C213.3-14.5,215.3-16.1,215.3-17.9z"></path>
		<path style="fill:#383E42;" d="M218.7-11.3c0-5.6,3.9-9.1,7.9-9.1c0.7,0,1.6,0.2,2.2,0.2c0.4,0,1-0.1,1.3-0.2l-1.5,9.3
			c-0.1,0.4-0.1,0.9-0.1,1.2c0,0.7,0.3,1,0.8,1c0.5,0,0.9-0.2,1.3-0.4l0.3,0.7c-0.5,0.6-1.7,1.3-3.1,1.3c-1.3,0-1.7-0.7-1.7-1.8
			c0-0.2,0.1-0.5,0.1-0.8h-0.1c-0.8,1.4-2.3,2.7-4.2,2.7C219.9-7.2,218.7-8.9,218.7-11.3z M226.1-11.2l1.2-7.6
			c-0.3-0.2-0.7-0.3-1.2-0.3c-2.5,0-4.7,3.5-4.7,7.6c0,1.3,0.6,2.3,1.6,2.3C224.3-9.1,225.4-10.1,226.1-11.2z"></path>
		<path style="fill:#383E42;" d="M240.2-9.3c0-0.4,0.1-1,0.2-1.5l0.9-4.9c0.1-0.7,0.2-1.2,0.2-1.4c0-0.9-0.3-1.5-1.3-1.5
			c-1.2,0-2.4,1-3.2,1.8l-1.4,9.2h-2.5l1.4-9c0-0.3,0.1-0.9,0.1-1.1c0-0.7-0.3-0.9-1.5-1.1l0.1-0.8c1.5-0.3,3-0.6,4.4-1.1l-0.4,2.5
			h0.1c0.8-1,2.4-2.4,4-2.4c2.1,0,2.9,1.2,2.9,3.1c0,0.3-0.1,0.8-0.2,1.7l-0.9,4.7c-0.1,0.4-0.1,0.8-0.1,1.2c0,0.6,0.3,0.9,0.9,0.9
			c0.5,0,0.9-0.2,1.4-0.4l0.3,0.7c-0.7,0.6-1.8,1.4-3.2,1.4C240.7-7.4,240.2-8.1,240.2-9.3z"></path>
		<path style="fill:#383E42;" d="M76,16.1c0-5.7,4.1-10.2,9.7-10.2c1.7,0,3.4,0.4,4.6,0.8C90.1,8,90,8.8,89.9,10.1h-1.1
			c0-1.8-1.1-2.9-3.4-2.9c-3.9,0-6.4,3.8-6.4,8.8c0,3.1,1.6,5.5,4.4,5.5c2.5,0,3.7-1,4.2-2.9h1.1c-0.3,1.4-0.5,2.6-0.7,3.6
			c-1.2,0.3-2.9,0.6-5.1,0.6C78.4,22.8,76,19.9,76,16.1z"></path>
		<path style="fill:#383E42;" d="M91,17.9c0-4.6,2.8-8.5,6.8-8.5c2.6,0,4.3,1.9,4.3,4.9c0,4.6-2.8,8.5-6.8,8.5
			C92.7,22.8,91,20.9,91,17.9z M99.4,14.6c0-2.6-0.7-3.8-2.1-3.8c-2.3,0-3.6,3.5-3.6,6.9c0,2.5,0.7,3.8,2.1,3.8
			C98.1,21.5,99.4,18,99.4,14.6z"></path>
		<path style="fill:#383E42;" d="M118.1,20.7c0-0.4,0.1-1,0.2-1.5l0.9-4.9c0.1-0.7,0.2-1.2,0.2-1.4c0-0.9-0.3-1.5-1.3-1.5
			c-1.1,0-2.2,1.1-3,1.8c0,0.3-0.1,0.6-0.1,0.8l-1.3,8.4h-2.5l1.3-8.2c0.1-0.5,0.1-1,0.1-1.4c0-0.9-0.4-1.5-1.4-1.5
			c-1,0-2.1,1-2.9,1.8l-1.4,9.3h-2.5l1.4-9c0-0.3,0.1-0.9,0.1-1.1c0-0.7-0.3-0.9-1.5-1.1l0.1-0.8c1.5-0.3,3-0.6,4.4-1.1l-0.4,2.5
			h0.1c0.8-1.1,2-2.4,3.7-2.4c1.8,0,2.7,1.1,2.8,2.6c0.9-1.1,2.2-2.6,4-2.6c2.1,0,2.9,1.2,2.9,3.1c0,0.3-0.1,0.8-0.2,1.7l-0.9,4.7
			c-0.1,0.4-0.1,0.8-0.1,1.2c0,0.6,0.3,0.9,0.9,0.9c0.5,0,0.9-0.2,1.4-0.4l0.3,0.7c-0.7,0.6-1.8,1.4-3.2,1.4
			C118.7,22.6,118.1,21.9,118.1,20.7z"></path>
		<path style="fill:#383E42;" d="M138.9,20.7c0-0.4,0.1-1,0.2-1.5l0.9-4.9c0.1-0.7,0.2-1.2,0.2-1.4c0-0.9-0.3-1.5-1.3-1.5
			c-1.1,0-2.2,1.1-3,1.8c0,0.3-0.1,0.6-0.1,0.8l-1.3,8.4H132l1.3-8.2c0.1-0.5,0.1-1,0.1-1.4c0-0.9-0.4-1.5-1.4-1.5
			c-1,0-2.1,1-2.9,1.8l-1.4,9.3h-2.5l1.4-9c0-0.3,0.1-0.9,0.1-1.1c0-0.7-0.3-0.9-1.5-1.1l0.1-0.8c1.5-0.3,3-0.6,4.4-1.1l-0.4,2.5
			h0.1c0.8-1.1,2-2.4,3.7-2.4c1.8,0,2.7,1.1,2.8,2.6c0.9-1.1,2.2-2.6,4-2.6c2.1,0,2.9,1.2,2.9,3.1c0,0.3-0.1,0.8-0.2,1.7l-0.9,4.7
			c-0.1,0.4-0.1,0.8-0.1,1.2c0,0.6,0.3,0.9,0.9,0.9c0.5,0,0.9-0.2,1.4-0.4l0.3,0.7c-0.7,0.6-1.8,1.4-3.2,1.4
			C139.4,22.6,138.9,21.9,138.9,20.7z"></path>
		<path style="fill:#383E42;" d="M146.2,20.7c0-0.4,0.1-1,0.2-1.5l0.9-5.8c0.1-0.3,0.1-0.8,0.1-1.1c0-0.6-0.3-0.9-1.5-1.1l0.1-0.8
			c1.5-0.3,3-0.6,4.4-1.1l-1.5,9.7c-0.1,0.4-0.1,0.9-0.1,1.2c0,0.6,0.3,0.9,0.9,0.9c0.5,0,0.9-0.2,1.4-0.4l0.3,0.7
			c-0.7,0.6-1.8,1.4-3.2,1.4C146.8,22.6,146.2,21.9,146.2,20.7z M148.1,5.5c0-0.9,0.7-1.6,1.6-1.6c0.9,0,1.6,0.7,1.6,1.6
			c0,0.9-0.7,1.6-1.6,1.6C148.8,7.1,148.1,6.3,148.1,5.5z"></path>
		<path style="fill:#383E42;" d="M152.1,21.9l1-1.8c1.1,0.8,2.3,1.1,3.4,1.1c1.3,0,2.1-0.7,2.1-1.6c0-1.1-1.2-1.9-2.5-2.6
			s-2.7-1.7-2.7-3.5c0-2.2,2.4-4,4.9-4c1.1,0,2.2,0.4,3.1,0.8l-1,1.8c-0.8-0.5-1.7-1.1-3.1-1.1c-1,0-1.7,0.5-1.7,1.4
			c0,0.9,0.6,1.5,1.6,2.2c1.6,1.1,3.4,1.9,3.4,4.2c0,2.5-2.9,4-5.1,4C154.4,22.8,153.2,22.4,152.1,21.9z"></path>
		<path style="fill:#383E42;" d="M162.1,21.9l1-1.8c1.1,0.8,2.3,1.1,3.4,1.1c1.3,0,2.1-0.7,2.1-1.6c0-1.1-1.2-1.9-2.5-2.6
			s-2.7-1.7-2.7-3.5c0-2.2,2.4-4,4.9-4c1.1,0,2.2,0.4,3.1,0.8l-1,1.8c-0.8-0.5-1.7-1.1-3.1-1.1c-1,0-1.7,0.5-1.7,1.4
			c0,0.9,0.6,1.5,1.6,2.2c1.6,1.1,3.4,1.9,3.4,4.2c0,2.5-2.9,4-5.1,4C164.4,22.8,163.2,22.4,162.1,21.9z"></path>
		<path style="fill:#383E42;" d="M173.8,20.7c0-0.4,0.1-1,0.2-1.5l0.9-5.8c0.1-0.3,0.1-0.8,0.1-1.1c0-0.6-0.3-0.9-1.5-1.1l0.1-0.8
			c1.5-0.3,3-0.6,4.4-1.1l-1.5,9.7c-0.1,0.4-0.1,0.9-0.1,1.2c0,0.6,0.3,0.9,0.9,0.9c0.5,0,0.9-0.2,1.4-0.4l0.3,0.7
			c-0.7,0.6-1.8,1.4-3.2,1.4C174.4,22.6,173.8,21.9,173.8,20.7z M175.6,5.5c0-0.9,0.7-1.6,1.6-1.6c0.9,0,1.6,0.7,1.6,1.6
			c0,0.9-0.7,1.6-1.6,1.6C176.3,7.1,175.6,6.3,175.6,5.5z"></path>
		<path style="fill:#383E42;" d="M180.3,17.9c0-4.6,2.8-8.5,6.8-8.5c2.6,0,4.3,1.9,4.3,4.9c0,4.6-2.8,8.5-6.8,8.5
			C182.1,22.8,180.3,20.9,180.3,17.9z M188.7,14.6c0-2.6-0.7-3.8-2.1-3.8c-2.3,0-3.6,3.5-3.6,6.9c0,2.5,0.7,3.8,2.1,3.8
			C187.4,21.5,188.7,18,188.7,14.6z"></path>
		<path style="fill:#383E42;" d="M201,20.7c0-0.4,0.1-1,0.2-1.5l0.9-4.9c0.1-0.7,0.2-1.2,0.2-1.4c0-0.9-0.3-1.5-1.3-1.5
			c-1.2,0-2.4,1-3.2,1.8l-1.4,9.2h-2.5l1.4-9c0-0.3,0.1-0.9,0.1-1.1c0-0.7-0.3-0.9-1.5-1.1l0.1-0.8c1.5-0.3,3-0.6,4.4-1.1l-0.4,2.5
			h0.1c0.8-1,2.4-2.4,4-2.4c2.1,0,2.9,1.2,2.9,3.1c0,0.3-0.1,0.8-0.2,1.7l-0.9,4.7c-0.1,0.4-0.1,0.8-0.1,1.2c0,0.6,0.3,0.9,0.9,0.9
			c0.5,0,0.9-0.2,1.4-0.4l0.3,0.7c-0.7,0.6-1.8,1.4-3.2,1.4C201.5,22.6,201,21.9,201,20.7z"></path>
		<path style="fill:#383E42;" d="M207.8,21c0-1,0.8-1.7,1.7-1.7c0.9,0,1.7,0.8,1.7,1.7c0,0.9-0.8,1.7-1.7,1.7
			C208.5,22.7,207.8,21.9,207.8,21z"></path>
	</g>
	<g>
		<g>
			<path style="opacity:0.7;fill:#FFFFFF;" d="M75.3,151l2.2-11.3h2.8c2.1,4.4,2.5,5.1,2.9,6.2c0.2-1.2,0.5-3.1,1.2-6.2h2.9
				L85.1,151h-2.6c-2.2-4.9-2.6-5.8-3-6.8c-0.1,0.8-0.3,1.5-1.3,6.8H75.3z"></path>
			<path style="opacity:0.7;fill:#FFFFFF;" d="M94,150c-0.8,0.8-1.9,1.2-3.2,1.2c-2.3,0-3.5-1.3-3.5-3.4c0-1.3,0.5-2.9,1.6-3.9
				c0.8-0.8,2-1.2,3.2-1.2c2.2,0,3.4,1.2,3.4,3.3C95.5,147.4,95.1,149,94,150z M91.8,145c-0.4,0-0.8,0.2-1.1,0.5
				c-0.4,0.5-0.6,1.5-0.6,2c0,0.9,0.4,1.3,1.1,1.3c0.4,0,0.8-0.1,1-0.5c0.4-0.5,0.6-1.5,0.6-2.1C92.7,145.4,92.4,145,91.8,145z"></path>
			<path style="opacity:0.7;fill:#FFFFFF;" d="M99,151.2c-1.3,0-2.3-0.6-2.3-2.1c0-0.5,0.1-1.2,0.3-2l0.4-2.1h-0.9l0.4-2.2h1
				l0.5-2.4h2.8l-0.4,2.4h2l-0.4,2.2h-2l-0.4,2.2c0,0.3-0.1,0.6-0.1,0.8c0,0.5,0.2,0.8,0.8,0.8c0.4,0,0.8-0.1,1.3-0.3l-0.4,2.2
				C100.6,151.1,99.9,151.2,99,151.2z"></path>
			<path style="opacity:0.7;fill:#FFFFFF;" d="M109.6,154.8l0.8-4.3c-0.6,0.5-1.2,0.7-2,0.7c-1.7,0-2.6-1-2.6-2.7
				c0-3.3,2.1-5.8,5.4-5.8c1.5,0,2.6,0.3,3.4,0.5l-2.2,11.6H109.6z M111.5,145c-0.2,0-0.4-0.1-0.7-0.1c-1.3,0-2.1,1.6-2.1,3
				c0,0.7,0.4,1,0.9,1c0.4,0,0.8-0.2,1.2-0.5L111.5,145z"></path>
			<path style="opacity:0.7;fill:#FFFFFF;" d="M119.9,151l0.1-0.8c-0.7,0.7-1.6,1-2.5,1c-1.4,0-2.1-0.7-2.1-1.9
				c0-0.5,0.1-1.3,0.2-2.1l0.8-4.3h2.8l-0.8,4.2c-0.1,0.4-0.1,0.8-0.1,1c0,0.5,0.2,0.7,0.7,0.7c0.4,0,1-0.3,1.3-0.8l1-5.2h2.8
				l-1.6,8.1H119.9z"></path>
			<path style="opacity:0.7;fill:#FFFFFF;" d="M124.4,151l1.6-8.1h2.8l-1.6,8.1H124.4z M127.7,141.8c-0.8,0-1.2-0.4-1.2-1.2
				c0-0.9,0.6-1.7,1.6-1.7c0.8,0,1.2,0.4,1.2,1.1C129.3,141,128.8,141.8,127.7,141.8z"></path>
			<path style="opacity:0.7;fill:#FFFFFF;" d="M132,151.2c-1.3,0-2.3-0.6-2.3-2.1c0-0.5,0.1-1.2,0.3-2l0.4-2.1h-0.9l0.4-2.2h1
				l0.5-2.4h2.8l-0.4,2.4h2l-0.4,2.2h-2l-0.4,2.2c0,0.3-0.1,0.6-0.1,0.8c0,0.5,0.2,0.8,0.8,0.8c0.4,0,0.8-0.1,1.3-0.3l-0.4,2.2
				C133.5,151.1,132.8,151.2,132,151.2z"></path>
			<path style="opacity:0.7;fill:#FFFFFF;" d="M139.4,151.2c-2.4,0-3.7-1.5-3.7-3.5c0-2.8,1.7-5,4.6-5c2.1,0,3.2,1.1,3.2,2.9
				c0,0.4-0.1,1.3-0.2,1.9h-4.8c0,0.1,0,0.3,0,0.4c0.2,0.7,0.8,1,1.7,1c1,0,1.9-0.2,2.8-0.8l-0.4,2.3
				C141.7,151,140.8,151.2,139.4,151.2z M141,146.1c0-0.1,0-0.3,0-0.4c0-0.6-0.3-0.9-0.9-0.9c-0.6,0-1.2,0.4-1.4,1.4H141z"></path>
		</g>
	</g>
	<g>
		<g>
			<path style="fill:#FFFFFF;" d="M75.7,167.5v-1.4h12.5v1.4H75.7z"></path>
			<path style="fill:#FFFFFF;" d="M78.6,191v-9.4h-3.2v-1.9H84v1.9h-3.3v9.4H78.6z"></path>
			<path style="fill:#FFFFFF;" d="M85.4,191v-12h1.9v4.8c0.5-0.6,1.4-1.1,2.4-1.1c1.1,0,1.9,0.4,2.3,1.3c0.3,0.7,0.4,1.4,0.4,2.5
				v4.4h-1.9v-4.3c0-0.7,0-1.2-0.1-1.6c-0.2-0.5-0.6-0.7-1.2-0.7c-0.7,0-1.3,0.4-1.8,1v5.6H85.4z"></path>
			<path style="fill:#FFFFFF;" d="M98.2,191.1c-2.6,0-4.2-1.6-4.2-4.2c0-2.6,1.6-4.2,3.9-4.2c2.4,0,3.4,1.6,3.4,4v0.7h-5.3
				c0.1,1.5,1.1,2.1,2.6,2.1c0.8,0,1.9-0.3,2.6-0.9v1.8C100.3,190.9,99.4,191.1,98.2,191.1z M99.4,186.1c0-1-0.3-1.9-1.6-1.9
				c-1.1,0-1.8,0.8-1.9,1.9H99.4z"></path>
			<path style="fill:#FFFFFF;" d="M111.4,191.1c-3.2,0-5.6-2.2-5.6-5.8c0-3.6,2.4-5.9,5.7-5.9c1.6,0,2.7,0.3,3.5,0.9v2.1
				c-0.9-0.8-2-1.1-3.1-1.1c-2.3,0-3.9,1.5-3.9,4c0,2.7,1.8,4,3.9,4c1.2,0,2.2-0.4,3.1-1v1.9C114.1,190.8,112.9,191.1,111.4,191.1z"></path>
			<path style="fill:#FFFFFF;" d="M119.6,191.1c-2.4,0-3.9-1.7-3.9-4.2c0-2.5,1.6-4.3,4-4.3c2.4,0,3.9,1.7,3.9,4.2
				C123.6,189.5,122,191.1,119.6,191.1z M119.7,184.3c-1.2,0-2,0.9-2,2.6c0,1.6,0.8,2.5,2,2.5c1.3,0,2-0.8,2-2.6
				C121.7,185.2,120.9,184.3,119.7,184.3z"></path>
			<path style="fill:#FFFFFF;" d="M125.3,191v-8.1h1.9v0.9c0.5-0.6,1.4-1.1,2.4-1.1c1,0,1.8,0.4,2.2,1.3c0.6-0.8,1.5-1.3,2.7-1.3
				c1,0,1.9,0.4,2.2,1.3c0.2,0.6,0.3,1.3,0.3,2.5v4.4h-1.9v-4.3c0-0.6,0-1.1-0.1-1.4c-0.2-0.6-0.6-0.8-1.2-0.8c-0.7,0-1.3,0.4-1.7,1
				c0,0.4,0,0.8,0,1.2v4.4h-1.9v-4.3c0-0.6,0-1.2-0.2-1.5c-0.2-0.5-0.6-0.8-1.2-0.8c-0.7,0-1.3,0.4-1.7,1v5.6H125.3z"></path>
			<path style="fill:#FFFFFF;" d="M139.2,191v-8.1h1.9v0.9c0.5-0.6,1.4-1.1,2.4-1.1c1,0,1.8,0.4,2.2,1.3c0.6-0.8,1.5-1.3,2.7-1.3
				c1,0,1.9,0.4,2.2,1.3c0.2,0.6,0.3,1.3,0.3,2.5v4.4H149v-4.3c0-0.6,0-1.1-0.1-1.4c-0.2-0.6-0.6-0.8-1.2-0.8c-0.7,0-1.3,0.4-1.7,1
				c0,0.4,0,0.8,0,1.2v4.4h-1.9v-4.3c0-0.6,0-1.2-0.2-1.5c-0.2-0.5-0.6-0.8-1.2-0.8c-0.7,0-1.3,0.4-1.7,1v5.6H139.2z"></path>
			<path style="fill:#FFFFFF;" d="M154,181.5c-0.6,0-1-0.5-1-1.1c0-0.6,0.5-1.1,1.1-1.1c0.6,0,1.1,0.4,1.1,1.1
				C155.1,181,154.6,181.5,154,181.5z M153.1,191v-8.1h1.9v8.1H153.1z"></path>
			<path style="fill:#FFFFFF;" d="M156.7,188.5c0.8,0.7,2,1.1,2.9,1.1s1.2-0.2,1.2-0.7c0-0.3-0.1-0.5-1.2-1l-0.9-0.4
				c-1.2-0.5-1.9-1.2-1.9-2.4c0-1.4,1.1-2.3,2.9-2.3c0.8,0,1.8,0.2,2.6,0.7v1.8c-0.8-0.6-1.8-0.9-2.6-0.9c-0.8,0-1,0.4-1,0.7
				c0,0.3,0.1,0.6,1.1,1l0.9,0.4c1.3,0.5,2,1.2,2,2.4c0,1.5-1.2,2.4-3,2.4c-1.2,0-2.1-0.3-2.9-0.8V188.5z"></path>
			<path style="fill:#FFFFFF;" d="M163.7,188.5c0.8,0.7,2,1.1,2.9,1.1s1.2-0.2,1.2-0.7c0-0.3-0.1-0.5-1.2-1l-0.9-0.4
				c-1.2-0.5-1.9-1.2-1.9-2.4c0-1.4,1.1-2.3,2.9-2.3c0.8,0,1.8,0.2,2.6,0.7v1.8c-0.8-0.6-1.8-0.9-2.6-0.9c-0.8,0-1,0.4-1,0.7
				c0,0.3,0.1,0.6,1.1,1l0.9,0.4c1.3,0.5,2,1.2,2,2.4c0,1.5-1.2,2.4-3,2.4c-1.2,0-2.1-0.3-2.9-0.8V188.5z"></path>
			<path style="fill:#FFFFFF;" d="M172.1,181.5c-0.6,0-1-0.5-1-1.1c0-0.6,0.5-1.1,1.1-1.1c0.6,0,1.1,0.4,1.1,1.1
				C173.2,181,172.7,181.5,172.1,181.5z M171.1,191v-8.1h1.9v8.1H171.1z"></path>
			<path style="fill:#FFFFFF;" d="M178.7,191.1c-2.4,0-3.9-1.7-3.9-4.2c0-2.5,1.6-4.3,4-4.3c2.4,0,3.9,1.7,3.9,4.2
				C182.6,189.5,181.1,191.1,178.7,191.1z M178.7,184.3c-1.2,0-2,0.9-2,2.6c0,1.6,0.8,2.5,2,2.5c1.3,0,2-0.8,2-2.6
				C180.7,185.2,180,184.3,178.7,184.3z"></path>
			<path style="fill:#FFFFFF;" d="M184.3,191v-8.1h1.9v0.9c0.5-0.6,1.5-1.1,2.5-1.1c1.3,0,2.1,0.5,2.4,1.7c0.1,0.6,0.2,1.2,0.2,2.1
				v4.4h-1.9v-4.3c0-0.7,0-1.2-0.1-1.6c-0.2-0.5-0.6-0.7-1.2-0.7c-0.7,0-1.5,0.4-1.8,1v5.6H184.3z"></path>
			<path style="fill:#FFFFFF;" d="M196.8,191v-12h1.9v4.8c0.5-0.6,1.4-1.1,2.4-1.1c1.1,0,1.9,0.4,2.3,1.3c0.3,0.7,0.4,1.4,0.4,2.5
				v4.4h-1.9v-4.3c0-0.7,0-1.2-0.1-1.6c-0.2-0.5-0.6-0.7-1.2-0.7c-0.7,0-1.3,0.4-1.8,1v5.6H196.8z"></path>
			<path style="fill:#FFFFFF;" d="M210.2,191v-0.8c-0.6,0.6-1.2,1-2.2,1c-1.5,0-2.5-1.1-2.5-2.4c0-0.8,0.4-1.5,1-1.9
				c0.9-0.5,2-0.7,3.7-0.8v-0.3c0-0.4,0-0.7-0.2-1c-0.2-0.3-0.7-0.5-1.2-0.5c-1,0-2,0.3-2.8,1v-1.6c0.8-0.7,2-1,3-1
				c1.2,0,2.2,0.3,2.8,1.4c0.2,0.5,0.3,1.2,0.3,2.2v4.7H210.2z M210.2,187.3c-1.2,0.1-1.9,0.2-2.4,0.5c-0.3,0.2-0.5,0.5-0.5,0.8
				c0,0.5,0.3,1,1.2,1c0.7,0,1.2-0.2,1.6-0.6V187.3z"></path>
			<path style="fill:#FFFFFF;" d="M213.7,188.5c0.8,0.7,2,1.1,2.9,1.1c0.9,0,1.2-0.2,1.2-0.7c0-0.3-0.1-0.5-1.2-1l-0.9-0.4
				c-1.2-0.5-1.9-1.2-1.9-2.4c0-1.4,1.1-2.3,2.9-2.3c0.8,0,1.8,0.2,2.6,0.7v1.8c-0.8-0.6-1.8-0.9-2.6-0.9c-0.8,0-1,0.4-1,0.7
				c0,0.3,0.1,0.6,1.1,1l0.9,0.4c1.3,0.5,2,1.2,2,2.4c0,1.5-1.2,2.4-3,2.4c-1.2,0-2.1-0.3-2.9-0.8V188.5z"></path>
			<path style="fill:#FFFFFF;" d="M227.1,191.1c-1,0-1.9-0.4-2.2-1.4c-0.2-0.5-0.2-1.2-0.2-2v-3.3h-1v-1.6h1v-2.3h1.9v2.3h2.1v1.6
				h-2.1v3.3c0,0.6,0,0.9,0.1,1.1c0.1,0.4,0.5,0.6,1,0.6c0.5,0,0.9-0.1,1.3-0.4v1.6C228.6,191,227.9,191.1,227.1,191.1z"></path>
			<path style="fill:#FFFFFF;" d="M230.5,191v-12h1.9v4.8c0.5-0.6,1.4-1.1,2.4-1.1c1.1,0,1.9,0.4,2.3,1.3c0.3,0.7,0.4,1.4,0.4,2.5
				v4.4h-1.9v-4.3c0-0.7,0-1.2-0.1-1.6c-0.2-0.5-0.6-0.7-1.2-0.7c-0.7,0-1.3,0.4-1.8,1v5.6H230.5z"></path>
			<path style="fill:#FFFFFF;" d="M243.3,191.1c-2.6,0-4.2-1.6-4.2-4.2c0-2.6,1.6-4.2,3.9-4.2c2.4,0,3.4,1.6,3.4,4v0.7h-5.3
				c0.1,1.5,1.1,2.1,2.6,2.1c0.8,0,1.9-0.3,2.6-0.9v1.8C245.4,190.9,244.5,191.1,243.3,191.1z M244.5,186.1c0-1-0.3-1.9-1.6-1.9
				c-1.1,0-1.8,0.8-1.9,1.9H244.5z"></path>
			<path style="fill:#FFFFFF;" d="M251.4,191v-8.1h1.9v1.1c0.4-0.9,1.1-1.3,2.1-1.3c0.3,0,0.7,0,1,0.2v1.7c-0.4-0.2-0.8-0.3-1.2-0.3
				c-0.8,0-1.5,0.4-1.9,1.3v5.4H251.4z"></path>
			<path style="fill:#FFFFFF;" d="M258.6,181.5c-0.6,0-1-0.5-1-1.1c0-0.6,0.5-1.1,1.1-1.1c0.6,0,1.1,0.4,1.1,1.1
				C259.7,181,259.2,181.5,258.6,181.5z M257.7,191v-8.1h1.9v8.1H257.7z"></path>
			<path style="fill:#FFFFFF;" d="M261.3,185.7c0-1.8,1.3-3,3.4-3c0.6,0,1,0,1.4,0.2h2.7v1.6h-1.2c0.2,0.3,0.4,0.7,0.4,1.2
				c0,1-0.4,1.8-1.3,2.2c-0.6,0.3-1.2,0.5-1.9,0.6c-0.5,0.1-0.9,0.4-0.9,0.7c0,0.2,0.1,0.3,0.4,0.4c0.6,0.1,1.6,0.1,2.5,0.3
				c1.5,0.2,1.9,1.1,1.9,2.1c0,1.7-1.7,2.9-4.2,2.9c-2.1,0-3.5-0.8-3.5-2.2c0-1,0.7-1.5,2-1.9c-0.7-0.2-0.9-0.6-0.9-1.1
				c0-0.6,0.4-1.1,1.2-1.4C261.9,187.8,261.3,186.9,261.3,185.7z M266.1,191.5c-0.3-0.1-1-0.2-1.6-0.2c-1,0-1.7,0.4-1.7,1.1
				c0,0.6,0.7,1,1.8,1c1.3,0,2.2-0.4,2.2-1.2C266.8,191.9,266.6,191.7,266.1,191.5z M264.6,184.2c-0.8,0-1.5,0.6-1.5,1.5
				c0,0.9,0.6,1.4,1.5,1.4c0.9,0,1.5-0.5,1.5-1.4C266.2,184.7,265.6,184.2,264.6,184.2z"></path>
			<path style="fill:#FFFFFF;" d="M270.1,191v-12h1.9v4.8c0.5-0.6,1.4-1.1,2.4-1.1c1.1,0,1.9,0.4,2.3,1.3c0.3,0.7,0.4,1.4,0.4,2.5
				v4.4h-1.9v-4.3c0-0.7,0-1.2-0.1-1.6c-0.2-0.5-0.6-0.7-1.2-0.7c-0.7,0-1.3,0.4-1.8,1v5.6H270.1z"></path>
			<path style="fill:#FFFFFF;" d="M281.9,191.1c-1,0-1.9-0.4-2.2-1.4c-0.2-0.5-0.2-1.2-0.2-2v-3.3h-1v-1.6h1v-2.3h1.9v2.3h2.1v1.6
				h-2.1v3.3c0,0.6,0,0.9,0.1,1.1c0.1,0.4,0.5,0.6,1,0.6c0.5,0,0.9-0.1,1.3-0.4v1.6C283.3,191,282.7,191.1,281.9,191.1z"></path>
			<path style="fill:#FFFFFF;" d="M78.8,211.1c-1,0-1.9-0.4-2.2-1.4c-0.2-0.5-0.2-1.2-0.2-2v-3.3h-1v-1.6h1v-2.3h1.9v2.3h2.1v1.6
				h-2.1v3.3c0,0.6,0,0.9,0.1,1.1c0.1,0.4,0.5,0.6,1,0.6c0.5,0,0.9-0.1,1.3-0.4v1.6C80.2,211,79.5,211.1,78.8,211.1z"></path>
			<path style="fill:#FFFFFF;" d="M85.5,211.1c-2.4,0-3.9-1.7-3.9-4.2c0-2.5,1.6-4.3,4-4.3c2.4,0,3.9,1.7,3.9,4.2
				C89.4,209.5,87.9,211.1,85.5,211.1z M85.5,204.3c-1.2,0-2,0.9-2,2.6c0,1.6,0.8,2.5,2,2.5c1.3,0,2-0.8,2-2.6
				C87.5,205.2,86.8,204.3,85.5,204.3z"></path>
			<path style="fill:#FFFFFF;" d="M94.5,214.7v-11.8h1.8v0.8c0.5-0.6,1.4-1,2.3-1c2.2,0,3.4,1.6,3.4,4c0,2.6-1.4,4.4-3.8,4.4
				c-0.7,0-1.3-0.1-1.8-0.4v4.1H94.5z M97.9,209.6c1.4,0,2.1-1.2,2.1-2.8c0-1.6-0.7-2.6-2-2.6c-0.7,0-1.4,0.4-1.6,0.9v3.9
				C96.7,209.4,97.4,209.6,97.9,209.6z"></path>
			<path style="fill:#FFFFFF;" d="M103.7,211v-8.1h1.9v1.1c0.4-0.9,1.1-1.3,2.1-1.3c0.3,0,0.7,0,1,0.2v1.7c-0.4-0.2-0.8-0.3-1.2-0.3
				c-0.8,0-1.5,0.4-1.9,1.3v5.4H103.7z"></path>
			<path style="fill:#FFFFFF;" d="M113,211.1c-2.4,0-3.9-1.7-3.9-4.2c0-2.5,1.6-4.3,4-4.3c2.4,0,3.9,1.7,3.9,4.2
				C116.9,209.5,115.4,211.1,113,211.1z M113,204.3c-1.2,0-2,0.9-2,2.6c0,1.6,0.8,2.5,2,2.5c1.3,0,2-0.8,2-2.6
				C115.1,205.2,114.3,204.3,113,204.3z"></path>
			<path style="fill:#FFFFFF;" d="M118.7,214.7v-11.8h1.8v0.8c0.5-0.6,1.4-1,2.3-1c2.2,0,3.4,1.6,3.4,4c0,2.6-1.4,4.4-3.8,4.4
				c-0.7,0-1.3-0.1-1.8-0.4v4.1H118.7z M122.1,209.6c1.4,0,2.1-1.2,2.1-2.8c0-1.6-0.7-2.6-2-2.6c-0.7,0-1.4,0.4-1.6,0.9v3.9
				C120.9,209.4,121.6,209.6,122.1,209.6z"></path>
			<path style="fill:#FFFFFF;" d="M131.3,211.1c-2.4,0-3.9-1.7-3.9-4.2c0-2.5,1.6-4.3,4-4.3c2.4,0,3.9,1.7,3.9,4.2
				C135.2,209.5,133.7,211.1,131.3,211.1z M131.3,204.3c-1.2,0-2,0.9-2,2.6c0,1.6,0.8,2.5,2,2.5c1.3,0,2-0.8,2-2.6
				C133.3,205.2,132.6,204.3,131.3,204.3z"></path>
			<path style="fill:#FFFFFF;" d="M136.4,208.5c0.8,0.7,2,1.1,2.9,1.1s1.2-0.2,1.2-0.7c0-0.3-0.1-0.5-1.2-1l-0.9-0.4
				c-1.2-0.5-1.9-1.2-1.9-2.4c0-1.4,1.1-2.3,2.9-2.3c0.8,0,1.8,0.2,2.6,0.7v1.8c-0.8-0.6-1.8-0.9-2.6-0.9c-0.8,0-1,0.4-1,0.7
				c0,0.3,0.1,0.6,1.1,1l0.9,0.4c1.3,0.5,2,1.2,2,2.4c0,1.5-1.2,2.4-3,2.4c-1.2,0-2.1-0.3-2.9-0.8V208.5z"></path>
			<path style="fill:#FFFFFF;" d="M147.5,211.1c-2.6,0-4.2-1.6-4.2-4.2c0-2.6,1.6-4.2,3.9-4.2c2.4,0,3.4,1.6,3.4,4v0.7h-5.3
				c0.1,1.5,1.1,2.1,2.6,2.1c0.8,0,1.9-0.3,2.6-0.9v1.8C149.7,210.9,148.7,211.1,147.5,211.1z M148.8,206.1c0-1-0.3-1.9-1.6-1.9
				c-1.1,0-1.8,0.8-1.9,1.9H148.8z"></path>
			<path style="fill:#FFFFFF;" d="M160.8,211v-0.8c-0.5,0.6-1.4,1-2.4,1c-2,0-3.3-1.6-3.3-4c0-2.6,1.4-4.4,3.8-4.4
				c0.8,0,1.5,0.2,1.9,0.6V199h1.9v12H160.8z M160.8,204.9c-0.3-0.4-0.8-0.7-1.6-0.7c-1.2,0-2.2,0.9-2.2,2.8c0,1.9,1,2.6,1.9,2.6
				c0.7,0,1.5-0.4,1.8-0.8V204.9z"></path>
			<path style="fill:#FFFFFF;" d="M164.9,211v-8.1h1.9v1.1c0.4-0.9,1.1-1.3,2.1-1.3c0.3,0,0.7,0,1,0.2v1.7c-0.4-0.2-0.8-0.3-1.2-0.3
				c-0.8,0-1.5,0.4-1.9,1.3v5.4H164.9z"></path>
			<path style="fill:#FFFFFF;" d="M174.9,211v-0.8c-0.6,0.6-1.2,1-2.2,1c-1.5,0-2.5-1.1-2.5-2.4c0-0.8,0.4-1.5,1-1.9
				c0.9-0.5,2-0.7,3.7-0.8v-0.3c0-0.4,0-0.7-0.2-1c-0.2-0.3-0.7-0.5-1.2-0.5c-1,0-2,0.3-2.8,1v-1.6c0.8-0.7,2-1,3-1
				c1.2,0,2.2,0.3,2.8,1.4c0.2,0.5,0.3,1.2,0.3,2.2v4.7H174.9z M174.9,207.3c-1.2,0.1-1.9,0.2-2.4,0.5c-0.3,0.2-0.5,0.5-0.5,0.8
				c0,0.5,0.3,1,1.2,1c0.7,0,1.2-0.2,1.6-0.6V207.3z"></path>
			<path style="fill:#FFFFFF;" d="M179.2,211v-6.5h-1.1v-1.6h1.1v-0.8c0-0.9,0.1-1.5,0.3-2c0.4-0.9,1.3-1.3,2.5-1.3
				c0.6,0,1.1,0.1,1.5,0.3v1.6c-0.4-0.2-0.8-0.3-1.2-0.3c-0.5,0-0.9,0.2-1,0.5c-0.1,0.3-0.2,0.6-0.2,1.2v0.8h1.8v1.6h-1.8v6.5H179.2
				z"></path>
			<path style="fill:#FFFFFF;" d="M186.9,211.1c-1,0-1.9-0.4-2.2-1.4c-0.2-0.5-0.2-1.2-0.2-2v-3.3h-1v-1.6h1v-2.3h1.9v2.3h2.1v1.6
				h-2.1v3.3c0,0.6,0,0.9,0.1,1.1c0.1,0.4,0.5,0.6,1,0.6c0.5,0,0.9-0.1,1.3-0.4v1.6C188.4,211,187.7,211.1,186.9,211.1z"></path>
			<path style="fill:#FFFFFF;" d="M193.6,211v-12h1.9v12H193.6z"></path>
			<path style="fill:#FFFFFF;" d="M201.4,211.1c-2.6,0-4.2-1.6-4.2-4.2c0-2.6,1.6-4.2,3.9-4.2c2.4,0,3.4,1.6,3.4,4v0.7h-5.3
				c0.1,1.5,1.1,2.1,2.6,2.1c0.8,0,1.9-0.3,2.6-0.9v1.8C203.6,210.9,202.7,211.1,201.4,211.1z M202.7,206.1c0-1-0.3-1.9-1.6-1.9
				c-1.1,0-1.8,0.8-1.9,1.9H202.7z"></path>
			<path style="fill:#FFFFFF;" d="M205.7,205.7c0-1.8,1.3-3,3.4-3c0.6,0,1,0,1.4,0.2h2.7v1.6H212c0.2,0.3,0.4,0.7,0.4,1.2
				c0,1-0.4,1.8-1.3,2.2c-0.6,0.3-1.2,0.5-1.9,0.6c-0.5,0.1-0.9,0.4-0.9,0.7c0,0.2,0.1,0.3,0.4,0.4c0.6,0.1,1.6,0.1,2.5,0.3
				c1.5,0.2,1.9,1.1,1.9,2.1c0,1.7-1.7,2.9-4.2,2.9c-2.1,0-3.5-0.8-3.5-2.2c0-1,0.7-1.5,2-1.9c-0.7-0.2-0.9-0.6-0.9-1.1
				c0-0.6,0.4-1.1,1.2-1.4C206.3,207.8,205.7,206.9,205.7,205.7z M210.5,211.5c-0.3-0.1-1-0.2-1.6-0.2c-1,0-1.7,0.4-1.7,1.1
				c0,0.6,0.7,1,1.8,1c1.3,0,2.2-0.4,2.2-1.2C211.2,211.9,211,211.7,210.5,211.5z M209,204.2c-0.8,0-1.5,0.6-1.5,1.5
				c0,0.9,0.6,1.4,1.5,1.4c0.9,0,1.5-0.5,1.5-1.4C210.5,204.7,210,204.2,209,204.2z"></path>
			<path style="fill:#FFFFFF;" d="M215.6,201.5c-0.6,0-1-0.5-1-1.1c0-0.6,0.5-1.1,1.1-1.1c0.6,0,1.1,0.4,1.1,1.1
				C216.7,201,216.2,201.5,215.6,201.5z M214.7,211v-8.1h1.9v8.1H214.7z"></path>
			<path style="fill:#FFFFFF;" d="M218.3,208.5c0.8,0.7,2,1.1,2.9,1.1c0.9,0,1.2-0.2,1.2-0.7c0-0.3-0.1-0.5-1.2-1l-0.9-0.4
				c-1.2-0.5-1.9-1.2-1.9-2.4c0-1.4,1.1-2.3,2.9-2.3c0.8,0,1.8,0.2,2.6,0.7v1.8c-0.8-0.6-1.8-0.9-2.6-0.9c-0.8,0-1,0.4-1,0.7
				c0,0.3,0.1,0.6,1.1,1l0.9,0.4c1.3,0.5,2,1.2,2,2.4c0,1.5-1.2,2.4-3,2.4c-1.2,0-2.1-0.3-2.9-0.8V208.5z"></path>
			<path style="fill:#FFFFFF;" d="M225.7,211v-12h1.9v12H225.7z"></path>
			<path style="fill:#FFFFFF;" d="M234,211v-0.8c-0.6,0.6-1.2,1-2.2,1c-1.5,0-2.5-1.1-2.5-2.4c0-0.8,0.4-1.5,1-1.9
				c0.9-0.5,2-0.7,3.7-0.8v-0.3c0-0.4,0-0.7-0.2-1c-0.2-0.3-0.7-0.5-1.2-0.5c-1,0-2,0.3-2.8,1v-1.6c0.8-0.7,2-1,3-1
				c1.2,0,2.2,0.3,2.8,1.4c0.2,0.5,0.3,1.2,0.3,2.2v4.7H234z M234,207.3c-1.2,0.1-1.9,0.2-2.4,0.5c-0.3,0.2-0.5,0.5-0.5,0.8
				c0,0.5,0.3,1,1.2,1c0.7,0,1.2-0.2,1.6-0.6V207.3z"></path>
			<path style="fill:#FFFFFF;" d="M240.6,211.1c-1,0-1.9-0.4-2.2-1.4c-0.2-0.5-0.2-1.2-0.2-2v-3.3h-1v-1.6h1v-2.3h1.9v2.3h2.1v1.6
				h-2.1v3.3c0,0.6,0,0.9,0.1,1.1c0.1,0.4,0.5,0.6,1,0.6c0.5,0,0.9-0.1,1.3-0.4v1.6C242.1,211,241.4,211.1,240.6,211.1z"></path>
			<path style="fill:#FFFFFF;" d="M244.9,201.5c-0.6,0-1-0.5-1-1.1c0-0.6,0.5-1.1,1.1-1.1c0.6,0,1.1,0.4,1.1,1.1
				C246,201,245.5,201.5,244.9,201.5z M244,211v-8.1h1.9v8.1H244z"></path>
			<path style="fill:#FFFFFF;" d="M251.5,211.1c-2.4,0-3.9-1.7-3.9-4.2c0-2.5,1.6-4.3,4-4.3s3.9,1.7,3.9,4.2
				C255.5,209.5,253.9,211.1,251.5,211.1z M251.6,204.3c-1.2,0-2,0.9-2,2.6c0,1.6,0.8,2.5,2,2.5c1.3,0,2-0.8,2-2.6
				C253.6,205.2,252.8,204.3,251.6,204.3z"></path>
			<path style="fill:#FFFFFF;" d="M257.2,211v-8.1h1.9v0.9c0.5-0.6,1.5-1.1,2.5-1.1c1.3,0,2.1,0.5,2.4,1.7c0.1,0.6,0.2,1.2,0.2,2.1
				v4.4h-1.9v-4.3c0-0.7,0-1.2-0.1-1.6c-0.2-0.5-0.6-0.7-1.2-0.7c-0.7,0-1.5,0.4-1.8,1v5.6H257.2z"></path>
			<path style="fill:#FFFFFF;" d="M267.3,211.1c-0.7,0-1.2-0.5-1.2-1.2c0-0.7,0.5-1.3,1.2-1.3c0.7,0,1.2,0.5,1.2,1.2
				C268.5,210.5,268,211.1,267.3,211.1z"></path>
			<path style="fill:#FFFFFF;" d="M76.3,219.7h3.5c0.7,0,1.6,0.1,2.1,0.2c1.3,0.3,2.1,1.2,2.1,2.6c0,1.2-0.5,2-1.6,2.6
				c1.7,0.3,2.4,1.2,2.4,2.7c0,1.2-0.6,2.3-1.8,2.8c-0.6,0.3-1.7,0.4-2.8,0.4h-3.9V219.7z M79.8,224.3c0.6,0,1.1,0,1.4-0.2
				c0.5-0.3,0.7-0.8,0.7-1.3c0-0.5-0.2-1-0.7-1.2c-0.3-0.1-0.8-0.2-1.4-0.2h-1.4v2.9H79.8z M80,229.1c0.7,0,1.3,0,1.7-0.2
				c0.6-0.3,0.9-0.7,0.9-1.5c0-0.7-0.4-1.2-1.2-1.4c-0.4-0.1-0.9-0.1-1.5-0.1h-1.6v3.1H80z"></path>
			<path style="fill:#FFFFFF;" d="M91.6,231V230c-0.5,0.7-1.3,1.1-2.4,1.1s-1.9-0.4-2.3-1.3c-0.3-0.7-0.3-1.4-0.3-2.5v-4.4h1.9v4.3
				c0,0.6,0,1.1,0.1,1.4c0.2,0.6,0.5,0.8,1.3,0.8c0.7,0,1.3-0.4,1.7-0.9v-5.7h1.9v8.1H91.6z"></path>
			<path style="fill:#FFFFFF;" d="M98.4,231.1c-1,0-1.9-0.4-2.2-1.4c-0.2-0.5-0.2-1.2-0.2-2v-3.3h-1v-1.6h1v-2.3h1.9v2.3h2.1v1.6
				h-2.1v3.3c0,0.6,0,0.9,0.1,1.1c0.1,0.4,0.5,0.6,1,0.6c0.5,0,0.9-0.1,1.3-0.4v1.6C99.8,231,99.1,231.1,98.4,231.1z"></path>
			<path style="fill:#FFFFFF;" d="M105.2,231v-11.3h6.8v1.9h-4.7v2.6h4.3v1.9h-4.3v3h5v1.9H105.2z"></path>
			<path style="fill:#FFFFFF;" d="M116.1,219.7v6.5c0,0.8,0,1.3,0.2,1.8c0.3,0.9,1.2,1.3,2.4,1.3c1.3,0,2.1-0.5,2.4-1.5
				c0.1-0.5,0.2-1.1,0.2-1.7v-6.4h2.1v6.5c0,1.1-0.2,2-0.4,2.7c-0.6,1.5-2.1,2.3-4.3,2.3c-2,0-3.5-0.7-4.2-2.2
				c-0.3-0.7-0.4-1.6-0.4-2.7v-6.6H116.1z"></path>
			<path style="fill:#FFFFFF;" d="M129,231v-12h1.9v12H129z"></path>
			<path style="fill:#FFFFFF;" d="M137.3,231v-0.8c-0.6,0.6-1.2,1-2.2,1c-1.5,0-2.5-1.1-2.5-2.4c0-0.8,0.4-1.5,1-1.9
				c0.9-0.5,2-0.7,3.7-0.8v-0.3c0-0.4,0-0.7-0.2-1c-0.2-0.3-0.7-0.5-1.2-0.5c-1,0-2,0.3-2.8,1v-1.6c0.8-0.7,2-1,3-1
				c1.2,0,2.2,0.3,2.8,1.4c0.2,0.5,0.3,1.2,0.3,2.2v4.7H137.3z M137.2,227.3c-1.2,0.1-1.9,0.2-2.4,0.5c-0.3,0.2-0.5,0.5-0.5,0.8
				c0,0.5,0.3,1,1.2,1c0.7,0,1.2-0.2,1.6-0.6V227.3z"></path>
			<path style="fill:#FFFFFF;" d="M142.6,231l-2.6-8.1h2.1c1.1,4.1,1.2,4.6,1.4,5.4c0.3-0.8,0.4-1.4,1.8-5.4h1.5
				c1.4,4,1.6,4.6,1.9,5.4c0.2-0.9,0.3-1.4,1.4-5.4h2.1l-2.6,8.1h-1.6c-1.5-4.1-1.7-4.8-2-5.6c-0.2,0.8-0.5,1.5-1.9,5.6H142.6z"></path>
			<path style="fill:#FFFFFF;" d="M153.1,228.5c0.8,0.7,2,1.1,2.9,1.1s1.2-0.2,1.2-0.7c0-0.3-0.1-0.5-1.2-1l-0.9-0.4
				c-1.2-0.5-1.9-1.2-1.9-2.4c0-1.4,1.1-2.3,2.9-2.3c0.8,0,1.8,0.2,2.6,0.7v1.8c-0.8-0.6-1.8-0.9-2.6-0.9c-0.8,0-1,0.4-1,0.7
				c0,0.3,0.1,0.6,1.1,1l0.9,0.4c1.3,0.5,2,1.2,2,2.4c0,1.5-1.2,2.4-3,2.4c-1.2,0-2.1-0.3-2.9-0.8V228.5z"></path>
			<path style="fill:#FFFFFF;" d="M163.9,231v-8.1h1.9v0.9c0.5-0.6,1.4-1.1,2.4-1.1c1,0,1.8,0.4,2.2,1.3c0.6-0.8,1.5-1.3,2.7-1.3
				c1,0,1.9,0.4,2.2,1.3c0.2,0.6,0.3,1.3,0.3,2.5v4.4h-1.9v-4.3c0-0.6,0-1.1-0.1-1.4c-0.2-0.6-0.6-0.8-1.2-0.8c-0.7,0-1.3,0.4-1.7,1
				c0,0.4,0,0.8,0,1.2v4.4h-1.9v-4.3c0-0.6,0-1.2-0.2-1.5c-0.2-0.5-0.6-0.8-1.2-0.8c-0.7,0-1.3,0.4-1.7,1v5.6H163.9z"></path>
			<path style="fill:#FFFFFF;" d="M182.8,231V230c-0.5,0.7-1.3,1.1-2.4,1.1s-1.9-0.4-2.3-1.3c-0.3-0.7-0.3-1.4-0.3-2.5v-4.4h1.9v4.3
				c0,0.6,0,1.1,0.1,1.4c0.2,0.6,0.5,0.8,1.3,0.8c0.7,0,1.3-0.4,1.7-0.9v-5.7h1.9v8.1H182.8z"></path>
			<path style="fill:#FFFFFF;" d="M186.4,228.5c0.8,0.7,2,1.1,2.9,1.1s1.2-0.2,1.2-0.7c0-0.3-0.1-0.5-1.2-1l-0.9-0.4
				c-1.2-0.5-1.9-1.2-1.9-2.4c0-1.4,1.1-2.3,2.9-2.3c0.8,0,1.8,0.2,2.6,0.7v1.8c-0.8-0.6-1.8-0.9-2.6-0.9c-0.8,0-1,0.4-1,0.7
				c0,0.3,0.1,0.6,1.1,1l0.9,0.4c1.3,0.5,2,1.2,2,2.4c0,1.5-1.2,2.4-3,2.4c-1.2,0-2.1-0.3-2.9-0.8V228.5z"></path>
			<path style="fill:#FFFFFF;" d="M196.5,231.1c-1,0-1.9-0.4-2.2-1.4c-0.2-0.5-0.2-1.2-0.2-2v-3.3h-1v-1.6h1v-2.3h1.9v2.3h2.1v1.6
				h-2.1v3.3c0,0.6,0,0.9,0.1,1.1c0.1,0.4,0.5,0.6,1,0.6c0.5,0,0.9-0.1,1.3-0.4v1.6C197.9,231,197.3,231.1,196.5,231.1z"></path>
			<path style="fill:#FFFFFF;" d="M203.2,219h1.9v4.6c0.6-0.6,1.4-0.9,2.3-0.9c2.2,0,3.3,1.6,3.3,4c0,3.2-2,4.4-4.3,4.4
				c-1,0-2.1-0.2-3.3-0.6V219z M206.7,229.7c1.1,0,2.1-0.8,2.1-2.8c0-1.9-0.9-2.6-1.9-2.6c-0.7,0-1.4,0.4-1.7,0.8v4.2
				C205.5,229.5,206,229.7,206.7,229.7z"></path>
			<path style="fill:#FFFFFF;" d="M216.1,231.1c-2.6,0-4.2-1.6-4.2-4.2c0-2.6,1.6-4.2,3.9-4.2c2.4,0,3.4,1.6,3.4,4v0.7h-5.3
				c0.1,1.5,1.1,2.1,2.6,2.1c0.8,0,1.9-0.3,2.6-0.9v1.8C218.3,230.9,217.3,231.1,216.1,231.1z M217.4,226.1c0-1-0.3-1.9-1.6-1.9
				c-1.1,0-1.8,0.8-1.9,1.9H217.4z"></path>
			<path style="fill:#FFFFFF;" d="M224.2,234.7v-11.8h1.8v0.8c0.5-0.6,1.4-1,2.3-1c2.2,0,3.4,1.6,3.4,4c0,2.6-1.4,4.4-3.8,4.4
				c-0.7,0-1.3-0.1-1.8-0.4v4.1H224.2z M227.6,229.6c1.4,0,2.1-1.2,2.1-2.8c0-1.6-0.7-2.6-2-2.6c-0.7,0-1.4,0.4-1.6,0.9v3.9
				C226.4,229.4,227.1,229.6,227.6,229.6z"></path>
			<path style="fill:#FFFFFF;" d="M237.7,231v-0.8c-0.6,0.6-1.2,1-2.2,1c-1.5,0-2.5-1.1-2.5-2.4c0-0.8,0.4-1.5,1-1.9
				c0.9-0.5,2-0.7,3.7-0.8v-0.3c0-0.4,0-0.7-0.2-1c-0.2-0.3-0.7-0.5-1.2-0.5c-1,0-2,0.3-2.8,1v-1.6c0.8-0.7,2-1,3-1
				c1.2,0,2.2,0.3,2.8,1.4c0.2,0.5,0.3,1.2,0.3,2.2v4.7H237.7z M237.6,227.3c-1.2,0.1-1.9,0.2-2.4,0.5c-0.3,0.2-0.5,0.5-0.5,0.8
				c0,0.5,0.3,1,1.2,1c0.7,0,1.2-0.2,1.6-0.6V227.3z"></path>
			<path style="fill:#FFFFFF;" d="M241.2,228.5c0.8,0.7,2,1.1,2.9,1.1c0.9,0,1.2-0.2,1.2-0.7c0-0.3-0.1-0.5-1.2-1l-0.9-0.4
				c-1.2-0.5-1.9-1.2-1.9-2.4c0-1.4,1.1-2.3,2.9-2.3c0.8,0,1.8,0.2,2.6,0.7v1.8c-0.8-0.6-1.8-0.9-2.6-0.9c-0.8,0-1,0.4-1,0.7
				c0,0.3,0.1,0.6,1.1,1l0.9,0.4c1.3,0.5,2,1.2,2,2.4c0,1.5-1.2,2.4-3,2.4c-1.2,0-2.1-0.3-2.9-0.8V228.5z"></path>
			<path style="fill:#FFFFFF;" d="M248.1,228.5c0.8,0.7,2,1.1,2.9,1.1c0.9,0,1.2-0.2,1.2-0.7c0-0.3-0.1-0.5-1.2-1l-0.9-0.4
				c-1.2-0.5-1.9-1.2-1.9-2.4c0-1.4,1.1-2.3,2.9-2.3c0.8,0,1.8,0.2,2.6,0.7v1.8c-0.8-0.6-1.8-0.9-2.6-0.9c-0.8,0-1,0.4-1,0.7
				c0,0.3,0.1,0.6,1.1,1l0.9,0.4c1.3,0.5,2,1.2,2,2.4c0,1.5-1.2,2.4-3,2.4c-1.2,0-2.1-0.3-2.9-0.8V228.5z"></path>
			<path style="fill:#FFFFFF;" d="M259.2,231.1c-2.6,0-4.2-1.6-4.2-4.2c0-2.6,1.6-4.2,3.9-4.2c2.4,0,3.4,1.6,3.4,4v0.7H257
				c0.1,1.5,1.1,2.1,2.6,2.1c0.8,0,1.9-0.3,2.6-0.9v1.8C261.4,230.9,260.4,231.1,259.2,231.1z M260.5,226.1c0-1-0.3-1.9-1.6-1.9
				c-1.1,0-1.8,0.8-1.9,1.9H260.5z"></path>
			<path style="fill:#FFFFFF;" d="M269.2,231v-0.8c-0.5,0.6-1.4,1-2.4,1c-2,0-3.3-1.6-3.3-4c0-2.6,1.4-4.4,3.8-4.4
				c0.8,0,1.5,0.2,1.9,0.6V219h1.9v12H269.2z M269.1,224.9c-0.3-0.4-0.8-0.7-1.6-0.7c-1.2,0-2.2,0.9-2.2,2.8c0,1.9,1,2.6,1.9,2.6
				c0.7,0,1.5-0.4,1.8-0.8V224.9z"></path>
			<path style="fill:#FFFFFF;" d="M276.6,219h1.9v4.6c0.6-0.6,1.4-0.9,2.3-0.9c2.2,0,3.3,1.6,3.3,4c0,3.2-2,4.4-4.3,4.4
				c-1,0-2.1-0.2-3.3-0.6V219z M280.1,229.7c1.1,0,2.1-0.8,2.1-2.8c0-1.9-0.9-2.6-1.9-2.6c-0.7,0-1.4,0.4-1.7,0.8v4.2
				C278.9,229.5,279.4,229.7,280.1,229.7z"></path>
			<path style="fill:#FFFFFF;" d="M286.4,234.7l1.6-4l-3.3-7.8h2.1c1.7,4,2,4.9,2.2,5.5c0.3-0.8,0.5-1.6,2-5.5h2l-4.5,11.8H286.4z"></path>
			<path style="fill:#FFFFFF;" d="M78.8,251.1c-1,0-1.9-0.4-2.2-1.4c-0.2-0.5-0.2-1.2-0.2-2v-3.3h-1v-1.6h1v-2.3h1.9v2.3h2.1v1.6
				h-2.1v3.3c0,0.6,0,0.9,0.1,1.1c0.1,0.4,0.5,0.6,1,0.6c0.5,0,0.9-0.1,1.3-0.4v1.6C80.2,251,79.5,251.1,78.8,251.1z"></path>
			<path style="fill:#FFFFFF;" d="M82.1,251v-12H84v4.8c0.5-0.6,1.4-1.1,2.4-1.1c1.1,0,1.9,0.4,2.3,1.3c0.3,0.7,0.4,1.4,0.4,2.5v4.4
				h-1.9v-4.3c0-0.7,0-1.2-0.1-1.6c-0.2-0.5-0.6-0.7-1.2-0.7c-0.7,0-1.3,0.4-1.8,1v5.6H82.1z"></path>
			<path style="fill:#FFFFFF;" d="M94.9,251.1c-2.6,0-4.2-1.6-4.2-4.2c0-2.6,1.6-4.2,3.9-4.2c2.4,0,3.4,1.6,3.4,4v0.7h-5.3
				c0.1,1.5,1.1,2.1,2.6,2.1c0.8,0,1.9-0.3,2.6-0.9v1.8C97.1,250.9,96.1,251.1,94.9,251.1z M96.2,246.1c0-1-0.3-1.9-1.6-1.9
				c-1.1,0-1.8,0.8-1.9,1.9H96.2z"></path>
			<path style="fill:#FFFFFF;" d="M108.1,251.1c-3.2,0-5.6-2.2-5.6-5.8c0-3.6,2.4-5.9,5.7-5.9c1.6,0,2.7,0.3,3.5,0.9v2.1
				c-0.9-0.8-2-1.1-3.1-1.1c-2.3,0-3.9,1.5-3.9,4c0,2.7,1.8,4,3.9,4c1.2,0,2.2-0.4,3.1-1v1.9C110.8,250.8,109.6,251.1,108.1,251.1z"></path>
			<path style="fill:#FFFFFF;" d="M116.4,251.1c-2.4,0-3.9-1.7-3.9-4.2c0-2.5,1.6-4.3,4-4.3c2.4,0,3.9,1.7,3.9,4.2
				C120.3,249.5,118.8,251.1,116.4,251.1z M116.4,244.3c-1.2,0-2,0.9-2,2.6c0,1.6,0.8,2.5,2,2.5c1.3,0,2-0.8,2-2.6
				C118.4,245.2,117.7,244.3,116.4,244.3z"></path>
			<path style="fill:#FFFFFF;" d="M127,251V250c-0.5,0.7-1.3,1.1-2.4,1.1s-1.9-0.4-2.3-1.3c-0.3-0.7-0.3-1.4-0.3-2.5v-4.4h1.9v4.3
				c0,0.6,0,1.1,0.1,1.4c0.2,0.6,0.5,0.8,1.3,0.8c0.7,0,1.3-0.4,1.7-0.9v-5.7h1.9v8.1H127z"></path>
			<path style="fill:#FFFFFF;" d="M131.2,251v-8.1h1.9v0.9c0.5-0.6,1.5-1.1,2.5-1.1c1.3,0,2.1,0.5,2.4,1.7c0.1,0.6,0.2,1.2,0.2,2.1
				v4.4h-1.9v-4.3c0-0.7,0-1.2-0.1-1.6c-0.2-0.5-0.6-0.7-1.2-0.7c-0.7,0-1.5,0.4-1.8,1v5.6H131.2z"></path>
			<path style="fill:#FFFFFF;" d="M143.8,251.1c-2.4,0-4-1.6-4-4.2c0-2.5,1.7-4.2,4.1-4.2c0.9,0,1.7,0.2,2.3,0.6v1.9
				c-0.6-0.5-1.2-0.8-2-0.8c-1.6,0-2.4,1.1-2.4,2.5c0,1.7,1.1,2.5,2.4,2.5c0.7,0,1.4-0.3,2-0.7v1.8
				C145.5,251,144.7,251.1,143.8,251.1z"></path>
			<path style="fill:#FFFFFF;" d="M148.8,241.5c-0.6,0-1-0.5-1-1.1c0-0.6,0.5-1.1,1.1-1.1c0.6,0,1.1,0.4,1.1,1.1
				C149.9,241,149.4,241.5,148.8,241.5z M147.8,251v-8.1h1.9v8.1H147.8z"></path>
			<path style="fill:#FFFFFF;" d="M152,251v-12h1.9v12H152z"></path>
			<path style="fill:#FFFFFF;" d="M162.9,251.1c-2.4,0-3.9-1.7-3.9-4.2c0-2.5,1.6-4.3,4-4.3c2.4,0,3.9,1.7,3.9,4.2
				C166.8,249.5,165.3,251.1,162.9,251.1z M162.9,244.3c-1.2,0-2,0.9-2,2.6c0,1.6,0.8,2.5,2,2.5c1.3,0,2-0.8,2-2.6
				C164.9,245.2,164.2,244.3,162.9,244.3z"></path>
			<path style="fill:#FFFFFF;" d="M168.9,251v-6.5h-1.1v-1.6h1.1v-0.8c0-0.9,0.1-1.5,0.3-2c0.4-0.9,1.3-1.3,2.5-1.3
				c0.6,0,1.1,0.1,1.5,0.3v1.6c-0.4-0.2-0.8-0.3-1.2-0.3c-0.5,0-0.9,0.2-1,0.5c-0.1,0.3-0.2,0.6-0.2,1.2v0.8h1.8v1.6h-1.8v6.5H168.9
				z"></path>
			<path style="fill:#FFFFFF;" d="M177.4,251v-11.3h2.3c2.2,3.6,2.6,4.2,3.1,4.9c0.5-0.8,0.8-1.4,3.1-4.9h2.2V251H186
				c0-5.8,0-7,0-8.3c-0.5,0.8-0.9,1.4-3.3,5.1c-2.4-3.7-2.8-4.4-3.3-5.1c0,1.3,0,2.5,0,8.3H177.4z"></path>
			<path style="fill:#FFFFFF;" d="M191.4,241.5c-0.6,0-1-0.5-1-1.1c0-0.6,0.5-1.1,1.1-1.1c0.6,0,1.1,0.4,1.1,1.1
				C192.5,241,192,241.5,191.4,241.5z M190.5,251v-8.1h1.9v8.1H190.5z"></path>
			<path style="fill:#FFFFFF;" d="M194.6,251v-8.1h1.9v0.9c0.5-0.6,1.5-1.1,2.5-1.1c1.3,0,2.1,0.5,2.4,1.7c0.1,0.6,0.2,1.2,0.2,2.1
				v4.4h-1.9v-4.3c0-0.7,0-1.2-0.1-1.6c-0.2-0.5-0.6-0.7-1.2-0.7c-0.7,0-1.5,0.4-1.8,1v5.6H194.6z"></path>
			<path style="fill:#FFFFFF;" d="M204.7,241.5c-0.6,0-1-0.5-1-1.1c0-0.6,0.5-1.1,1.1-1.1c0.6,0,1.1,0.4,1.1,1.1
				C205.8,241,205.3,241.5,204.7,241.5z M203.7,251v-8.1h1.9v8.1H203.7z"></path>
			<path style="fill:#FFFFFF;" d="M207.4,248.5c0.8,0.7,2,1.1,2.9,1.1c0.9,0,1.2-0.2,1.2-0.7c0-0.3-0.1-0.5-1.2-1l-0.9-0.4
				c-1.2-0.5-1.9-1.2-1.9-2.4c0-1.4,1.1-2.3,2.9-2.3c0.8,0,1.8,0.2,2.6,0.7v1.8c-0.8-0.6-1.8-0.9-2.6-0.9c-0.8,0-1,0.4-1,0.7
				c0,0.3,0.1,0.6,1.1,1l0.9,0.4c1.3,0.5,2,1.2,2,2.4c0,1.5-1.2,2.4-3,2.4c-1.2,0-2.1-0.3-2.9-0.8V248.5z"></path>
			<path style="fill:#FFFFFF;" d="M217.5,251.1c-1,0-1.9-0.4-2.2-1.4c-0.2-0.5-0.2-1.2-0.2-2v-3.3h-1v-1.6h1v-2.3h1.9v2.3h2.1v1.6
				H217v3.3c0,0.6,0,0.9,0.1,1.1c0.1,0.4,0.5,0.6,1,0.6c0.5,0,0.9-0.1,1.3-0.4v1.6C218.9,251,218.2,251.1,217.5,251.1z"></path>
			<path style="fill:#FFFFFF;" d="M224.5,251.1c-2.6,0-4.2-1.6-4.2-4.2c0-2.6,1.6-4.2,3.9-4.2c2.4,0,3.4,1.6,3.4,4v0.7h-5.3
				c0.1,1.5,1.1,2.1,2.6,2.1c0.8,0,1.9-0.3,2.6-0.9v1.8C226.6,250.9,225.7,251.1,224.5,251.1z M225.7,246.1c0-1-0.3-1.9-1.6-1.9
				c-1.1,0-1.8,0.8-1.9,1.9H225.7z"></path>
			<path style="fill:#FFFFFF;" d="M229.2,251v-8.1h1.9v1.1c0.4-0.9,1.1-1.3,2.1-1.3c0.3,0,0.7,0,1,0.2v1.7c-0.4-0.2-0.8-0.3-1.2-0.3
				c-0.8,0-1.5,0.4-1.9,1.3v5.4H229.2z"></path>
			<path style="fill:#FFFFFF;" d="M234.6,248.5c0.8,0.7,2,1.1,2.9,1.1c0.9,0,1.2-0.2,1.2-0.7c0-0.3-0.1-0.5-1.2-1l-0.9-0.4
				c-1.2-0.5-1.9-1.2-1.9-2.4c0-1.4,1.1-2.3,2.9-2.3c0.8,0,1.8,0.2,2.6,0.7v1.8c-0.8-0.6-1.8-0.9-2.6-0.9c-0.8,0-1,0.4-1,0.7
				c0,0.3,0.1,0.6,1.1,1l0.9,0.4c1.3,0.5,2,1.2,2,2.4c0,1.5-1.2,2.4-3,2.4c-1.2,0-2.1-0.3-2.9-0.8V248.5z"></path>
			<path style="fill:#FFFFFF;" d="M240.9,253.5c0.8-1.3,1.3-2.9,1.3-5h1.8c0,2.1-0.7,3.9-1.7,5H240.9z"></path>
			<path style="fill:#FFFFFF;" d="M252.9,251.1c-2.4,0-4-1.6-4-4.2c0-2.5,1.7-4.2,4.1-4.2c0.9,0,1.7,0.2,2.3,0.6v1.9
				c-0.6-0.5-1.2-0.8-2-0.8c-1.6,0-2.4,1.1-2.4,2.5c0,1.7,1.1,2.5,2.4,2.5c0.7,0,1.4-0.3,2-0.7v1.8
				C254.6,251,253.8,251.1,252.9,251.1z"></path>
			<path style="fill:#FFFFFF;" d="M260,251.1c-2.4,0-3.9-1.7-3.9-4.2c0-2.5,1.6-4.3,4-4.3s3.9,1.7,3.9,4.2
				C263.9,249.5,262.4,251.1,260,251.1z M260.1,244.3c-1.2,0-2,0.9-2,2.6c0,1.6,0.8,2.5,2,2.5c1.3,0,2-0.8,2-2.6
				C262.1,245.2,261.3,244.3,260.1,244.3z"></path>
			<path style="fill:#FFFFFF;" d="M265.7,251v-8.1h1.9v0.9c0.5-0.6,1.5-1.1,2.5-1.1c1.3,0,2.1,0.5,2.4,1.7c0.1,0.6,0.2,1.2,0.2,2.1
				v4.4h-1.9v-4.3c0-0.7,0-1.2-0.1-1.6c-0.2-0.5-0.6-0.7-1.2-0.7c-0.7,0-1.5,0.4-1.8,1v5.6H265.7z"></path>
			<path style="fill:#FFFFFF;" d="M274.3,248.5c0.8,0.7,2,1.1,2.9,1.1c0.9,0,1.2-0.2,1.2-0.7c0-0.3-0.1-0.5-1.2-1l-0.9-0.4
				c-1.2-0.5-1.9-1.2-1.9-2.4c0-1.4,1.1-2.3,2.9-2.3c0.8,0,1.8,0.2,2.6,0.7v1.8c-0.8-0.6-1.8-0.9-2.6-0.9c-0.8,0-1,0.4-1,0.7
				c0,0.3,0.1,0.6,1.1,1l0.9,0.4c1.3,0.5,2,1.2,2,2.4c0,1.5-1.2,2.4-3,2.4c-1.2,0-2.1-0.3-2.9-0.8V248.5z"></path>
			<path style="fill:#FFFFFF;" d="M282.7,241.5c-0.6,0-1-0.5-1-1.1c0-0.6,0.5-1.1,1.1-1.1c0.6,0,1.1,0.4,1.1,1.1
				C283.8,241,283.3,241.5,282.7,241.5z M281.8,251v-8.1h1.9v8.1H281.8z"></path>
			<path style="fill:#FFFFFF;" d="M285.4,248.5c0.8,0.7,2,1.1,2.9,1.1c0.9,0,1.2-0.2,1.2-0.7c0-0.3-0.1-0.5-1.2-1l-0.9-0.4
				c-1.2-0.5-1.9-1.2-1.9-2.4c0-1.4,1.1-2.3,2.9-2.3c0.8,0,1.8,0.2,2.6,0.7v1.8c-0.8-0.6-1.8-0.9-2.6-0.9c-0.8,0-1,0.4-1,0.7
				c0,0.3,0.1,0.6,1.1,1l0.9,0.4c1.3,0.5,2,1.2,2,2.4c0,1.5-1.2,2.4-3,2.4c-1.2,0-2.1-0.3-2.9-0.8V248.5z"></path>
			<path style="fill:#FFFFFF;" d="M295.5,251.1c-1,0-1.9-0.4-2.2-1.4c-0.2-0.5-0.2-1.2-0.2-2v-3.3h-1v-1.6h1v-2.3h1.9v2.3h2.1v1.6
				H295v3.3c0,0.6,0,0.9,0.1,1.1c0.1,0.4,0.5,0.6,1,0.6c0.5,0,0.9-0.1,1.3-0.4v1.6C296.9,251,296.2,251.1,295.5,251.1z"></path>
			<path style="fill:#FFFFFF;" d="M299.7,241.5c-0.6,0-1-0.5-1-1.1c0-0.6,0.5-1.1,1.1-1.1c0.6,0,1.1,0.4,1.1,1.1
				C300.9,241,300.4,241.5,299.7,241.5z M298.8,251v-8.1h1.9v8.1H298.8z"></path>
			<path style="fill:#FFFFFF;" d="M303,251v-8.1h1.9v0.9c0.5-0.6,1.5-1.1,2.5-1.1c1.3,0,2.1,0.5,2.4,1.7c0.1,0.6,0.2,1.2,0.2,2.1
				v4.4H308v-4.3c0-0.7,0-1.2-0.1-1.6c-0.2-0.5-0.6-0.7-1.2-0.7c-0.7,0-1.5,0.4-1.8,1v5.6H303z"></path>
			<path style="fill:#FFFFFF;" d="M311.6,245.7c0-1.8,1.3-3,3.4-3c0.6,0,1,0,1.4,0.2h2.7v1.6h-1.2c0.2,0.3,0.4,0.7,0.4,1.2
				c0,1-0.4,1.8-1.3,2.2c-0.6,0.3-1.2,0.5-1.9,0.6c-0.5,0.1-0.9,0.4-0.9,0.7c0,0.2,0.1,0.3,0.4,0.4c0.6,0.1,1.6,0.1,2.5,0.3
				c1.5,0.2,1.9,1.1,1.9,2.1c0,1.7-1.7,2.9-4.2,2.9c-2.1,0-3.5-0.8-3.5-2.2c0-1,0.7-1.5,2-1.9c-0.7-0.2-0.9-0.6-0.9-1.1
				c0-0.6,0.4-1.1,1.2-1.4C312.2,247.8,311.6,246.9,311.6,245.7z M316.4,251.5c-0.3-0.1-1-0.2-1.6-0.2c-1,0-1.7,0.4-1.7,1.1
				c0,0.6,0.7,1,1.8,1c1.3,0,2.2-0.4,2.2-1.2C317.1,251.9,316.9,251.7,316.4,251.5z M314.9,244.2c-0.8,0-1.5,0.6-1.5,1.5
				c0,0.9,0.6,1.4,1.5,1.4c0.9,0,1.5-0.5,1.5-1.4C316.4,244.7,315.9,244.2,314.9,244.2z"></path>
			<path style="fill:#FFFFFF;" d="M79.5,271.1c-2.4,0-3.9-1.7-3.9-4.2c0-2.5,1.6-4.3,4-4.3c2.4,0,3.9,1.7,3.9,4.2
				C83.5,269.5,81.9,271.1,79.5,271.1z M79.6,264.3c-1.2,0-2,0.9-2,2.6c0,1.6,0.8,2.5,2,2.5c1.3,0,2-0.8,2-2.6
				C81.6,265.2,80.8,264.3,79.6,264.3z"></path>
			<path style="fill:#FFFFFF;" d="M85.5,271v-6.5h-1.1v-1.6h1.1v-0.8c0-0.9,0.1-1.5,0.3-2c0.4-0.9,1.3-1.3,2.5-1.3
				c0.6,0,1.1,0.1,1.5,0.3v1.6c-0.4-0.2-0.8-0.3-1.2-0.3c-0.5,0-0.9,0.2-1,0.5c-0.1,0.3-0.2,0.6-0.2,1.2v0.8h1.8v1.6h-1.8v6.5H85.5z
				"></path>
			<path style="fill:#FFFFFF;" d="M93.9,271v-8.1h1.9v0.9c0.5-0.6,1.4-1.1,2.4-1.1c1,0,1.8,0.4,2.2,1.3c0.6-0.8,1.5-1.3,2.7-1.3
				c1,0,1.9,0.4,2.2,1.3c0.2,0.6,0.3,1.3,0.3,2.5v4.4h-1.9v-4.3c0-0.6,0-1.1-0.1-1.4c-0.2-0.6-0.6-0.8-1.2-0.8c-0.7,0-1.3,0.4-1.7,1
				c0,0.4,0,0.8,0,1.2v4.4h-1.9v-4.3c0-0.6,0-1.2-0.2-1.5c-0.2-0.5-0.6-0.8-1.2-0.8c-0.7,0-1.3,0.4-1.7,1v5.6H93.9z"></path>
			<path style="fill:#FFFFFF;" d="M111.4,271.1c-2.6,0-4.2-1.6-4.2-4.2c0-2.6,1.6-4.2,3.9-4.2c2.4,0,3.4,1.6,3.4,4v0.7h-5.3
				c0.1,1.5,1.1,2.1,2.6,2.1c0.8,0,1.9-0.3,2.6-0.9v1.8C113.6,270.9,112.6,271.1,111.4,271.1z M112.7,266.1c0-1-0.3-1.9-1.6-1.9
				c-1.1,0-1.8,0.8-1.9,1.9H112.7z"></path>
			<path style="fill:#FFFFFF;" d="M116.2,271v-8.1h1.9v0.9c0.5-0.6,1.4-1.1,2.4-1.1c1,0,1.8,0.4,2.2,1.3c0.6-0.8,1.5-1.3,2.7-1.3
				c1,0,1.9,0.4,2.2,1.3c0.2,0.6,0.3,1.3,0.3,2.5v4.4H126v-4.3c0-0.6,0-1.1-0.1-1.4c-0.2-0.6-0.6-0.8-1.2-0.8c-0.7,0-1.3,0.4-1.7,1
				c0,0.4,0,0.8,0,1.2v4.4h-1.9v-4.3c0-0.6,0-1.2-0.2-1.5c-0.2-0.5-0.6-0.8-1.2-0.8c-0.7,0-1.3,0.4-1.7,1v5.6H116.2z"></path>
			<path style="fill:#FFFFFF;" d="M130.1,259h1.9v4.6c0.6-0.6,1.4-0.9,2.3-0.9c2.2,0,3.3,1.6,3.3,4c0,3.2-2,4.4-4.3,4.4
				c-1,0-2.1-0.2-3.3-0.6V259z M133.6,269.7c1.1,0,2.1-0.8,2.1-2.8c0-1.9-0.9-2.6-1.9-2.6c-0.7,0-1.4,0.4-1.7,0.8v4.2
				C132.3,269.5,132.9,269.7,133.6,269.7z"></path>
			<path style="fill:#FFFFFF;" d="M143,271.1c-2.6,0-4.2-1.6-4.2-4.2c0-2.6,1.6-4.2,3.9-4.2c2.4,0,3.4,1.6,3.4,4v0.7h-5.3
				c0.1,1.5,1.1,2.1,2.6,2.1c0.8,0,1.9-0.3,2.6-0.9v1.8C145.1,270.9,144.2,271.1,143,271.1z M144.2,266.1c0-1-0.3-1.9-1.6-1.9
				c-1.1,0-1.8,0.8-1.9,1.9H144.2z"></path>
			<path style="fill:#FFFFFF;" d="M147.7,271v-8.1h1.9v1.1c0.4-0.9,1.1-1.3,2.1-1.3c0.3,0,0.7,0,1,0.2v1.7c-0.4-0.2-0.8-0.3-1.2-0.3
				c-0.8,0-1.5,0.4-1.9,1.3v5.4H147.7z"></path>
			<path style="fill:#FFFFFF;" d="M153.1,268.5c0.8,0.7,2,1.1,2.9,1.1s1.2-0.2,1.2-0.7c0-0.3-0.1-0.5-1.2-1l-0.9-0.4
				c-1.2-0.5-1.9-1.2-1.9-2.4c0-1.4,1.1-2.3,2.9-2.3c0.8,0,1.8,0.2,2.6,0.7v1.8c-0.8-0.6-1.8-0.9-2.6-0.9c-0.8,0-1,0.4-1,0.7
				c0,0.3,0.1,0.6,1.1,1l0.9,0.4c1.3,0.5,2,1.2,2,2.4c0,1.5-1.2,2.4-3,2.4c-1.2,0-2.1-0.3-2.9-0.8V268.5z"></path>
			<path style="fill:#FFFFFF;" d="M167.4,271.1c-2.4,0-3.9-1.7-3.9-4.2c0-2.5,1.6-4.3,4-4.3c2.4,0,3.9,1.7,3.9,4.2
				C171.3,269.5,169.8,271.1,167.4,271.1z M167.4,264.3c-1.2,0-2,0.9-2,2.6c0,1.6,0.8,2.5,2,2.5c1.3,0,2-0.8,2-2.6
				C169.4,265.2,168.6,264.3,167.4,264.3z"></path>
			<path style="fill:#FFFFFF;" d="M173.3,271v-6.5h-1.1v-1.6h1.1v-0.8c0-0.9,0.1-1.5,0.3-2c0.4-0.9,1.3-1.3,2.5-1.3
				c0.6,0,1.1,0.1,1.5,0.3v1.6c-0.4-0.2-0.8-0.3-1.2-0.3c-0.5,0-0.9,0.2-1,0.5c-0.1,0.3-0.2,0.6-0.2,1.2v0.8h1.8v1.6h-1.8v6.5H173.3
				z"></path>
			<path style="fill:#FFFFFF;" d="M185.4,271.1c-2.6,0-4.2-1.6-4.2-4.2c0-2.6,1.6-4.2,3.9-4.2c2.4,0,3.4,1.6,3.4,4v0.7h-5.3
				c0.1,1.5,1.1,2.1,2.6,2.1c0.8,0,1.9-0.3,2.6-0.9v1.8C187.5,270.9,186.6,271.1,185.4,271.1z M186.6,266.1c0-1-0.3-1.9-1.6-1.9
				c-1.1,0-1.8,0.8-1.9,1.9H186.6z"></path>
			<path style="fill:#FFFFFF;" d="M190.1,271v-12h1.9v12H190.1z"></path>
			<path style="fill:#FFFFFF;" d="M197.9,271.1c-2.6,0-4.2-1.6-4.2-4.2c0-2.6,1.6-4.2,3.9-4.2c2.4,0,3.4,1.6,3.4,4v0.7h-5.3
				c0.1,1.5,1.1,2.1,2.6,2.1c0.8,0,1.9-0.3,2.6-0.9v1.8C200.1,270.9,199.1,271.1,197.9,271.1z M199.2,266.1c0-1-0.3-1.9-1.6-1.9
				c-1.1,0-1.8,0.8-1.9,1.9H199.2z"></path>
			<path style="fill:#FFFFFF;" d="M206.2,271.1c-2.4,0-4-1.6-4-4.2c0-2.5,1.7-4.2,4.1-4.2c0.9,0,1.7,0.2,2.3,0.6v1.9
				c-0.6-0.5-1.2-0.8-2-0.8c-1.6,0-2.4,1.1-2.4,2.5c0,1.7,1.1,2.5,2.4,2.5c0.7,0,1.4-0.3,2-0.7v1.8C207.9,271,207,271.1,206.2,271.1
				z"></path>
			<path style="fill:#FFFFFF;" d="M212.9,271.1c-1,0-1.9-0.4-2.2-1.4c-0.2-0.5-0.2-1.2-0.2-2v-3.3h-1v-1.6h1v-2.3h1.9v2.3h2.1v1.6
				h-2.1v3.3c0,0.6,0,0.9,0.1,1.1c0.1,0.4,0.5,0.6,1,0.6c0.5,0,0.9-0.1,1.3-0.4v1.6C214.3,271,213.6,271.1,212.9,271.1z"></path>
			<path style="fill:#FFFFFF;" d="M219.9,271.1c-2.6,0-4.2-1.6-4.2-4.2c0-2.6,1.6-4.2,3.9-4.2c2.4,0,3.4,1.6,3.4,4v0.7h-5.3
				c0.1,1.5,1.1,2.1,2.6,2.1c0.8,0,1.9-0.3,2.6-0.9v1.8C222,270.9,221.1,271.1,219.9,271.1z M221.1,266.1c0-1-0.3-1.9-1.6-1.9
				c-1.1,0-1.8,0.8-1.9,1.9H221.1z"></path>
			<path style="fill:#FFFFFF;" d="M229.8,271v-0.8c-0.5,0.6-1.4,1-2.4,1c-2,0-3.3-1.6-3.3-4c0-2.6,1.4-4.4,3.8-4.4
				c0.8,0,1.5,0.2,1.9,0.6V259h1.9v12H229.8z M229.8,264.9c-0.3-0.4-0.8-0.7-1.6-0.7c-1.2,0-2.2,0.9-2.2,2.8c0,1.9,1,2.6,1.9,2.6
				c0.7,0,1.5-0.4,1.8-0.8V264.9z"></path>
			<path style="fill:#FFFFFF;" d="M237.3,271v-8.1h1.9v0.9c0.5-0.6,1.5-1.1,2.5-1.1c1.3,0,2.1,0.5,2.4,1.7c0.1,0.6,0.2,1.2,0.2,2.1
				v4.4h-1.9v-4.3c0-0.7,0-1.2-0.1-1.6c-0.2-0.5-0.6-0.7-1.2-0.7c-0.7,0-1.5,0.4-1.8,1v5.6H237.3z"></path>
			<path style="fill:#FFFFFF;" d="M250.6,271v-0.8c-0.6,0.6-1.2,1-2.2,1c-1.5,0-2.5-1.1-2.5-2.4c0-0.8,0.4-1.5,1-1.9
				c0.9-0.5,2-0.7,3.7-0.8v-0.3c0-0.4,0-0.7-0.2-1c-0.2-0.3-0.7-0.5-1.2-0.5c-1,0-2,0.3-2.8,1v-1.6c0.8-0.7,2-1,3-1
				c1.2,0,2.2,0.3,2.8,1.4c0.2,0.5,0.3,1.2,0.3,2.2v4.7H250.6z M250.6,267.3c-1.2,0.1-1.9,0.2-2.4,0.5c-0.3,0.2-0.5,0.5-0.5,0.8
				c0,0.5,0.3,1,1.2,1c0.7,0,1.2-0.2,1.6-0.6V267.3z"></path>
			<path style="fill:#FFFFFF;" d="M257.3,271.1c-1,0-1.9-0.4-2.2-1.4c-0.2-0.5-0.2-1.2-0.2-2v-3.3h-1v-1.6h1v-2.3h1.9v2.3h2.1v1.6
				h-2.1v3.3c0,0.6,0,0.9,0.1,1.1c0.1,0.4,0.5,0.6,1,0.6c0.5,0,0.9-0.1,1.3-0.4v1.6C258.7,271,258.1,271.1,257.3,271.1z"></path>
			<path style="fill:#FFFFFF;" d="M261.6,261.5c-0.6,0-1-0.5-1-1.1c0-0.6,0.5-1.1,1.1-1.1c0.6,0,1.1,0.4,1.1,1.1
				C262.7,261,262.2,261.5,261.6,261.5z M260.6,271v-8.1h1.9v8.1H260.6z"></path>
			<path style="fill:#FFFFFF;" d="M268.2,271.1c-2.4,0-3.9-1.7-3.9-4.2c0-2.5,1.6-4.3,4-4.3s3.9,1.7,3.9,4.2
				C272.1,269.5,270.6,271.1,268.2,271.1z M268.2,264.3c-1.2,0-2,0.9-2,2.6c0,1.6,0.8,2.5,2,2.5c1.3,0,2-0.8,2-2.6
				C270.2,265.2,269.5,264.3,268.2,264.3z"></path>
			<path style="fill:#FFFFFF;" d="M273.8,271v-8.1h1.9v0.9c0.5-0.6,1.5-1.1,2.5-1.1c1.3,0,2.1,0.5,2.4,1.7c0.1,0.6,0.2,1.2,0.2,2.1
				v4.4h-1.9v-4.3c0-0.7,0-1.2-0.1-1.6c-0.2-0.5-0.6-0.7-1.2-0.7c-0.7,0-1.5,0.4-1.8,1v5.6H273.8z"></path>
			<path style="fill:#FFFFFF;" d="M287.2,271v-0.8c-0.6,0.6-1.2,1-2.2,1c-1.5,0-2.5-1.1-2.5-2.4c0-0.8,0.4-1.5,1-1.9
				c0.9-0.5,2-0.7,3.7-0.8v-0.3c0-0.4,0-0.7-0.2-1c-0.2-0.3-0.7-0.5-1.2-0.5c-1,0-2,0.3-2.8,1v-1.6c0.8-0.7,2-1,3-1
				c1.2,0,2.2,0.3,2.8,1.4c0.2,0.5,0.3,1.2,0.3,2.2v4.7H287.2z M287.2,267.3c-1.2,0.1-1.9,0.2-2.4,0.5c-0.3,0.2-0.5,0.5-0.5,0.8
				c0,0.5,0.3,1,1.2,1c0.7,0,1.2-0.2,1.6-0.6V267.3z"></path>
			<path style="fill:#FFFFFF;" d="M291.2,271v-12h1.9v12H291.2z"></path>
			<path style="fill:#FFFFFF;" d="M75.6,285.7c0-1.8,1.3-3,3.4-3c0.6,0,1,0,1.4,0.2h2.7v1.6h-1.2c0.2,0.3,0.4,0.7,0.4,1.2
				c0,1-0.4,1.8-1.3,2.2c-0.6,0.3-1.2,0.5-1.9,0.6c-0.5,0.1-0.9,0.4-0.9,0.7c0,0.2,0.1,0.3,0.4,0.4c0.6,0.1,1.6,0.1,2.5,0.3
				c1.5,0.2,1.9,1.1,1.9,2.1c0,1.7-1.7,2.9-4.2,2.9c-2.1,0-3.5-0.8-3.5-2.2c0-1,0.7-1.5,2-1.9c-0.7-0.2-0.9-0.6-0.9-1.1
				c0-0.6,0.4-1.1,1.2-1.4C76.2,287.8,75.6,286.9,75.6,285.7z M80.4,291.5c-0.3-0.1-1-0.2-1.6-0.2c-1,0-1.7,0.4-1.7,1.1
				c0,0.6,0.7,1,1.8,1c1.3,0,2.2-0.4,2.2-1.2C81.1,291.9,80.9,291.7,80.4,291.5z M79,284.2c-0.8,0-1.5,0.6-1.5,1.5
				c0,0.9,0.6,1.4,1.5,1.4c0.9,0,1.5-0.5,1.5-1.4C80.5,284.7,79.9,284.2,79,284.2z"></path>
			<path style="fill:#FFFFFF;" d="M87.8,291.1c-2.4,0-3.9-1.7-3.9-4.2c0-2.5,1.6-4.3,4-4.3c2.4,0,3.9,1.7,3.9,4.2
				C91.7,289.5,90.2,291.1,87.8,291.1z M87.8,284.3c-1.2,0-2,0.9-2,2.6c0,1.6,0.8,2.5,2,2.5c1.3,0,2-0.8,2-2.6
				C89.8,285.2,89.1,284.3,87.8,284.3z"></path>
			<path style="fill:#FFFFFF;" d="M95.6,291l-3.4-8.1h2.1c1.6,4,1.8,4.7,2.1,5.6c0.3-0.9,0.5-1.6,2.1-5.6h2l-3.4,8.1H95.6z"></path>
			<path style="fill:#FFFFFF;" d="M105.3,291.1c-2.6,0-4.2-1.6-4.2-4.2c0-2.6,1.6-4.2,3.9-4.2c2.4,0,3.4,1.6,3.4,4v0.7h-5.3
				c0.1,1.5,1.1,2.1,2.6,2.1c0.8,0,1.9-0.3,2.6-0.9v1.8C107.5,290.9,106.5,291.1,105.3,291.1z M106.6,286.1c0-1-0.3-1.9-1.6-1.9
				c-1.1,0-1.8,0.8-1.9,1.9H106.6z"></path>
			<path style="fill:#FFFFFF;" d="M110.1,291v-8.1h1.9v1.1c0.4-0.9,1.1-1.3,2.1-1.3c0.3,0,0.7,0,1,0.2v1.7c-0.4-0.2-0.8-0.3-1.2-0.3
				c-0.8,0-1.5,0.4-1.9,1.3v5.4H110.1z"></path>
			<path style="fill:#FFFFFF;" d="M116.1,291v-8.1h1.9v0.9c0.5-0.6,1.5-1.1,2.5-1.1c1.3,0,2.1,0.5,2.4,1.7c0.1,0.6,0.2,1.2,0.2,2.1
				v4.4h-1.9v-4.3c0-0.7,0-1.2-0.1-1.6c-0.2-0.5-0.6-0.7-1.2-0.7c-0.7,0-1.5,0.4-1.8,1v5.6H116.1z"></path>
			<path style="fill:#FFFFFF;" d="M125.2,291v-8.1h1.9v0.9c0.5-0.6,1.4-1.1,2.4-1.1c1,0,1.8,0.4,2.2,1.3c0.6-0.8,1.5-1.3,2.7-1.3
				c1,0,1.9,0.4,2.2,1.3c0.2,0.6,0.3,1.3,0.3,2.5v4.4H135v-4.3c0-0.6,0-1.1-0.1-1.4c-0.2-0.6-0.6-0.8-1.2-0.8c-0.7,0-1.3,0.4-1.7,1
				c0,0.4,0,0.8,0,1.2v4.4h-1.9v-4.3c0-0.6,0-1.2-0.2-1.5c-0.2-0.5-0.6-0.8-1.2-0.8c-0.7,0-1.3,0.4-1.7,1v5.6H125.2z"></path>
			<path style="fill:#FFFFFF;" d="M142.8,291.1c-2.6,0-4.2-1.6-4.2-4.2c0-2.6,1.6-4.2,3.9-4.2c2.4,0,3.4,1.6,3.4,4v0.7h-5.3
				c0.1,1.5,1.1,2.1,2.6,2.1c0.8,0,1.9-0.3,2.6-0.9v1.8C144.9,290.9,144,291.1,142.8,291.1z M144,286.1c0-1-0.3-1.9-1.6-1.9
				c-1.1,0-1.8,0.8-1.9,1.9H144z"></path>
			<path style="fill:#FFFFFF;" d="M147.5,291v-8.1h1.9v0.9c0.5-0.6,1.5-1.1,2.5-1.1c1.3,0,2.1,0.5,2.4,1.7c0.1,0.6,0.2,1.2,0.2,2.1
				v4.4h-1.9v-4.3c0-0.7,0-1.2-0.1-1.6c-0.2-0.5-0.6-0.7-1.2-0.7c-0.7,0-1.5,0.4-1.8,1v5.6H147.5z"></path>
			<path style="fill:#FFFFFF;" d="M159.3,291.1c-1,0-1.9-0.4-2.2-1.4c-0.2-0.5-0.2-1.2-0.2-2v-3.3h-1v-1.6h1v-2.3h1.9v2.3h2.1v1.6
				h-2.1v3.3c0,0.6,0,0.9,0.1,1.1c0.1,0.4,0.5,0.6,1,0.6c0.5,0,0.9-0.1,1.3-0.4v1.6C160.7,291,160.1,291.1,159.3,291.1z"></path>
			<path style="fill:#FFFFFF;" d="M162.4,288.5c0.8,0.7,2,1.1,2.9,1.1s1.2-0.2,1.2-0.7c0-0.3-0.1-0.5-1.2-1l-0.9-0.4
				c-1.2-0.5-1.9-1.2-1.9-2.4c0-1.4,1.1-2.3,2.9-2.3c0.8,0,1.8,0.2,2.6,0.7v1.8c-0.8-0.6-1.8-0.9-2.6-0.9c-0.8,0-1,0.4-1,0.7
				c0,0.3,0.1,0.6,1.1,1l0.9,0.4c1.3,0.5,2,1.2,2,2.4c0,1.5-1.2,2.4-3,2.4c-1.2,0-2.1-0.3-2.9-0.8V288.5z"></path>
			<path style="fill:#FFFFFF;" d="M168.7,293.5c0.8-1.3,1.3-2.9,1.3-5h1.8c0,2.1-0.7,3.9-1.7,5H168.7z"></path>
			<path style="fill:#FFFFFF;" d="M178.1,281.5c-0.6,0-1-0.5-1-1.1c0-0.6,0.5-1.1,1.1-1.1c0.6,0,1.1,0.4,1.1,1.1
				C179.2,281,178.7,281.5,178.1,281.5z M177.1,291v-8.1h1.9v8.1H177.1z"></path>
			<path style="fill:#FFFFFF;" d="M181.3,291v-8.1h1.9v0.9c0.5-0.6,1.5-1.1,2.5-1.1c1.3,0,2.1,0.5,2.4,1.7c0.1,0.6,0.2,1.2,0.2,2.1
				v4.4h-1.9v-4.3c0-0.7,0-1.2-0.1-1.6c-0.2-0.5-0.6-0.7-1.2-0.7c-0.7,0-1.5,0.4-1.8,1v5.6H181.3z"></path>
			<path style="fill:#FFFFFF;" d="M198,291v-0.8c-0.6,0.6-1.2,1-2.2,1c-1.5,0-2.5-1.1-2.5-2.4c0-0.8,0.4-1.5,1-1.9
				c0.9-0.5,2-0.7,3.7-0.8v-0.3c0-0.4,0-0.7-0.2-1c-0.2-0.3-0.7-0.5-1.2-0.5c-1,0-2,0.3-2.8,1v-1.6c0.8-0.7,2-1,3-1
				c1.2,0,2.2,0.3,2.8,1.4c0.2,0.5,0.3,1.2,0.3,2.2v4.7H198z M198,287.3c-1.2,0.1-1.9,0.2-2.4,0.5c-0.3,0.2-0.5,0.5-0.5,0.8
				c0,0.5,0.3,1,1.2,1c0.7,0,1.2-0.2,1.6-0.6V287.3z"></path>
			<path style="fill:#FFFFFF;" d="M201.5,285.7c0-1.8,1.3-3,3.4-3c0.6,0,1,0,1.4,0.2h2.7v1.6h-1.2c0.2,0.3,0.4,0.7,0.4,1.2
				c0,1-0.4,1.8-1.3,2.2c-0.6,0.3-1.2,0.5-1.9,0.6c-0.5,0.1-0.9,0.4-0.9,0.7c0,0.2,0.1,0.3,0.4,0.4c0.6,0.1,1.6,0.1,2.5,0.3
				c1.5,0.2,1.9,1.1,1.9,2.1c0,1.7-1.7,2.9-4.2,2.9c-2.1,0-3.5-0.8-3.5-2.2c0-1,0.7-1.5,2-1.9c-0.7-0.2-0.9-0.6-0.9-1.1
				c0-0.6,0.4-1.1,1.2-1.4C202.1,287.8,201.5,286.9,201.5,285.7z M206.3,291.5c-0.3-0.1-1-0.2-1.6-0.2c-1,0-1.7,0.4-1.7,1.1
				c0,0.6,0.7,1,1.8,1c1.3,0,2.2-0.4,2.2-1.2C207,291.9,206.8,291.7,206.3,291.5z M204.9,284.2c-0.8,0-1.5,0.6-1.5,1.5
				c0,0.9,0.6,1.4,1.5,1.4c0.9,0,1.5-0.5,1.5-1.4C206.4,284.7,205.8,284.2,204.9,284.2z"></path>
			<path style="fill:#FFFFFF;" d="M210.3,291v-8.1h1.9v1.1c0.4-0.9,1.1-1.3,2.1-1.3c0.3,0,0.7,0,1,0.2v1.7c-0.4-0.2-0.8-0.3-1.2-0.3
				c-0.8,0-1.5,0.4-1.9,1.3v5.4H210.3z"></path>
			<path style="fill:#FFFFFF;" d="M219.9,291.1c-2.6,0-4.2-1.6-4.2-4.2c0-2.6,1.6-4.2,3.9-4.2c2.4,0,3.4,1.6,3.4,4v0.7h-5.3
				c0.1,1.5,1.1,2.1,2.6,2.1c0.8,0,1.9-0.3,2.6-0.9v1.8C222,290.9,221.1,291.1,219.9,291.1z M221.1,286.1c0-1-0.3-1.9-1.6-1.9
				c-1.1,0-1.8,0.8-1.9,1.9H221.1z"></path>
			<path style="fill:#FFFFFF;" d="M228.3,291.1c-2.6,0-4.2-1.6-4.2-4.2c0-2.6,1.6-4.2,3.9-4.2c2.4,0,3.4,1.6,3.4,4v0.7h-5.3
				c0.1,1.5,1.1,2.1,2.6,2.1c0.8,0,1.9-0.3,2.6-0.9v1.8C230.4,290.9,229.5,291.1,228.3,291.1z M229.5,286.1c0-1-0.3-1.9-1.6-1.9
				c-1.1,0-1.8,0.8-1.9,1.9H229.5z"></path>
			<path style="fill:#FFFFFF;" d="M233,291v-8.1h1.9v0.9c0.5-0.6,1.4-1.1,2.4-1.1c1,0,1.8,0.4,2.2,1.3c0.6-0.8,1.5-1.3,2.7-1.3
				c1,0,1.9,0.4,2.2,1.3c0.2,0.6,0.3,1.3,0.3,2.5v4.4h-1.9v-4.3c0-0.6,0-1.1-0.1-1.4c-0.2-0.6-0.6-0.8-1.2-0.8c-0.7,0-1.3,0.4-1.7,1
				c0,0.4,0,0.8,0,1.2v4.4H238v-4.3c0-0.6,0-1.2-0.2-1.5c-0.2-0.5-0.6-0.8-1.2-0.8c-0.7,0-1.3,0.4-1.7,1v5.6H233z"></path>
			<path style="fill:#FFFFFF;" d="M250.6,291.1c-2.6,0-4.2-1.6-4.2-4.2c0-2.6,1.6-4.2,3.9-4.2c2.4,0,3.4,1.6,3.4,4v0.7h-5.3
				c0.1,1.5,1.1,2.1,2.6,2.1c0.8,0,1.9-0.3,2.6-0.9v1.8C252.8,290.9,251.8,291.1,250.6,291.1z M251.9,286.1c0-1-0.3-1.9-1.6-1.9
				c-1.1,0-1.8,0.8-1.9,1.9H251.9z"></path>
			<path style="fill:#FFFFFF;" d="M255.4,291v-8.1h1.9v0.9c0.5-0.6,1.5-1.1,2.5-1.1c1.3,0,2.1,0.5,2.4,1.7c0.1,0.6,0.2,1.2,0.2,2.1
				v4.4h-1.9v-4.3c0-0.7,0-1.2-0.1-1.6c-0.2-0.5-0.6-0.7-1.2-0.7c-0.7,0-1.5,0.4-1.8,1v5.6H255.4z"></path>
			<path style="fill:#FFFFFF;" d="M267.1,291.1c-1,0-1.9-0.4-2.2-1.4c-0.2-0.5-0.2-1.2-0.2-2v-3.3h-1v-1.6h1v-2.3h1.9v2.3h2.1v1.6
				h-2.1v3.3c0,0.6,0,0.9,0.1,1.1c0.1,0.4,0.5,0.6,1,0.6c0.5,0,0.9-0.1,1.3-0.4v1.6C268.6,291,267.9,291.1,267.1,291.1z"></path>
			<path style="fill:#FFFFFF;" d="M275.5,291l-2.6-8.1h2.1c1.1,4.1,1.2,4.6,1.4,5.4c0.3-0.8,0.4-1.4,1.8-5.4h1.5
				c1.4,4,1.6,4.6,1.9,5.4c0.2-0.9,0.3-1.4,1.4-5.4h2.1l-2.6,8.1H281c-1.5-4.1-1.7-4.8-2-5.6c-0.2,0.8-0.5,1.5-1.9,5.6H275.5z"></path>
			<path style="fill:#FFFFFF;" d="M287.4,281.5c-0.6,0-1-0.5-1-1.1c0-0.6,0.5-1.1,1.1-1.1c0.6,0,1.1,0.4,1.1,1.1
				C288.5,281,288,281.5,287.4,281.5z M286.5,291v-8.1h1.9v8.1H286.5z"></path>
			<path style="fill:#FFFFFF;" d="M293.3,291.1c-1,0-1.9-0.4-2.2-1.4c-0.2-0.5-0.2-1.2-0.2-2v-3.3h-1v-1.6h1v-2.3h1.9v2.3h2.1v1.6
				h-2.1v3.3c0,0.6,0,0.9,0.1,1.1c0.1,0.4,0.5,0.6,1,0.6c0.5,0,0.9-0.1,1.3-0.4v1.6C294.7,291,294,291.1,293.3,291.1z"></path>
			<path style="fill:#FFFFFF;" d="M296.6,291v-12h1.9v4.8c0.5-0.6,1.4-1.1,2.4-1.1c1.1,0,1.9,0.4,2.3,1.3c0.3,0.7,0.4,1.4,0.4,2.5
				v4.4h-1.9v-4.3c0-0.7,0-1.2-0.1-1.6c-0.2-0.5-0.6-0.7-1.2-0.7c-0.7,0-1.3,0.4-1.8,1v5.6H296.6z"></path>
			<path style="fill:#FFFFFF;" d="M78.8,311.1c-1,0-1.9-0.4-2.2-1.4c-0.2-0.5-0.2-1.2-0.2-2v-3.3h-1v-1.6h1v-2.3h1.9v2.3h2.1v1.6
				h-2.1v3.3c0,0.6,0,0.9,0.1,1.1c0.1,0.4,0.5,0.6,1,0.6c0.5,0,0.9-0.1,1.3-0.4v1.6C80.2,311,79.5,311.1,78.8,311.1z"></path>
			<path style="fill:#FFFFFF;" d="M82.1,311v-12H84v4.8c0.5-0.6,1.4-1.1,2.4-1.1c1.1,0,1.9,0.4,2.3,1.3c0.3,0.7,0.4,1.4,0.4,2.5v4.4
				h-1.9v-4.3c0-0.7,0-1.2-0.1-1.6c-0.2-0.5-0.6-0.7-1.2-0.7c-0.7,0-1.3,0.4-1.8,1v5.6H82.1z"></path>
			<path style="fill:#FFFFFF;" d="M94.9,311.1c-2.6,0-4.2-1.6-4.2-4.2c0-2.6,1.6-4.2,3.9-4.2c2.4,0,3.4,1.6,3.4,4v0.7h-5.3
				c0.1,1.5,1.1,2.1,2.6,2.1c0.8,0,1.9-0.3,2.6-0.9v1.8C97.1,310.9,96.1,311.1,94.9,311.1z M96.2,306.1c0-1-0.3-1.9-1.6-1.9
				c-1.1,0-1.8,0.8-1.9,1.9H96.2z"></path>
			<path style="fill:#FFFFFF;" d="M106.7,311.1c-2.6,0-4.2-1.6-4.2-4.2c0-2.6,1.6-4.2,3.9-4.2c2.4,0,3.4,1.6,3.4,4v0.7h-5.3
				c0.1,1.5,1.1,2.1,2.6,2.1c0.8,0,1.9-0.3,2.6-0.9v1.8C108.8,310.9,107.9,311.1,106.7,311.1z M107.9,306.1c0-1-0.3-1.9-1.6-1.9
				c-1.1,0-1.8,0.8-1.9,1.9H107.9z"></path>
			<path style="fill:#FFFFFF;" d="M111.4,311v-12h1.9v12H111.4z"></path>
			<path style="fill:#FFFFFF;" d="M119.2,311.1c-2.6,0-4.2-1.6-4.2-4.2c0-2.6,1.6-4.2,3.9-4.2c2.4,0,3.4,1.6,3.4,4v0.7H117
				c0.1,1.5,1.1,2.1,2.6,2.1c0.8,0,1.9-0.3,2.6-0.9v1.8C121.4,310.9,120.5,311.1,119.2,311.1z M120.5,306.1c0-1-0.3-1.9-1.6-1.9
				c-1.1,0-1.8,0.8-1.9,1.9H120.5z"></path>
			<path style="fill:#FFFFFF;" d="M127.5,311.1c-2.4,0-4-1.6-4-4.2c0-2.5,1.7-4.2,4.1-4.2c0.9,0,1.7,0.2,2.3,0.6v1.9
				c-0.6-0.5-1.2-0.8-2-0.8c-1.6,0-2.4,1.1-2.4,2.5c0,1.7,1.1,2.5,2.4,2.5c0.7,0,1.4-0.3,2-0.7v1.8
				C129.2,311,128.4,311.1,127.5,311.1z"></path>
			<path style="fill:#FFFFFF;" d="M134.2,311.1c-1,0-1.9-0.4-2.2-1.4c-0.2-0.5-0.2-1.2-0.2-2v-3.3h-1v-1.6h1v-2.3h1.9v2.3h2.1v1.6
				h-2.1v3.3c0,0.6,0,0.9,0.1,1.1c0.1,0.4,0.5,0.6,1,0.6c0.5,0,0.9-0.1,1.3-0.4v1.6C135.6,311,135,311.1,134.2,311.1z"></path>
			<path style="fill:#FFFFFF;" d="M141.2,311.1c-2.6,0-4.2-1.6-4.2-4.2c0-2.6,1.6-4.2,3.9-4.2c2.4,0,3.4,1.6,3.4,4v0.7H139
				c0.1,1.5,1.1,2.1,2.6,2.1c0.8,0,1.9-0.3,2.6-0.9v1.8C143.3,310.9,142.4,311.1,141.2,311.1z M142.4,306.1c0-1-0.3-1.9-1.6-1.9
				c-1.1,0-1.8,0.8-1.9,1.9H142.4z"></path>
			<path style="fill:#FFFFFF;" d="M151.1,311v-0.8c-0.5,0.6-1.4,1-2.4,1c-2,0-3.3-1.6-3.3-4c0-2.6,1.4-4.4,3.8-4.4
				c0.8,0,1.5,0.2,1.9,0.6V299h1.9v12H151.1z M151.1,304.9c-0.3-0.4-0.8-0.7-1.6-0.7c-1.2,0-2.2,0.9-2.2,2.8c0,1.9,1,2.6,1.9,2.6
				c0.7,0,1.5-0.4,1.8-0.8V304.9z"></path>
			<path style="fill:#FFFFFF;" d="M158.8,311v-11.3h6.8v1.9h-4.7v2.6h4.3v1.9h-4.3v3h5v1.9H158.8z"></path>
			<path style="fill:#FFFFFF;" d="M172.2,311V310c-0.5,0.7-1.3,1.1-2.4,1.1s-1.9-0.4-2.3-1.3c-0.3-0.7-0.3-1.4-0.3-2.5v-4.4h1.9v4.3
				c0,0.6,0,1.1,0.1,1.4c0.2,0.6,0.5,0.8,1.3,0.8c0.7,0,1.3-0.4,1.7-0.9v-5.7h1.9v8.1H172.2z"></path>
			<path style="fill:#FFFFFF;" d="M176.3,311v-8.1h1.9v1.1c0.4-0.9,1.1-1.3,2.1-1.3c0.3,0,0.7,0,1,0.2v1.7c-0.4-0.2-0.8-0.3-1.2-0.3
				c-0.8,0-1.5,0.4-1.9,1.3v5.4H176.3z"></path>
			<path style="fill:#FFFFFF;" d="M185.6,311.1c-2.4,0-3.9-1.7-3.9-4.2c0-2.5,1.6-4.3,4-4.3c2.4,0,3.9,1.7,3.9,4.2
				C189.5,309.5,188,311.1,185.6,311.1z M185.6,304.3c-1.2,0-2,0.9-2,2.6c0,1.6,0.8,2.5,2,2.5c1.3,0,2-0.8,2-2.6
				C187.6,305.2,186.9,304.3,185.6,304.3z"></path>
			<path style="fill:#FFFFFF;" d="M191.2,314.7v-11.8h1.8v0.8c0.5-0.6,1.4-1,2.3-1c2.2,0,3.4,1.6,3.4,4c0,2.6-1.4,4.4-3.8,4.4
				c-0.7,0-1.3-0.1-1.8-0.4v4.1H191.2z M194.6,309.6c1.4,0,2.1-1.2,2.1-2.8c0-1.6-0.7-2.6-2-2.6c-0.7,0-1.4,0.4-1.6,0.9v3.9
				C193.4,309.4,194.1,309.6,194.6,309.6z"></path>
			<path style="fill:#FFFFFF;" d="M204.1,311.1c-2.6,0-4.2-1.6-4.2-4.2c0-2.6,1.6-4.2,3.9-4.2c2.4,0,3.4,1.6,3.4,4v0.7h-5.3
				c0.1,1.5,1.1,2.1,2.6,2.1c0.8,0,1.9-0.3,2.6-0.9v1.8C206.2,310.9,205.3,311.1,204.1,311.1z M205.4,306.1c0-1-0.3-1.9-1.6-1.9
				c-1.1,0-1.8,0.8-1.9,1.9H205.4z"></path>
			<path style="fill:#FFFFFF;" d="M213.1,311v-0.8c-0.6,0.6-1.2,1-2.2,1c-1.5,0-2.5-1.1-2.5-2.4c0-0.8,0.4-1.5,1-1.9
				c0.9-0.5,2-0.7,3.7-0.8v-0.3c0-0.4,0-0.7-0.2-1c-0.2-0.3-0.7-0.5-1.2-0.5c-1,0-2,0.3-2.8,1v-1.6c0.8-0.7,2-1,3-1
				c1.2,0,2.2,0.3,2.8,1.4c0.2,0.5,0.3,1.2,0.3,2.2v4.7H213.1z M213,307.3c-1.2,0.1-1.9,0.2-2.4,0.5c-0.3,0.2-0.5,0.5-0.5,0.8
				c0,0.5,0.3,1,1.2,1c0.7,0,1.2-0.2,1.6-0.6V307.3z"></path>
			<path style="fill:#FFFFFF;" d="M217.1,311v-8.1h1.9v0.9c0.5-0.6,1.5-1.1,2.5-1.1c1.3,0,2.1,0.5,2.4,1.7c0.1,0.6,0.2,1.2,0.2,2.1
				v4.4h-1.9v-4.3c0-0.7,0-1.2-0.1-1.6c-0.2-0.5-0.6-0.7-1.2-0.7c-0.7,0-1.5,0.4-1.8,1v5.6H217.1z"></path>
			<path style="fill:#FFFFFF;" d="M229.8,311v-11.3h2.9c0.9,0,1.9,0.1,2.4,0.2c1.6,0.4,2.6,1.4,2.6,3.3c0,1.6-0.7,2.7-2,3.3
				c-0.8,0.3-1.8,0.4-3,0.4h-0.9v4H229.8z M232.7,305.1c0.7,0,1.3-0.1,1.8-0.2c0.7-0.3,1-0.8,1-1.6c0-0.9-0.5-1.5-1.4-1.6
				c-0.4-0.1-1-0.1-1.5-0.1h-0.7v3.6H232.7z"></path>
			<path style="fill:#FFFFFF;" d="M242.6,311v-0.8c-0.6,0.6-1.2,1-2.2,1c-1.5,0-2.5-1.1-2.5-2.4c0-0.8,0.4-1.5,1-1.9
				c0.9-0.5,2-0.7,3.7-0.8v-0.3c0-0.4,0-0.7-0.2-1c-0.2-0.3-0.7-0.5-1.2-0.5c-1,0-2,0.3-2.8,1v-1.6c0.8-0.7,2-1,3-1
				c1.2,0,2.2,0.3,2.8,1.4c0.2,0.5,0.3,1.2,0.3,2.2v4.7H242.6z M242.6,307.3c-1.2,0.1-1.9,0.2-2.4,0.5c-0.3,0.2-0.5,0.5-0.5,0.8
				c0,0.5,0.3,1,1.2,1c0.7,0,1.2-0.2,1.6-0.6V307.3z"></path>
			<path style="fill:#FFFFFF;" d="M246.6,311v-8.1h1.9v1.1c0.4-0.9,1.1-1.3,2.1-1.3c0.3,0,0.7,0,1,0.2v1.7c-0.4-0.2-0.8-0.3-1.2-0.3
				c-0.8,0-1.5,0.4-1.9,1.3v5.4H246.6z"></path>
			<path style="fill:#FFFFFF;" d="M252.8,311v-12h1.9v12H252.8z"></path>
			<path style="fill:#FFFFFF;" d="M257.8,301.5c-0.6,0-1-0.5-1-1.1c0-0.6,0.5-1.1,1.1-1.1c0.6,0,1.1,0.4,1.1,1.1
				C258.9,301,258.5,301.5,257.8,301.5z M256.9,311v-8.1h1.9v8.1H256.9z"></path>
			<path style="fill:#FFFFFF;" d="M265.3,311v-0.8c-0.6,0.6-1.2,1-2.2,1c-1.5,0-2.5-1.1-2.5-2.4c0-0.8,0.4-1.5,1-1.9
				c0.9-0.5,2-0.7,3.7-0.8v-0.3c0-0.4,0-0.7-0.2-1c-0.2-0.3-0.7-0.5-1.2-0.5c-1,0-2,0.3-2.8,1v-1.6c0.8-0.7,2-1,3-1
				c1.2,0,2.2,0.3,2.8,1.4c0.2,0.5,0.3,1.2,0.3,2.2v4.7H265.3z M265.2,307.3c-1.2,0.1-1.9,0.2-2.4,0.5c-0.3,0.2-0.5,0.5-0.5,0.8
				c0,0.5,0.3,1,1.2,1c0.7,0,1.2-0.2,1.6-0.6V307.3z"></path>
			<path style="fill:#FFFFFF;" d="M269.3,311v-8.1h1.9v0.9c0.5-0.6,1.4-1.1,2.4-1.1c1,0,1.8,0.4,2.2,1.3c0.6-0.8,1.5-1.3,2.7-1.3
				c1,0,1.9,0.4,2.2,1.3c0.2,0.6,0.3,1.3,0.3,2.5v4.4h-1.9v-4.3c0-0.6,0-1.1-0.1-1.4c-0.2-0.6-0.6-0.8-1.2-0.8c-0.7,0-1.3,0.4-1.7,1
				c0,0.4,0,0.8,0,1.2v4.4h-1.9v-4.3c0-0.6,0-1.2-0.2-1.5c-0.2-0.5-0.6-0.8-1.2-0.8c-0.7,0-1.3,0.4-1.7,1v5.6H269.3z"></path>
			<path style="fill:#FFFFFF;" d="M286.9,311.1c-2.6,0-4.2-1.6-4.2-4.2c0-2.6,1.6-4.2,3.9-4.2c2.4,0,3.4,1.6,3.4,4v0.7h-5.3
				c0.1,1.5,1.1,2.1,2.6,2.1c0.8,0,1.9-0.3,2.6-0.9v1.8C289,310.9,288.1,311.1,286.9,311.1z M288.1,306.1c0-1-0.3-1.9-1.6-1.9
				c-1.1,0-1.8,0.8-1.9,1.9H288.1z"></path>
			<path style="fill:#FFFFFF;" d="M291.6,311v-8.1h1.9v0.9c0.5-0.6,1.5-1.1,2.5-1.1c1.3,0,2.1,0.5,2.4,1.7c0.1,0.6,0.2,1.2,0.2,2.1
				v4.4h-1.9v-4.3c0-0.7,0-1.2-0.1-1.6c-0.2-0.5-0.6-0.7-1.2-0.7c-0.7,0-1.5,0.4-1.8,1v5.6H291.6z"></path>
			<path style="fill:#FFFFFF;" d="M303.4,311.1c-1,0-1.9-0.4-2.2-1.4c-0.2-0.5-0.2-1.2-0.2-2v-3.3h-1v-1.6h1v-2.3h1.9v2.3h2.1v1.6
				h-2.1v3.3c0,0.6,0,0.9,0.1,1.1c0.1,0.4,0.5,0.6,1,0.6c0.5,0,0.9-0.1,1.3-0.4v1.6C304.8,311,304.2,311.1,303.4,311.1z"></path>
			<path style="fill:#FFFFFF;" d="M308,311.1c-0.7,0-1.2-0.5-1.2-1.2c0-0.7,0.5-1.3,1.2-1.3c0.7,0,1.2,0.5,1.2,1.2
				C309.3,310.5,308.7,311.1,308,311.1z"></path>
		</g>
	</g>
</g>
</svg>
