<?xml version="1.0" encoding="utf-8"?>
<!-- Generator: Adobe Illustrator 19.1.0, SVG Export Plug-In . SVG Version: 6.00 Build 0)  -->
<svg version="1.1" xmlns="http://www.w3.org/2000/svg" xmlns:xlink="http://www.w3.org/1999/xlink" x="0px" y="0px" width="297px"
	 height="72px" viewBox="0 0 297 72" enable-background="new 0 0 297 72" xml:space="preserve">
<g id="elephant">
	<path fill="#E21C24" d="M297,0h-79.8c-1.8,3-3.6,6.1-5.3,10.3c-4.7,11.8-4.9,31.2,4.8,41.3c7.4,7.7,16,13.3,30,11.5
		c7.9-0.8,13.5-4.8,17.3-8.2c2.2-0.1,3.3-2,1.6-2c-2.7-0.3-4.1-0.7-5.9-2.7c-0.7-0.4-1.9-0.2-1.9,0.8c-2,1.8-7.8,4.9-14.1,3.2
		c-5.3-1.4-7-5.8-6.5-9.9c1.9-13.8,24.1-8.4,30.9-17.3c-1.7-2.3-3.6-4.2-4.6-8.1c-1.8-6.9,0.3-10.1,0.3-10.1
		c1.1,4.6,9.5,6.4,10.4,15.2c0.1,0.5,0.1,0.8,0.2,1.2c10.1,1.9,20.1,9,22.5,22V0z"/>
	<path fill-rule="evenodd" clip-rule="evenodd" fill="#FFFFFF" d="M228.5,14.6l-2.1,1.5c-0.3,0.2-0.6,0-0.5-0.4l0.8-2.5l-2.1-1.5
		c-0.3-0.2-0.2-0.6,0.2-0.6l2.6,0l0.8-2.5c0.1-0.4,0.5-0.4,0.6,0l0.8,2.5l2.6,0c0.4,0,0.5,0.4,0.2,0.6l-2.1,1.5l0.8,2.5
		c0.1,0.4-0.2,0.6-0.5,0.4L228.5,14.6z"/>
</g>
<g id="donkey-star">
	<path fill-rule="evenodd" clip-rule="evenodd" fill="#004A8F" d="M267.2,38.4l-1.9,1.4c-0.3,0.2-0.6,0-0.5-0.3l0.7-2.2l-1.9-1.4
		c-0.3-0.2-0.2-0.5,0.2-0.5l2.4,0l0.7-2.3c0.1-0.3,0.4-0.3,0.6,0l0.7,2.3l2.4,0c0.4,0,0.5,0.3,0.2,0.5l-1.9,1.4l0.7,2.2
		c0.1,0.3-0.2,0.5-0.5,0.3L267.2,38.4z"/>
</g>
</svg>
