<?xml version="1.0" encoding="utf-8"?>
<!-- Generator: Adobe Illustrator 19.1.0, SVG Export Plug-In . SVG Version: 6.00 Build 0)  -->
<svg version="1.1" id="Slide" xmlns="http://www.w3.org/2000/svg" xmlns:xlink="http://www.w3.org/1999/xlink" x="0px" y="0px"
	 width="297px" height="594px" viewBox="0 0 297 594" enable-background="new 0 0 297 594" xml:space="preserve">
<rect y="297" fill-rule="evenodd" clip-rule="evenodd" fill="#004A8F" width="297" height="297"/>
<path fill="#FFFFFF" d="M177,552.8c0-0.5,0.4-1,1-1c0.5,0,1,0.4,1,1c0,0.5-0.4,1-1,1C177.4,553.8,177,553.3,177,552.8z"/>
<rect x="31.2" y="20.5" fill="#7A7A7A" width="114.4" height="30"/>
<g>
	<path fill="#FFFFFF" d="M32.6,374.8h2.7c1.3,0,2.7,0.1,3.6,0.5c2,0.8,3,2.6,3,5c0,2.5-1,4.4-3.3,5.3c-0.9,0.4-2.3,0.5-3.7,0.5h-2.4
		V374.8z M35.3,384.6c0.9,0,2.1-0.1,2.9-0.4c1.3-0.6,2-1.9,2-3.8c0-1.6-0.5-2.9-1.9-3.6c-0.6-0.4-1.8-0.4-2.7-0.4h-1.4v8.3H35.3z"/>
	<path fill="#FFFFFF" d="M48.9,386.1v-1c-0.5,0.7-1.3,1.2-2.5,1.2c-1.1,0-1.9-0.4-2.3-1.4c-0.2-0.6-0.3-1.3-0.3-2.4v-4.4h1.5v4.4
		c0,0.7,0,1.3,0.2,1.6c0.2,0.6,0.6,0.9,1.5,0.9c0.8,0,1.5-0.4,1.9-1.1v-5.8h1.5v8H48.9z"/>
	<path fill="#FFFFFF" d="M56.4,386.3c-2.5,0-4.1-1.6-4.1-4.2c0-2.5,1.6-4.2,3.7-4.2c2.4,0,3.3,1.7,3.3,4v0.6h-5.5
		c0,1.8,1.3,2.5,2.8,2.5c0.8,0,1.8-0.3,2.6-0.8v1.4C58.5,386,57.6,386.3,56.4,386.3z M57.8,381.3c0-1.1-0.3-2.2-1.8-2.2
		c-1.4,0-2.1,1.1-2.2,2.2H57.8z"/>
	<path fill="#FFFFFF" d="M67.1,386.3c-0.9,0-1.7-0.4-2-1.3c-0.2-0.5-0.2-1.2-0.2-1.9v-3.8h-1.1v-1.2h1.1v-2.2h1.5v2.2h2.1v1.2h-2.1
		v3.8c0,0.6,0,0.9,0.1,1.2c0.1,0.4,0.5,0.6,1.1,0.6c0.5,0,0.9-0.1,1.3-0.4v1.3C68.4,386.2,67.8,386.3,67.1,386.3z"/>
	<path fill="#FFFFFF" d="M73.7,386.3c-2.4,0-3.8-1.7-3.8-4.2c0-2.5,1.5-4.2,3.8-4.2c2.4,0,3.8,1.7,3.8,4.2
		C77.5,384.7,76,386.3,73.7,386.3z M73.7,379.2c-1.4,0-2.3,1.1-2.3,2.9c0,1.8,0.9,2.9,2.3,2.9c1.5,0,2.3-1,2.3-2.9
		C76,380.3,75.2,379.2,73.7,379.2z"/>
	<path fill="#FFFFFF" d="M85.3,386.3c-0.9,0-1.7-0.4-2-1.3c-0.2-0.5-0.2-1.2-0.2-1.9v-3.8h-1.1v-1.2h1.1v-2.2h1.5v2.2h2.1v1.2h-2.1
		v3.8c0,0.6,0,0.9,0.1,1.2c0.1,0.4,0.5,0.6,1.1,0.6c0.5,0,0.9-0.1,1.3-0.4v1.3C86.6,386.2,86,386.3,85.3,386.3z"/>
	<path fill="#FFFFFF" d="M88.6,386.1v-12h1.5v4.9c0.5-0.7,1.4-1.2,2.5-1.2c1.1,0,1.9,0.4,2.3,1.4c0.2,0.6,0.3,1.3,0.3,2.4v4.4h-1.5
		v-4.4c0-0.8,0-1.4-0.2-1.8c-0.2-0.5-0.7-0.8-1.4-0.8c-0.8,0-1.6,0.4-2,1.1v5.8H88.6z"/>
	<path fill="#FFFFFF" d="M101,386.3c-2.5,0-4.1-1.6-4.1-4.2c0-2.5,1.6-4.2,3.7-4.2c2.4,0,3.3,1.7,3.3,4v0.6h-5.5
		c0,1.8,1.3,2.5,2.8,2.5c0.8,0,1.8-0.3,2.6-0.8v1.4C103.2,386,102.2,386.3,101,386.3z M102.5,381.3c0-1.1-0.3-2.2-1.8-2.2
		c-1.4,0-2.1,1.1-2.2,2.2H102.5z"/>
	<path fill="#FFFFFF" d="M109.3,386.1v-12h1.5v12H109.3z"/>
	<path fill="#FFFFFF" d="M117.5,386.1v-0.8c-0.6,0.6-1.2,1-2.3,1c-1.5,0-2.5-1.1-2.5-2.4c0-0.8,0.3-1.5,1-1.9
		c0.8-0.5,2.1-0.7,3.8-0.8V381c0-0.5-0.1-0.9-0.3-1.2c-0.3-0.4-0.7-0.5-1.3-0.5c-1,0-2,0.3-2.7,1v-1.3c0.8-0.7,1.9-1,2.8-1
		c1.1,0,2.1,0.3,2.6,1.3c0.2,0.5,0.3,1.2,0.3,2.1v4.8H117.5z M117.5,382.3c-1.5,0.1-2.2,0.3-2.8,0.6c-0.4,0.2-0.5,0.6-0.5,1
		c0,0.6,0.4,1.2,1.5,1.2c0.8,0,1.4-0.3,1.9-0.8V382.3z"/>
	<path fill="#FFFFFF" d="M121.3,386.1v-8h1.4v1.2c0.4-0.9,1.2-1.4,2.1-1.4c0.3,0,0.7,0,1,0.2v1.4c-0.3-0.2-0.7-0.3-1.1-0.3
		c-0.8,0-1.5,0.4-2,1.4v5.6H121.3z"/>
	<path fill="#FFFFFF" d="M126.5,380.8c0-1.7,1.3-2.9,3.2-2.9c0.6,0,0.9,0,1.3,0.2h2.6v1.2h-1.3c0.3,0.3,0.5,0.8,0.5,1.4
		c0,1-0.4,1.8-1.3,2.3c-0.6,0.3-1.1,0.4-1.8,0.6c-0.6,0.1-1,0.5-1,0.8c0,0.2,0.1,0.4,0.5,0.5c0.5,0.1,1.6,0.1,2.4,0.2
		c1.6,0.2,2,1.1,2,2.1c0,1.6-1.6,2.8-4.1,2.8c-2,0-3.4-0.8-3.4-2.2c0-1,0.8-1.6,1.9-2c-0.6-0.2-0.9-0.6-0.9-1c0-0.6,0.4-1.1,1.2-1.5
		C127.1,383,126.5,382,126.5,380.8z M131.4,386.6c-0.4-0.1-1.2-0.2-1.9-0.2c-1.2,0-1.9,0.6-1.9,1.3c0,0.7,0.7,1.2,2.1,1.2
		s2.5-0.6,2.5-1.4C132.1,387,131.9,386.8,131.4,386.6z M129.7,379.2c-1,0-1.7,0.7-1.7,1.7c0,0.9,0.7,1.6,1.7,1.6
		c1,0,1.7-0.6,1.7-1.6C131.4,379.8,130.8,379.2,129.7,379.2z"/>
	<path fill="#FFFFFF" d="M138.6,386.3c-2.5,0-4.1-1.6-4.1-4.2c0-2.5,1.6-4.2,3.7-4.2c2.4,0,3.3,1.7,3.3,4v0.6h-5.5
		c0,1.8,1.3,2.5,2.8,2.5c0.8,0,1.8-0.3,2.6-0.8v1.4C140.7,386,139.8,386.3,138.6,386.3z M140,381.3c0-1.1-0.3-2.2-1.8-2.2
		c-1.4,0-2.1,1.1-2.2,2.2H140z"/>
	<path fill="#FFFFFF" d="M146.8,386.1v-8h1.4v1c0.5-0.6,1.5-1.2,2.6-1.2c1.2,0,2,0.5,2.3,1.7c0.1,0.6,0.2,1.2,0.2,2.1v4.4h-1.5v-4.4
		c0-0.8,0-1.3-0.2-1.7c-0.2-0.5-0.7-0.8-1.3-0.8c-0.8,0-1.7,0.4-2,1.1v5.8H146.8z"/>
	<path fill="#FFFFFF" d="M160.8,386.1v-1c-0.5,0.7-1.3,1.2-2.5,1.2c-1.1,0-1.9-0.4-2.3-1.4c-0.2-0.6-0.3-1.3-0.3-2.4v-4.4h1.5v4.4
		c0,0.7,0,1.3,0.2,1.6c0.2,0.6,0.6,0.9,1.5,0.9c0.8,0,1.5-0.4,1.9-1.1v-5.8h1.5v8H160.8z"/>
	<path fill="#FFFFFF" d="M164.8,386.1v-8h1.5v1c0.5-0.7,1.4-1.2,2.4-1.2c1.1,0,1.8,0.4,2.2,1.3c0.6-0.7,1.5-1.3,2.7-1.3
		c1,0,1.9,0.4,2.2,1.4c0.2,0.6,0.3,1.3,0.3,2.4v4.4h-1.5v-4.4c0-0.7,0-1.2-0.2-1.6c-0.2-0.6-0.6-0.9-1.4-0.9c-0.8,0-1.5,0.4-1.9,1.1
		c0,0.4,0,0.9,0,1.4v4.4h-1.5v-4.4c0-0.7,0-1.3-0.2-1.7c-0.2-0.5-0.6-0.8-1.3-0.8c-0.8,0-1.5,0.4-1.9,1.1v5.8H164.8z"/>
	<path fill="#FFFFFF" d="M178.5,374.2h1.5v4.8c0.6-0.6,1.5-1,2.4-1c2.2,0,3.3,1.5,3.3,4c0,3-1.7,4.4-4,4.4c-1.1,0-2.1-0.2-3.1-0.6
		V374.2z M181.7,385.1c1.3,0,2.4-0.9,2.4-3.1c0-2.1-1.1-2.9-2.2-2.9c-0.9,0-1.6,0.5-2,1v4.6C180.3,385,181,385.1,181.7,385.1z"/>
	<path fill="#FFFFFF" d="M191.1,386.3c-2.5,0-4.1-1.6-4.1-4.2c0-2.5,1.6-4.2,3.7-4.2c2.4,0,3.3,1.7,3.3,4v0.6h-5.5
		c0,1.8,1.3,2.5,2.8,2.5c0.8,0,1.8-0.3,2.6-0.8v1.4C193.2,386,192.3,386.3,191.1,386.3z M192.5,381.3c0-1.1-0.3-2.2-1.8-2.2
		c-1.4,0-2.1,1.1-2.2,2.2H192.5z"/>
	<path fill="#FFFFFF" d="M195.9,386.1v-8h1.4v1.2c0.4-0.9,1.2-1.4,2.1-1.4c0.3,0,0.7,0,1,0.2v1.4c-0.3-0.2-0.7-0.3-1.1-0.3
		c-0.8,0-1.5,0.4-2,1.4v5.6H195.9z"/>
	<path fill="#FFFFFF" d="M208.6,386.3c-2.4,0-3.8-1.7-3.8-4.2c0-2.5,1.5-4.2,3.8-4.2c2.4,0,3.8,1.7,3.8,4.2
		C212.4,384.7,211,386.3,208.6,386.3z M208.6,379.2c-1.4,0-2.3,1.1-2.3,2.9c0,1.8,0.9,2.9,2.3,2.9c1.5,0,2.3-1,2.3-2.9
		C211,380.3,210.1,379.2,208.6,379.2z"/>
	<path fill="#FFFFFF" d="M214.7,386.1v-6.8h-1.1v-1.2h1.1v-1c0-0.9,0.1-1.4,0.3-1.9c0.4-0.9,1.3-1.2,2.3-1.2c0.5,0,1.1,0.1,1.4,0.3
		v1.3c-0.3-0.2-0.8-0.3-1.2-0.3c-0.5,0-0.9,0.2-1.1,0.6c-0.1,0.3-0.2,0.7-0.2,1.3v1h1.9v1.2h-1.9v6.8H214.7z"/>
	<path fill="#FFFFFF" d="M39.6,407.1v-5.1h-5.4v5.1h-1.6v-11.3h1.6v4.7h5.4v-4.7h1.6v11.3H39.6z"/>
	<path fill="#FFFFFF" d="M44.6,397.5c-0.5,0-0.9-0.4-0.9-0.9c0-0.5,0.4-0.9,0.9-0.9c0.5,0,0.9,0.4,0.9,0.9
		C45.6,397.1,45.2,397.5,44.6,397.5z M43.9,407.1v-8h1.5v8H43.9z"/>
	<path fill="#FFFFFF" d="M47.3,405c0.8,0.7,1.9,1.1,2.8,1.1c1,0,1.4-0.3,1.4-0.9c0-0.4-0.2-0.7-1.3-1.2l-0.9-0.4
		c-1.2-0.5-1.8-1.2-1.8-2.3c0-1.3,1-2.2,2.8-2.2c0.8,0,1.7,0.2,2.4,0.7v1.5c-0.8-0.6-1.8-0.9-2.5-0.9c-1,0-1.2,0.4-1.2,0.8
		c0,0.4,0.1,0.7,1.2,1.2l0.9,0.4c1.3,0.6,1.9,1.1,1.9,2.3c0,1.4-1.1,2.3-2.8,2.3c-1.1,0-2.1-0.3-2.8-0.8V405z"/>
	<path fill="#FFFFFF" d="M54.6,410.9v-11.8h1.4v0.8c0.5-0.6,1.4-1,2.4-1c2.2,0,3.4,1.6,3.4,4c0,2.7-1.4,4.3-3.7,4.3
		c-0.8,0-1.5-0.1-1.9-0.5v4.1H54.6z M57.8,406.1c1.7,0,2.4-1.3,2.4-3c0-1.8-0.8-2.9-2.2-2.9c-0.8,0-1.6,0.5-1.9,1v4.3
		C56.4,405.9,57.3,406.1,57.8,406.1z"/>
	<path fill="#FFFFFF" d="M68,407.1v-0.8c-0.6,0.6-1.2,1-2.3,1c-1.5,0-2.5-1.1-2.5-2.4c0-0.8,0.3-1.5,1-1.9c0.8-0.5,2.1-0.7,3.8-0.8
		V402c0-0.5-0.1-0.9-0.3-1.2c-0.3-0.4-0.7-0.5-1.3-0.5c-1,0-2,0.3-2.7,1v-1.3c0.8-0.7,1.9-1,2.8-1c1.1,0,2.1,0.3,2.6,1.3
		c0.2,0.5,0.3,1.2,0.3,2.1v4.8H68z M68,403.3c-1.5,0.1-2.2,0.3-2.8,0.6c-0.4,0.2-0.5,0.6-0.5,1c0,0.6,0.4,1.2,1.5,1.2
		c0.8,0,1.4-0.3,1.9-0.8V403.3z"/>
	<path fill="#FFFFFF" d="M71.8,407.1v-8h1.4v1c0.5-0.6,1.5-1.2,2.6-1.2c1.2,0,2,0.5,2.3,1.7c0.1,0.6,0.2,1.2,0.2,2.1v4.4h-1.5v-4.4
		c0-0.8,0-1.3-0.2-1.7c-0.2-0.5-0.7-0.8-1.3-0.8c-0.8,0-1.7,0.4-2,1.1v5.8H71.8z"/>
	<path fill="#FFFFFF" d="M81.5,397.5c-0.5,0-0.9-0.4-0.9-0.9c0-0.5,0.4-0.9,0.9-0.9c0.5,0,0.9,0.4,0.9,0.9
		C82.5,397.1,82.1,397.5,81.5,397.5z M80.8,407.1v-8h1.5v8H80.8z"/>
	<path fill="#FFFFFF" d="M88.1,407.3c-2.4,0-3.9-1.6-3.9-4.2c0-2.5,1.7-4.2,4-4.2c0.8,0,1.7,0.2,2.3,0.6v1.5
		c-0.6-0.5-1.2-0.8-2.1-0.8c-1.7,0-2.7,1.3-2.7,2.8c0,1.9,1.2,2.9,2.6,2.9c0.8,0,1.5-0.3,2.2-0.7v1.4
		C89.8,407.2,89,407.3,88.1,407.3z"/>
	<path fill="#FFFFFF" d="M95.8,407.1v-8h1.5v1c0.5-0.7,1.4-1.2,2.4-1.2c1.1,0,1.8,0.4,2.2,1.3c0.6-0.7,1.5-1.3,2.7-1.3
		c1,0,1.9,0.4,2.2,1.4c0.2,0.6,0.3,1.3,0.3,2.4v4.4h-1.5v-4.4c0-0.7,0-1.2-0.2-1.6c-0.2-0.6-0.6-0.9-1.4-0.9c-0.8,0-1.5,0.4-1.9,1.1
		c0,0.4,0,0.9,0,1.4v4.4h-1.5v-4.4c0-0.7,0-1.3-0.2-1.7c-0.2-0.5-0.6-0.8-1.3-0.8c-0.8,0-1.5,0.4-1.9,1.1v5.8H95.8z"/>
	<path fill="#FFFFFF" d="M110.2,397.5c-0.5,0-0.9-0.4-0.9-0.9c0-0.5,0.4-0.9,0.9-0.9c0.5,0,0.9,0.4,0.9,0.9
		C111.1,397.1,110.7,397.5,110.2,397.5z M109.5,407.1v-8h1.5v8H109.5z"/>
	<path fill="#FFFFFF" d="M113.5,407.1v-8h1.4v1c0.5-0.6,1.5-1.2,2.6-1.2c1.2,0,2,0.5,2.3,1.7c0.1,0.6,0.2,1.2,0.2,2.1v4.4h-1.5v-4.4
		c0-0.8,0-1.3-0.2-1.7c-0.2-0.5-0.7-0.8-1.3-0.8c-0.8,0-1.7,0.4-2,1.1v5.8H113.5z"/>
	<path fill="#FFFFFF" d="M125.7,407.3c-2.4,0-3.8-1.7-3.8-4.2c0-2.5,1.5-4.2,3.8-4.2c2.4,0,3.8,1.7,3.8,4.2
		C129.5,405.7,128,407.3,125.7,407.3z M125.7,400.2c-1.4,0-2.3,1.1-2.3,2.9c0,1.8,0.9,2.9,2.3,2.9c1.5,0,2.3-1,2.3-2.9
		C128,401.3,127.1,400.2,125.7,400.2z"/>
	<path fill="#FFFFFF" d="M131.4,407.1v-8h1.4v1.2c0.4-0.9,1.2-1.4,2.1-1.4c0.3,0,0.7,0,1,0.2v1.4c-0.3-0.2-0.7-0.3-1.1-0.3
		c-0.8,0-1.5,0.4-2,1.4v5.6H131.4z"/>
	<path fill="#FFFFFF" d="M136.5,405c0.8,0.7,1.9,1.1,2.8,1.1c1,0,1.4-0.3,1.4-0.9c0-0.4-0.2-0.7-1.3-1.2l-0.9-0.4
		c-1.2-0.5-1.8-1.2-1.8-2.3c0-1.3,1-2.2,2.8-2.2c0.8,0,1.7,0.2,2.4,0.7v1.5c-0.8-0.6-1.8-0.9-2.5-0.9c-1,0-1.2,0.4-1.2,0.8
		c0,0.4,0.1,0.7,1.2,1.2l0.9,0.4c1.3,0.6,1.9,1.1,1.9,2.3c0,1.4-1.1,2.3-2.8,2.3c-1.1,0-2.1-0.3-2.8-0.8V405z"/>
	<path fill="#FFFFFF" d="M151.6,407.1v-0.8c-0.6,0.6-1.2,1-2.3,1c-1.5,0-2.5-1.1-2.5-2.4c0-0.8,0.3-1.5,1-1.9
		c0.8-0.5,2.1-0.7,3.8-0.8V402c0-0.5-0.1-0.9-0.3-1.2c-0.3-0.4-0.7-0.5-1.3-0.5c-1,0-2,0.3-2.7,1v-1.3c0.8-0.7,1.9-1,2.8-1
		c1.1,0,2.1,0.3,2.6,1.3c0.2,0.5,0.3,1.2,0.3,2.1v4.8H151.6z M151.5,403.3c-1.5,0.1-2.2,0.3-2.8,0.6c-0.4,0.2-0.5,0.6-0.5,1
		c0,0.6,0.4,1.2,1.5,1.2c0.8,0,1.4-0.3,1.9-0.8V403.3z"/>
	<path fill="#FFFFFF" d="M155.4,407.1v-8h1.4v1c0.5-0.6,1.5-1.2,2.6-1.2c1.2,0,2,0.5,2.3,1.7c0.1,0.6,0.2,1.2,0.2,2.1v4.4h-1.5v-4.4
		c0-0.8,0-1.3-0.2-1.7c-0.2-0.5-0.7-0.8-1.3-0.8c-0.8,0-1.7,0.4-2,1.1v5.8H155.4z"/>
	<path fill="#FFFFFF" d="M169.5,407.1v-0.8c-0.6,0.6-1.5,1-2.5,1c-2,0-3.3-1.6-3.3-4c0-2.5,1.3-4.4,3.8-4.4c0.8,0,1.6,0.2,2,0.7
		v-4.4h1.5v12H169.5z M169.5,400.9c-0.3-0.5-1-0.8-1.8-0.8c-1.4,0-2.5,1-2.5,3.1c0,2.2,1.1,2.9,2.2,2.9c0.8,0,1.7-0.4,2-0.9V400.9z"
		/>
	<path fill="#FFFFFF" d="M177,407.1v-12h1.5v12H177z"/>
	<path fill="#FFFFFF" d="M184.2,407.3c-2.4,0-3.8-1.7-3.8-4.2c0-2.5,1.5-4.2,3.8-4.2c2.4,0,3.8,1.7,3.8,4.2
		C188,405.7,186.5,407.3,184.2,407.3z M184.2,400.2c-1.4,0-2.3,1.1-2.3,2.9c0,1.8,0.9,2.9,2.3,2.9c1.5,0,2.3-1,2.3-2.9
		C186.5,401.3,185.7,400.2,184.2,400.2z"/>
	<path fill="#FFFFFF" d="M191.3,407.1l-2.6-8h1.6c1.3,4.5,1.4,4.9,1.6,5.8c0.3-0.9,0.4-1.3,2-5.8h1.1c1.6,4.4,1.8,4.9,2,5.8
		c0.2-0.9,0.4-1.4,1.6-5.8h1.6l-2.6,8h-1.2c-1.7-4.5-1.9-5.1-2.1-5.9c-0.3,0.8-0.5,1.5-2.1,5.9H191.3z"/>
	<path fill="#FFFFFF" d="M205.5,407.1v-8h1.4v1.2c0.4-0.9,1.2-1.4,2.1-1.4c0.3,0,0.7,0,1,0.2v1.4c-0.3-0.2-0.7-0.3-1.1-0.3
		c-0.8,0-1.5,0.4-2,1.4v5.6H205.5z"/>
	<path fill="#FFFFFF" d="M215.4,407.1v-0.8c-0.6,0.6-1.2,1-2.3,1c-1.5,0-2.5-1.1-2.5-2.4c0-0.8,0.3-1.5,1-1.9
		c0.8-0.5,2.1-0.7,3.8-0.8V402c0-0.5-0.1-0.9-0.3-1.2c-0.3-0.4-0.7-0.5-1.3-0.5c-1,0-2,0.3-2.7,1v-1.3c0.8-0.7,1.9-1,2.8-1
		c1.1,0,2.1,0.3,2.6,1.3c0.2,0.5,0.3,1.2,0.3,2.1v4.8H215.4z M215.3,403.3c-1.5,0.1-2.2,0.3-2.8,0.6c-0.4,0.2-0.5,0.6-0.5,1
		c0,0.6,0.4,1.2,1.5,1.2c0.8,0,1.4-0.3,1.9-0.8V403.3z"/>
	<path fill="#FFFFFF" d="M221.6,407.3c-0.9,0-1.7-0.4-2-1.3c-0.2-0.5-0.2-1.2-0.2-1.9v-3.8h-1.1v-1.2h1.1v-2.2h1.5v2.2h2.1v1.2H221
		v3.8c0,0.6,0,0.9,0.1,1.2c0.1,0.4,0.5,0.6,1.1,0.6c0.5,0,0.9-0.1,1.3-0.4v1.3C223,407.2,222.4,407.3,221.6,407.3z"/>
	<path fill="#FFFFFF" d="M228.5,407.3c-2.5,0-4.1-1.6-4.1-4.2c0-2.5,1.6-4.2,3.7-4.2c2.4,0,3.3,1.7,3.3,4v0.6H226
		c0,1.8,1.3,2.5,2.8,2.5c0.8,0,1.8-0.3,2.6-0.8v1.4C230.6,407,229.7,407.3,228.5,407.3z M230,402.3c0-1.1-0.3-2.2-1.8-2.2
		c-1.4,0-2.1,1.1-2.2,2.2H230z"/>
	<path fill="#FFFFFF" d="M232.7,405c0.8,0.7,1.9,1.1,2.8,1.1c1,0,1.4-0.3,1.4-0.9c0-0.4-0.2-0.7-1.3-1.2l-0.9-0.4
		c-1.2-0.5-1.8-1.2-1.8-2.3c0-1.3,1-2.2,2.8-2.2c0.8,0,1.7,0.2,2.4,0.7v1.5c-0.8-0.6-1.8-0.9-2.5-0.9c-1,0-1.2,0.4-1.2,0.8
		c0,0.4,0.1,0.7,1.2,1.2l0.9,0.4c1.3,0.6,1.9,1.1,1.9,2.3c0,1.4-1.1,2.3-2.8,2.3c-1.1,0-2.1-0.3-2.8-0.8V405z"/>
	<path fill="#FFFFFF" d="M35.7,428.3c-2.4,0-3.8-1.7-3.8-4.2c0-2.5,1.5-4.2,3.8-4.2c2.4,0,3.8,1.7,3.8,4.2
		C39.5,426.7,38,428.3,35.7,428.3z M35.7,421.2c-1.4,0-2.3,1.1-2.3,2.9c0,1.8,0.9,2.9,2.3,2.9c1.5,0,2.3-1,2.3-2.9
		C38,422.3,37.2,421.2,35.7,421.2z"/>
	<path fill="#FFFFFF" d="M41.7,428.1v-6.8h-1.1v-1.2h1.1v-1c0-0.9,0.1-1.4,0.3-1.9c0.4-0.9,1.3-1.2,2.3-1.2c0.5,0,1.1,0.1,1.4,0.3
		v1.3c-0.3-0.2-0.8-0.3-1.2-0.3c-0.5,0-0.9,0.2-1.1,0.6c-0.1,0.3-0.2,0.7-0.2,1.3v1h1.9v1.2h-1.9v6.8H41.7z"/>
	<path fill="#FFFFFF" d="M52.5,428.3c-0.9,0-1.7-0.4-2-1.3c-0.2-0.5-0.2-1.2-0.2-1.9v-3.8h-1.1v-1.2h1.1v-2.2h1.5v2.2h2.1v1.2h-2.1
		v3.8c0,0.6,0,0.9,0.1,1.2c0.1,0.4,0.5,0.6,1.1,0.6c0.5,0,0.9-0.1,1.3-0.4v1.3C53.8,428.2,53.2,428.3,52.5,428.3z"/>
	<path fill="#FFFFFF" d="M60.8,428.1v-1c-0.5,0.7-1.3,1.2-2.5,1.2c-1.1,0-1.9-0.4-2.3-1.4c-0.2-0.6-0.3-1.3-0.3-2.4v-4.4h1.5v4.4
		c0,0.7,0,1.3,0.2,1.6c0.2,0.6,0.6,0.9,1.5,0.9c0.8,0,1.5-0.4,1.9-1.1v-5.8h1.5v8H60.8z"/>
	<path fill="#FFFFFF" d="M64.8,428.1v-8h1.4v1.2c0.4-0.9,1.2-1.4,2.1-1.4c0.3,0,0.7,0,1,0.2v1.4c-0.3-0.2-0.7-0.3-1.1-0.3
		c-0.8,0-1.5,0.4-2,1.4v5.6H64.8z"/>
	<path fill="#FFFFFF" d="M70.6,428.1v-8H72v1c0.5-0.6,1.5-1.2,2.6-1.2c1.2,0,2,0.5,2.3,1.7c0.1,0.6,0.2,1.2,0.2,2.1v4.4h-1.5v-4.4
		c0-0.8,0-1.3-0.2-1.7c-0.2-0.5-0.7-0.8-1.3-0.8c-0.8,0-1.7,0.4-2,1.1v5.8H70.6z"/>
	<path fill="#FFFFFF" d="M82.8,428.3c-2.4,0-3.8-1.7-3.8-4.2c0-2.5,1.5-4.2,3.8-4.2c2.4,0,3.8,1.7,3.8,4.2
		C86.6,426.7,85.1,428.3,82.8,428.3z M82.8,421.2c-1.4,0-2.3,1.1-2.3,2.9c0,1.8,0.9,2.9,2.3,2.9c1.5,0,2.3-1,2.3-2.9
		C85.1,422.3,84.3,421.2,82.8,421.2z"/>
	<path fill="#FFFFFF" d="M93.5,428.1v-1c-0.5,0.7-1.3,1.2-2.5,1.2c-1.1,0-1.9-0.4-2.3-1.4c-0.2-0.6-0.3-1.3-0.3-2.4v-4.4h1.5v4.4
		c0,0.7,0,1.3,0.2,1.6c0.2,0.6,0.6,0.9,1.5,0.9c0.8,0,1.5-0.4,1.9-1.1v-5.8H95v8H93.5z"/>
	<path fill="#FFFFFF" d="M99.9,428.3c-0.9,0-1.7-0.4-2-1.3c-0.2-0.5-0.2-1.2-0.2-1.9v-3.8h-1.1v-1.2h1.1v-2.2h1.5v2.2h2.1v1.2h-2.1
		v3.8c0,0.6,0,0.9,0.1,1.2c0.1,0.4,0.5,0.6,1.1,0.6c0.5,0,0.9-0.1,1.3-0.4v1.3C101.2,428.2,100.6,428.3,99.9,428.3z"/>
	<path fill="#FFFFFF" d="M102.6,430.6c0.8-1.3,1.3-2.8,1.3-4.8h1.5c0,2-0.6,3.6-1.6,4.8H102.6z"/>
	<path fill="#FFFFFF" d="M113.4,428.3c-0.9,0-1.7-0.4-2-1.3c-0.2-0.5-0.2-1.2-0.2-1.9v-3.8h-1.1v-1.2h1.1v-2.2h1.5v2.2h2.1v1.2h-2.1
		v3.8c0,0.6,0,0.9,0.1,1.2c0.1,0.4,0.5,0.6,1.1,0.6c0.5,0,0.9-0.1,1.3-0.4v1.3C114.8,428.2,114.2,428.3,113.4,428.3z"/>
	<path fill="#FFFFFF" d="M117,428.1v-8h1.4v1.2c0.4-0.9,1.2-1.4,2.1-1.4c0.3,0,0.7,0,1,0.2v1.4c-0.3-0.2-0.7-0.3-1.1-0.3
		c-0.8,0-1.5,0.4-2,1.4v5.6H117z"/>
	<path fill="#FFFFFF" d="M126.9,428.1v-0.8c-0.6,0.6-1.2,1-2.3,1c-1.5,0-2.5-1.1-2.5-2.4c0-0.8,0.3-1.5,1-1.9
		c0.8-0.5,2.1-0.7,3.8-0.8V423c0-0.5-0.1-0.9-0.3-1.2c-0.3-0.4-0.7-0.5-1.3-0.5c-1,0-2,0.3-2.7,1v-1.3c0.8-0.7,1.9-1,2.8-1
		c1.1,0,2.1,0.3,2.6,1.3c0.2,0.5,0.3,1.2,0.3,2.1v4.8H126.9z M126.8,424.3c-1.5,0.1-2.2,0.3-2.8,0.6c-0.4,0.2-0.5,0.6-0.5,1
		c0,0.6,0.4,1.2,1.5,1.2c0.8,0,1.4-0.3,1.9-0.8V424.3z"/>
	<path fill="#FFFFFF" d="M135.9,428.1v-0.8c-0.6,0.6-1.5,1-2.5,1c-2,0-3.3-1.6-3.3-4c0-2.5,1.3-4.4,3.8-4.4c0.8,0,1.6,0.2,2,0.7
		v-4.4h1.5v12H135.9z M135.8,421.9c-0.3-0.5-1-0.8-1.8-0.8c-1.4,0-2.5,1-2.5,3.1c0,2.2,1.1,2.9,2.2,2.9c0.8,0,1.7-0.4,2-0.9V421.9z"
		/>
	<path fill="#FFFFFF" d="M140.6,418.5c-0.5,0-0.9-0.4-0.9-0.9c0-0.5,0.4-0.9,0.9-0.9c0.5,0,0.9,0.4,0.9,0.9
		C141.5,418.1,141.1,418.5,140.6,418.5z M139.8,428.1v-8h1.5v8H139.8z"/>
	<path fill="#FFFFFF" d="M146.3,428.3c-0.9,0-1.7-0.4-2-1.3c-0.2-0.5-0.2-1.2-0.2-1.9v-3.8H143v-1.2h1.1v-2.2h1.5v2.2h2.1v1.2h-2.1
		v3.8c0,0.6,0,0.9,0.1,1.2c0.1,0.4,0.5,0.6,1.1,0.6c0.5,0,0.9-0.1,1.3-0.4v1.3C147.6,428.2,147,428.3,146.3,428.3z"/>
	<path fill="#FFFFFF" d="M150.4,418.5c-0.5,0-0.9-0.4-0.9-0.9c0-0.5,0.4-0.9,0.9-0.9c0.5,0,0.9,0.4,0.9,0.9
		C151.3,418.1,150.9,418.5,150.4,418.5z M149.6,428.1v-8h1.5v8H149.6z"/>
	<path fill="#FFFFFF" d="M156.9,428.3c-2.4,0-3.8-1.7-3.8-4.2c0-2.5,1.5-4.2,3.8-4.2c2.4,0,3.8,1.7,3.8,4.2
		C160.6,426.7,159.2,428.3,156.9,428.3z M156.9,421.2c-1.4,0-2.3,1.1-2.3,2.9c0,1.8,0.9,2.9,2.3,2.9c1.5,0,2.3-1,2.3-2.9
		C159.2,422.3,158.3,421.2,156.9,421.2z"/>
	<path fill="#FFFFFF" d="M162.6,428.1v-8h1.4v1c0.5-0.6,1.5-1.2,2.6-1.2c1.2,0,2,0.5,2.3,1.7c0.1,0.6,0.2,1.2,0.2,2.1v4.4h-1.5v-4.4
		c0-0.8,0-1.3-0.2-1.7c-0.2-0.5-0.7-0.8-1.3-0.8c-0.8,0-1.7,0.4-2,1.1v5.8H162.6z"/>
	<path fill="#FFFFFF" d="M175.8,428.1v-0.8c-0.6,0.6-1.2,1-2.3,1c-1.5,0-2.5-1.1-2.5-2.4c0-0.8,0.3-1.5,1-1.9
		c0.8-0.5,2.1-0.7,3.8-0.8V423c0-0.5-0.1-0.9-0.3-1.2c-0.3-0.4-0.7-0.5-1.3-0.5c-1,0-2,0.3-2.7,1v-1.3c0.8-0.7,1.9-1,2.8-1
		c1.1,0,2.1,0.3,2.6,1.3c0.2,0.5,0.3,1.2,0.3,2.1v4.8H175.8z M175.8,424.3c-1.5,0.1-2.2,0.3-2.8,0.6c-0.4,0.2-0.5,0.6-0.5,1
		c0,0.6,0.4,1.2,1.5,1.2c0.8,0,1.4-0.3,1.9-0.8V424.3z"/>
	<path fill="#FFFFFF" d="M179.7,428.1v-12h1.5v12H179.7z"/>
	<path fill="#FFFFFF" d="M183.7,428.1v-12h1.5v12H183.7z"/>
	<path fill="#FFFFFF" d="M188.1,431.9l1.6-4l-3.3-7.8h1.6c1.9,4.6,2.3,5.5,2.5,6c0.3-0.9,0.5-1.6,2.2-6h1.6l-4.5,11.8H188.1z"/>
	<path fill="#FFFFFF" d="M201.5,428.3c-0.9,0-1.7-0.4-2-1.3c-0.2-0.5-0.2-1.2-0.2-1.9v-3.8h-1.1v-1.2h1.1v-2.2h1.5v2.2h2.1v1.2h-2.1
		v3.8c0,0.6,0,0.9,0.1,1.2c0.1,0.4,0.5,0.6,1.1,0.6c0.5,0,0.9-0.1,1.3-0.4v1.3C202.8,428.2,202.2,428.3,201.5,428.3z"/>
	<path fill="#FFFFFF" d="M204.9,428.1v-12h1.5v4.9c0.5-0.7,1.4-1.2,2.5-1.2c1.1,0,1.9,0.4,2.3,1.4c0.2,0.6,0.3,1.3,0.3,2.4v4.4h-1.5
		v-4.4c0-0.8,0-1.4-0.2-1.8c-0.2-0.5-0.7-0.8-1.4-0.8c-0.8,0-1.6,0.4-2,1.1v5.8H204.9z"/>
	<path fill="#FFFFFF" d="M217.3,428.3c-2.5,0-4.1-1.6-4.1-4.2c0-2.5,1.6-4.2,3.7-4.2c2.4,0,3.3,1.7,3.3,4v0.6h-5.5
		c0,1.8,1.3,2.5,2.8,2.5c0.8,0,1.8-0.3,2.6-0.8v1.4C219.4,428,218.5,428.3,217.3,428.3z M218.7,423.3c0-1.1-0.3-2.2-1.8-2.2
		c-1.4,0-2.1,1.1-2.2,2.2H218.7z"/>
	<path fill="#FFFFFF" d="M39.6,449.1v-5.1h-5.4v5.1h-1.6v-11.3h1.6v4.7h5.4v-4.7h1.6v11.3H39.6z"/>
	<path fill="#FFFFFF" d="M44.6,439.5c-0.5,0-0.9-0.4-0.9-0.9c0-0.5,0.4-0.9,0.9-0.9c0.5,0,0.9,0.4,0.9,0.9
		C45.6,439.1,45.2,439.5,44.6,439.5z M43.9,449.1v-8h1.5v8H43.9z"/>
	<path fill="#FFFFFF" d="M47.3,447c0.8,0.7,1.9,1.1,2.8,1.1c1,0,1.4-0.3,1.4-0.9c0-0.4-0.2-0.7-1.3-1.2l-0.9-0.4
		c-1.2-0.5-1.8-1.2-1.8-2.3c0-1.3,1-2.2,2.8-2.2c0.8,0,1.7,0.2,2.4,0.7v1.5c-0.8-0.6-1.8-0.9-2.5-0.9c-1,0-1.2,0.4-1.2,0.8
		c0,0.4,0.1,0.7,1.2,1.2l0.9,0.4c1.3,0.6,1.9,1.1,1.9,2.3c0,1.4-1.1,2.3-2.8,2.3c-1.1,0-2.1-0.3-2.8-0.8V447z"/>
	<path fill="#FFFFFF" d="M54.6,452.9v-11.8h1.4v0.8c0.5-0.6,1.4-1,2.4-1c2.2,0,3.4,1.6,3.4,4c0,2.7-1.4,4.3-3.7,4.3
		c-0.8,0-1.5-0.1-1.9-0.5v4.1H54.6z M57.8,448.1c1.7,0,2.4-1.3,2.4-3c0-1.8-0.8-2.9-2.2-2.9c-0.8,0-1.6,0.5-1.9,1v4.3
		C56.4,447.9,57.3,448.1,57.8,448.1z"/>
	<path fill="#FFFFFF" d="M68,449.1v-0.8c-0.6,0.6-1.2,1-2.3,1c-1.5,0-2.5-1.1-2.5-2.4c0-0.8,0.3-1.5,1-1.9c0.8-0.5,2.1-0.7,3.8-0.8
		V444c0-0.5-0.1-0.9-0.3-1.2c-0.3-0.4-0.7-0.5-1.3-0.5c-1,0-2,0.3-2.7,1v-1.3c0.8-0.7,1.9-1,2.8-1c1.1,0,2.1,0.3,2.6,1.3
		c0.2,0.5,0.3,1.2,0.3,2.1v4.8H68z M68,445.3c-1.5,0.1-2.2,0.3-2.8,0.6c-0.4,0.2-0.5,0.6-0.5,1c0,0.6,0.4,1.2,1.5,1.2
		c0.8,0,1.4-0.3,1.9-0.8V445.3z"/>
	<path fill="#FFFFFF" d="M71.8,449.1v-8h1.4v1c0.5-0.6,1.5-1.2,2.6-1.2c1.2,0,2,0.5,2.3,1.7c0.1,0.6,0.2,1.2,0.2,2.1v4.4h-1.5v-4.4
		c0-0.8,0-1.3-0.2-1.7c-0.2-0.5-0.7-0.8-1.3-0.8c-0.8,0-1.7,0.4-2,1.1v5.8H71.8z"/>
	<path fill="#FFFFFF" d="M81.5,439.5c-0.5,0-0.9-0.4-0.9-0.9c0-0.5,0.4-0.9,0.9-0.9c0.5,0,0.9,0.4,0.9,0.9
		C82.5,439.1,82.1,439.5,81.5,439.5z M80.8,449.1v-8h1.5v8H80.8z"/>
	<path fill="#FFFFFF" d="M88.1,449.3c-2.4,0-3.9-1.6-3.9-4.2c0-2.5,1.7-4.2,4-4.2c0.8,0,1.7,0.2,2.3,0.6v1.5
		c-0.6-0.5-1.2-0.8-2.1-0.8c-1.7,0-2.7,1.3-2.7,2.8c0,1.9,1.2,2.9,2.6,2.9c0.8,0,1.5-0.3,2.2-0.7v1.4
		C89.8,449.2,89,449.3,88.1,449.3z"/>
	<path fill="#FFFFFF" d="M98,449.1l-3.3-8h1.6c1.8,4.4,2.1,5.2,2.3,6c0.3-0.9,0.6-1.6,2.4-6h1.6l-3.4,8H98z"/>
	<path fill="#FFFFFF" d="M107.1,449.3c-2.4,0-3.8-1.7-3.8-4.2c0-2.5,1.5-4.2,3.8-4.2c2.4,0,3.8,1.7,3.8,4.2
		C110.9,447.7,109.4,449.3,107.1,449.3z M107.1,442.2c-1.4,0-2.3,1.1-2.3,2.9c0,1.8,0.9,2.9,2.3,2.9c1.5,0,2.3-1,2.3-2.9
		C109.4,443.3,108.6,442.2,107.1,442.2z"/>
	<path fill="#FFFFFF" d="M115.2,449.3c-0.9,0-1.7-0.4-2-1.3c-0.2-0.5-0.2-1.2-0.2-1.9v-3.8H112v-1.2h1.1v-2.2h1.5v2.2h2.1v1.2h-2.1
		v3.8c0,0.6,0,0.9,0.1,1.2c0.1,0.4,0.5,0.6,1.1,0.6c0.5,0,0.9-0.1,1.3-0.4v1.3C116.6,449.2,116,449.3,115.2,449.3z"/>
	<path fill="#FFFFFF" d="M122.1,449.3c-2.5,0-4.1-1.6-4.1-4.2c0-2.5,1.6-4.2,3.7-4.2c2.4,0,3.3,1.7,3.3,4v0.6h-5.5
		c0,1.8,1.3,2.5,2.8,2.5c0.8,0,1.8-0.3,2.6-0.8v1.4C124.2,449,123.3,449.3,122.1,449.3z M123.6,444.3c0-1.1-0.3-2.2-1.8-2.2
		c-1.4,0-2.1,1.1-2.2,2.2H123.6z"/>
	<path fill="#FFFFFF" d="M130.4,449.1v-12h1.5v4.9c0.5-0.7,1.4-1.2,2.5-1.2c1.1,0,1.9,0.4,2.3,1.4c0.2,0.6,0.3,1.3,0.3,2.4v4.4h-1.5
		v-4.4c0-0.8,0-1.4-0.2-1.8c-0.2-0.5-0.7-0.8-1.4-0.8c-0.8,0-1.6,0.4-2,1.1v5.8H130.4z"/>
	<path fill="#FFFFFF" d="M143.6,449.1v-0.8c-0.6,0.6-1.2,1-2.3,1c-1.5,0-2.5-1.1-2.5-2.4c0-0.8,0.3-1.5,1-1.9
		c0.8-0.5,2.1-0.7,3.8-0.8V444c0-0.5-0.1-0.9-0.3-1.2c-0.3-0.4-0.7-0.5-1.3-0.5c-1,0-2,0.3-2.7,1v-1.3c0.8-0.7,1.9-1,2.8-1
		c1.1,0,2.1,0.3,2.6,1.3c0.2,0.5,0.3,1.2,0.3,2.1v4.8H143.6z M143.5,445.3c-1.5,0.1-2.2,0.3-2.8,0.6c-0.4,0.2-0.5,0.6-0.5,1
		c0,0.6,0.4,1.2,1.5,1.2c0.8,0,1.4-0.3,1.9-0.8V445.3z"/>
	<path fill="#FFFFFF" d="M146.8,447c0.8,0.7,1.9,1.1,2.8,1.1c1,0,1.4-0.3,1.4-0.9c0-0.4-0.2-0.7-1.3-1.2l-0.9-0.4
		c-1.2-0.5-1.8-1.2-1.8-2.3c0-1.3,1-2.2,2.8-2.2c0.8,0,1.7,0.2,2.4,0.7v1.5c-0.8-0.6-1.8-0.9-2.5-0.9c-1,0-1.2,0.4-1.2,0.8
		c0,0.4,0.1,0.7,1.2,1.2l0.9,0.4c1.3,0.6,1.9,1.1,1.9,2.3c0,1.4-1.1,2.3-2.8,2.3c-1.1,0-2.1-0.3-2.8-0.8V447z"/>
	<path fill="#FFFFFF" d="M157.6,449.1v-12h1.5v4.9c0.5-0.7,1.4-1.2,2.5-1.2c1.1,0,1.9,0.4,2.3,1.4c0.2,0.6,0.3,1.3,0.3,2.4v4.4h-1.5
		v-4.4c0-0.8,0-1.4-0.2-1.8c-0.2-0.5-0.7-0.8-1.4-0.8c-0.8,0-1.6,0.4-2,1.1v5.8H157.6z"/>
	<path fill="#FFFFFF" d="M170.8,449.1v-0.8c-0.6,0.6-1.2,1-2.3,1c-1.5,0-2.5-1.1-2.5-2.4c0-0.8,0.3-1.5,1-1.9
		c0.8-0.5,2.1-0.7,3.8-0.8V444c0-0.5-0.1-0.9-0.3-1.2c-0.3-0.4-0.7-0.5-1.3-0.5c-1,0-2,0.3-2.7,1v-1.3c0.8-0.7,1.9-1,2.8-1
		c1.1,0,2.1,0.3,2.6,1.3c0.2,0.5,0.3,1.2,0.3,2.1v4.8H170.8z M170.7,445.3c-1.5,0.1-2.2,0.3-2.8,0.6c-0.4,0.2-0.5,0.6-0.5,1
		c0,0.6,0.4,1.2,1.5,1.2c0.8,0,1.4-0.3,1.9-0.8V445.3z"/>
	<path fill="#FFFFFF" d="M179.8,449.1v-0.8c-0.6,0.6-1.5,1-2.5,1c-2,0-3.3-1.6-3.3-4c0-2.5,1.3-4.4,3.8-4.4c0.8,0,1.6,0.2,2,0.7
		v-4.4h1.5v12H179.8z M179.8,442.9c-0.3-0.5-1-0.8-1.8-0.8c-1.4,0-2.5,1-2.5,3.1c0,2.2,1.1,2.9,2.2,2.9c0.8,0,1.7-0.4,2-0.9V442.9z"
		/>
	<path fill="#FFFFFF" d="M187.2,449.1v-12h1.5v12H187.2z"/>
	<path fill="#FFFFFF" d="M191.9,439.5c-0.5,0-0.9-0.4-0.9-0.9c0-0.5,0.4-0.9,0.9-0.9c0.5,0,0.9,0.4,0.9,0.9
		C192.8,439.1,192.4,439.5,191.9,439.5z M191.2,449.1v-8h1.5v8H191.2z"/>
	<path fill="#FFFFFF" d="M197.6,449.3c-0.9,0-1.7-0.4-2-1.3c-0.2-0.5-0.2-1.2-0.2-1.9v-3.8h-1.1v-1.2h1.1v-2.2h1.5v2.2h2.1v1.2h-2.1
		v3.8c0,0.6,0,0.9,0.1,1.2c0.1,0.4,0.5,0.6,1.1,0.6c0.5,0,0.9-0.1,1.3-0.4v1.3C198.9,449.2,198.3,449.3,197.6,449.3z"/>
	<path fill="#FFFFFF" d="M203.4,449.3c-0.9,0-1.7-0.4-2-1.3c-0.2-0.5-0.2-1.2-0.2-1.9v-3.8h-1.1v-1.2h1.1v-2.2h1.5v2.2h2.1v1.2h-2.1
		v3.8c0,0.6,0,0.9,0.1,1.2c0.1,0.4,0.5,0.6,1.1,0.6c0.5,0,0.9-0.1,1.3-0.4v1.3C204.7,449.2,204.1,449.3,203.4,449.3z"/>
	<path fill="#FFFFFF" d="M206.8,449.1v-12h1.5v12H206.8z"/>
	<path fill="#FFFFFF" d="M214.3,449.3c-2.5,0-4.1-1.6-4.1-4.2c0-2.5,1.6-4.2,3.7-4.2c2.4,0,3.3,1.7,3.3,4v0.6h-5.5
		c0,1.8,1.3,2.5,2.8,2.5c0.8,0,1.8-0.3,2.6-0.8v1.4C216.4,449,215.5,449.3,214.3,449.3z M215.7,444.3c0-1.1-0.3-2.2-1.8-2.2
		c-1.4,0-2.1,1.1-2.2,2.2H215.7z"/>
	<path fill="#FFFFFF" d="M33.2,460.5c-0.5,0-0.9-0.4-0.9-0.9c0-0.5,0.4-0.9,0.9-0.9c0.5,0,0.9,0.4,0.9,0.9
		C34.1,460.1,33.7,460.5,33.2,460.5z M32.4,470.1v-8h1.5v8H32.4z"/>
	<path fill="#FFFFFF" d="M36.4,470.1v-8h1.5v1c0.5-0.7,1.4-1.2,2.4-1.2c1.1,0,1.8,0.4,2.2,1.3c0.6-0.7,1.5-1.3,2.7-1.3
		c1,0,1.9,0.4,2.2,1.4c0.2,0.6,0.3,1.3,0.3,2.4v4.4h-1.5v-4.4c0-0.7,0-1.2-0.2-1.6c-0.2-0.6-0.6-0.9-1.4-0.9c-0.8,0-1.5,0.4-1.9,1.1
		c0,0.4,0,0.9,0,1.4v4.4h-1.5v-4.4c0-0.7,0-1.3-0.2-1.7c-0.2-0.5-0.6-0.8-1.3-0.8c-0.8,0-1.5,0.4-1.9,1.1v5.8H36.4z"/>
	<path fill="#FFFFFF" d="M50.1,473.9v-11.8h1.4v0.8c0.5-0.6,1.4-1,2.4-1c2.2,0,3.4,1.6,3.4,4c0,2.7-1.4,4.3-3.7,4.3
		c-0.8,0-1.5-0.1-1.9-0.5v4.1H50.1z M53.3,469.1c1.7,0,2.4-1.3,2.4-3c0-1.8-0.8-2.9-2.2-2.9c-0.8,0-1.6,0.5-1.9,1v4.3
		C51.9,468.9,52.8,469.1,53.3,469.1z"/>
	<path fill="#FFFFFF" d="M63.5,470.1v-0.8c-0.6,0.6-1.2,1-2.3,1c-1.5,0-2.5-1.1-2.5-2.4c0-0.8,0.3-1.5,1-1.9
		c0.8-0.5,2.1-0.7,3.8-0.8V465c0-0.5-0.1-0.9-0.3-1.2c-0.3-0.4-0.7-0.5-1.3-0.5c-1,0-2,0.3-2.7,1v-1.3c0.8-0.7,1.9-1,2.8-1
		c1.1,0,2.1,0.3,2.6,1.3c0.2,0.5,0.3,1.2,0.3,2.1v4.8H63.5z M63.5,466.3c-1.5,0.1-2.2,0.3-2.8,0.6c-0.4,0.2-0.5,0.6-0.5,1
		c0,0.6,0.4,1.2,1.5,1.2c0.8,0,1.4-0.3,1.9-0.8V466.3z"/>
	<path fill="#FFFFFF" d="M70.7,470.3c-2.4,0-3.9-1.6-3.9-4.2c0-2.5,1.7-4.2,4-4.2c0.8,0,1.7,0.2,2.3,0.6v1.5
		c-0.6-0.5-1.2-0.8-2.1-0.8c-1.7,0-2.7,1.3-2.7,2.8c0,1.9,1.2,2.9,2.6,2.9c0.8,0,1.5-0.3,2.2-0.7v1.4
		C72.4,470.2,71.6,470.3,70.7,470.3z"/>
	<path fill="#FFFFFF" d="M77.3,470.3c-0.9,0-1.7-0.4-2-1.3c-0.2-0.5-0.2-1.2-0.2-1.9v-3.8h-1.1v-1.2h1.1v-2.2h1.5v2.2h2.1v1.2h-2.1
		v3.8c0,0.6,0,0.9,0.1,1.2c0.1,0.4,0.5,0.6,1.1,0.6c0.5,0,0.9-0.1,1.3-0.4v1.3C78.6,470.2,78,470.3,77.3,470.3z"/>
	<path fill="#FFFFFF" d="M81.8,470.3c-0.6,0-1-0.5-1-1c0-0.6,0.4-1.1,1.1-1.1c0.6,0,1,0.4,1,1S82.4,470.3,81.8,470.3z"/>
	<path fill="#FFFFFF" d="M88.3,458.8h3.2c0.8,0,1.6,0.1,2.2,0.2c1.2,0.4,1.8,1.3,1.8,2.5c0,1.2-0.5,2-1.6,2.6
		c1.7,0.3,2.4,1.2,2.4,2.8c0,1.2-0.5,2.2-1.7,2.8c-0.6,0.3-1.6,0.4-2.8,0.4h-3.6V458.8z M91.6,463.7c0.6,0,1.2,0,1.6-0.3
		c0.5-0.4,0.8-1,0.8-1.5c0-0.6-0.3-1.1-0.7-1.4c-0.4-0.2-0.9-0.3-1.6-0.3H90v3.4H91.6z M91.9,468.7c0.8,0,1.4,0,1.8-0.2
		c0.7-0.3,1-0.8,1-1.7c0-0.8-0.5-1.5-1.3-1.7c-0.4-0.1-1-0.1-1.6-0.1H90v3.8H91.9z"/>
	<path fill="#FFFFFF" d="M103.4,470.1v-1c-0.5,0.7-1.3,1.2-2.5,1.2c-1.1,0-1.9-0.4-2.3-1.4c-0.2-0.6-0.3-1.3-0.3-2.4v-4.4h1.5v4.4
		c0,0.7,0,1.3,0.2,1.6c0.2,0.6,0.6,0.9,1.5,0.9c0.8,0,1.5-0.4,1.9-1.1v-5.8h1.5v8H103.4z"/>
	<path fill="#FFFFFF" d="M109.8,470.3c-0.9,0-1.7-0.4-2-1.3c-0.2-0.5-0.2-1.2-0.2-1.9v-3.8h-1.1v-1.2h1.1v-2.2h1.5v2.2h2.1v1.2h-2.1
		v3.8c0,0.6,0,0.9,0.1,1.2c0.1,0.4,0.5,0.6,1.1,0.6c0.5,0,0.9-0.1,1.3-0.4v1.3C111.1,470.2,110.5,470.3,109.8,470.3z"/>
	<path fill="#FFFFFF" d="M118.2,470.1l-2.6-8h1.6c1.3,4.5,1.4,4.9,1.6,5.8c0.3-0.9,0.4-1.3,2-5.8h1.1c1.6,4.4,1.8,4.9,2,5.8
		c0.2-0.9,0.4-1.4,1.6-5.8h1.6l-2.6,8h-1.2c-1.7-4.5-1.9-5.1-2.1-5.9c-0.3,0.8-0.5,1.5-2.1,5.9H118.2z"/>
	<path fill="#FFFFFF" d="M129.6,460.5c-0.5,0-0.9-0.4-0.9-0.9c0-0.5,0.4-0.9,0.9-0.9c0.5,0,0.9,0.4,0.9,0.9
		C130.5,460.1,130.1,460.5,129.6,460.5z M128.9,470.1v-8h1.5v8H128.9z"/>
	<path fill="#FFFFFF" d="M135.3,470.3c-0.9,0-1.7-0.4-2-1.3c-0.2-0.5-0.2-1.2-0.2-1.9v-3.8h-1.1v-1.2h1.1v-2.2h1.5v2.2h2.1v1.2h-2.1
		v3.8c0,0.6,0,0.9,0.1,1.2c0.1,0.4,0.5,0.6,1.1,0.6c0.5,0,0.9-0.1,1.3-0.4v1.3C136.6,470.2,136,470.3,135.3,470.3z"/>
	<path fill="#FFFFFF" d="M138.7,470.1v-12h1.5v4.9c0.5-0.7,1.4-1.2,2.5-1.2c1.1,0,1.9,0.4,2.3,1.4c0.2,0.6,0.3,1.3,0.3,2.4v4.4h-1.5
		v-4.4c0-0.8,0-1.4-0.2-1.8c-0.2-0.5-0.7-0.8-1.4-0.8c-0.8,0-1.6,0.4-2,1.1v5.8H138.7z"/>
	<path fill="#FFFFFF" d="M153.5,470.3c-0.9,0-1.7-0.4-2-1.3c-0.2-0.5-0.2-1.2-0.2-1.9v-3.8h-1.1v-1.2h1.1v-2.2h1.5v2.2h2.1v1.2h-2.1
		v3.8c0,0.6,0,0.9,0.1,1.2c0.1,0.4,0.5,0.6,1.1,0.6c0.5,0,0.9-0.1,1.3-0.4v1.3C154.8,470.2,154.2,470.3,153.5,470.3z"/>
	<path fill="#FFFFFF" d="M156.8,470.1v-12h1.5v4.9c0.5-0.7,1.4-1.2,2.5-1.2c1.1,0,1.9,0.4,2.3,1.4c0.2,0.6,0.3,1.3,0.3,2.4v4.4h-1.5
		v-4.4c0-0.8,0-1.4-0.2-1.8c-0.2-0.5-0.7-0.8-1.4-0.8c-0.8,0-1.6,0.4-2,1.1v5.8H156.8z"/>
	<path fill="#FFFFFF" d="M169.2,470.3c-2.5,0-4.1-1.6-4.1-4.2c0-2.5,1.6-4.2,3.7-4.2c2.4,0,3.3,1.7,3.3,4v0.6h-5.5
		c0,1.8,1.3,2.5,2.8,2.5c0.8,0,1.8-0.3,2.6-0.8v1.4C171.3,470,170.4,470.3,169.2,470.3z M170.7,465.3c0-1.1-0.3-2.2-1.8-2.2
		c-1.4,0-2.1,1.1-2.2,2.2H170.7z"/>
	<path fill="#FFFFFF" d="M181,470.3c-2.5,0-4.1-1.6-4.1-4.2c0-2.5,1.6-4.2,3.7-4.2c2.4,0,3.3,1.7,3.3,4v0.6h-5.5
		c0,1.8,1.3,2.5,2.8,2.5c0.8,0,1.8-0.3,2.6-0.8v1.4C183.1,470,182.2,470.3,181,470.3z M182.4,465.3c0-1.1-0.3-2.2-1.8-2.2
		c-1.4,0-2.1,1.1-2.2,2.2H182.4z"/>
	<path fill="#FFFFFF" d="M184.6,470.1l2.9-4.1l-2.7-3.9h1.8c1.2,1.8,1.6,2.4,2,3c0.4-0.5,0.8-1.2,2-3h1.7l-2.8,3.8l3,4.2h-1.8
		c-1.4-2-1.8-2.6-2.2-3.2c-0.4,0.5-0.8,1.1-2.2,3.2H184.6z"/>
	<path fill="#FFFFFF" d="M194,473.9v-11.8h1.4v0.8c0.5-0.6,1.4-1,2.4-1c2.2,0,3.4,1.6,3.4,4c0,2.7-1.4,4.3-3.7,4.3
		c-0.8,0-1.5-0.1-1.9-0.5v4.1H194z M197.2,469.1c1.7,0,2.4-1.3,2.4-3c0-1.8-0.8-2.9-2.2-2.9c-0.8,0-1.6,0.5-1.9,1v4.3
		C195.8,468.9,196.6,469.1,197.2,469.1z"/>
	<path fill="#FFFFFF" d="M206.6,470.3c-2.5,0-4.1-1.6-4.1-4.2c0-2.5,1.6-4.2,3.7-4.2c2.4,0,3.3,1.7,3.3,4v0.6H204
		c0,1.8,1.3,2.5,2.8,2.5c0.8,0,1.8-0.3,2.6-0.8v1.4C208.7,470,207.8,470.3,206.6,470.3z M208,465.3c0-1.1-0.3-2.2-1.8-2.2
		c-1.4,0-2.1,1.1-2.2,2.2H208z"/>
	<path fill="#FFFFFF" d="M214.7,470.3c-2.4,0-3.9-1.6-3.9-4.2c0-2.5,1.7-4.2,4-4.2c0.8,0,1.7,0.2,2.3,0.6v1.5
		c-0.6-0.5-1.2-0.8-2.1-0.8c-1.7,0-2.7,1.3-2.7,2.8c0,1.9,1.2,2.9,2.6,2.9c0.8,0,1.5-0.3,2.2-0.7v1.4
		C216.4,470.2,215.6,470.3,214.7,470.3z"/>
	<path fill="#FFFFFF" d="M221.4,470.3c-0.9,0-1.7-0.4-2-1.3c-0.2-0.5-0.2-1.2-0.2-1.9v-3.8h-1.1v-1.2h1.1v-2.2h1.5v2.2h2.1v1.2h-2.1
		v3.8c0,0.6,0,0.9,0.1,1.2c0.1,0.4,0.5,0.6,1.1,0.6c0.5,0,0.9-0.1,1.3-0.4v1.3C222.7,470.2,222.1,470.3,221.4,470.3z"/>
	<path fill="#FFFFFF" d="M228.2,470.3c-2.5,0-4.1-1.6-4.1-4.2c0-2.5,1.6-4.2,3.7-4.2c2.4,0,3.3,1.7,3.3,4v0.6h-5.5
		c0,1.8,1.3,2.5,2.8,2.5c0.8,0,1.8-0.3,2.6-0.8v1.4C230.3,470,229.4,470.3,228.2,470.3z M229.7,465.3c0-1.1-0.3-2.2-1.8-2.2
		c-1.4,0-2.1,1.1-2.2,2.2H229.7z"/>
	<path fill="#FFFFFF" d="M238.2,470.1v-0.8c-0.6,0.6-1.5,1-2.5,1c-2,0-3.3-1.6-3.3-4c0-2.5,1.3-4.4,3.8-4.4c0.8,0,1.6,0.2,2,0.7
		v-4.4h1.5v12H238.2z M238.2,463.9c-0.3-0.5-1-0.8-1.8-0.8c-1.4,0-2.5,1-2.5,3.1c0,2.2,1.1,2.9,2.2,2.9c0.8,0,1.7-0.4,2-0.9V463.9z"
		/>
	<path fill="#FFFFFF" d="M31.7,491.1c2-2.3,3.3-3.8,4.2-5c0.8-1.1,1.2-2,1.2-2.8c0-1.4-0.8-2-2.1-2c-1,0-1.9,0.4-2.8,1.2V481
		c0.9-0.7,2-1.1,3.1-1.1c2.2,0,3.3,1.2,3.3,3.2c0,1.1-0.3,2.1-1.3,3.5c-0.7,1-1.5,1.9-2.7,3.2c0.3,0,0.9,0,4.6,0v1.4H31.7z"/>
	<path fill="#FFFFFF" d="M44.4,491.3c-2.8,0-3.8-2.7-3.8-5.6c0-3.1,1.2-5.8,3.9-5.8c3,0,3.8,2.7,3.8,5.8
		C48.3,488.7,47.1,491.3,44.4,491.3z M44.4,481.4c-1.1,0-2.3,0.9-2.3,4.4c0,3.5,1.3,4.2,2.3,4.2s2.3-0.6,2.3-4.2
		C46.7,482.2,45.7,481.4,44.4,481.4z"/>
	<path fill="#FFFFFF" d="M52.8,491.1V482l-2.2,1.1v-1.6l3.8-1.7v11.3H52.8z"/>
	<path fill="#FFFFFF" d="M62.7,484.1c1.8,0,3.1,1.1,3.1,3.4c0,2.4-1.4,3.8-3.6,3.8c-2.2,0-3.9-1.5-3.9-5.4c0-4.2,2.1-6,4.5-6
		c0.9,0,1.7,0.1,2.3,0.6v1.6c-0.7-0.6-1.5-0.7-2.2-0.7c-2.2,0-3.1,1.6-3.1,4.3C60.4,484.7,61.4,484.1,62.7,484.1z M60.4,488.8
		c0.3,0.7,1,1.2,1.9,1.2c1.1,0,2.1-0.8,2.1-2.4c0-1.6-0.9-2.2-2-2.2c-1.2,0-2.1,0.8-2.3,1.7C60.1,487.6,60.2,488.3,60.4,488.8z"/>
	<path fill="#FFFFFF" d="M71.1,479.2h1.5v4.8c0.6-0.6,1.5-1,2.4-1c2.2,0,3.3,1.5,3.3,4c0,3-1.7,4.4-4,4.4c-1.1,0-2.1-0.2-3.1-0.6
		V479.2z M74.4,490.1c1.3,0,2.4-0.9,2.4-3.1c0-2.1-1.1-2.9-2.2-2.9c-0.9,0-1.6,0.5-2,1v4.6C73,490,73.7,490.1,74.4,490.1z"/>
	<path fill="#FFFFFF" d="M84.6,491.1v-0.8c-0.6,0.6-1.2,1-2.3,1c-1.5,0-2.5-1.1-2.5-2.4c0-0.8,0.3-1.5,1-1.9
		c0.8-0.5,2.1-0.7,3.8-0.8V486c0-0.5-0.1-0.9-0.3-1.2c-0.3-0.4-0.7-0.5-1.3-0.5c-1,0-2,0.3-2.7,1v-1.3c0.8-0.7,1.9-1,2.8-1
		c1.1,0,2.1,0.3,2.6,1.3c0.2,0.5,0.3,1.2,0.3,2.1v4.8H84.6z M84.5,487.3c-1.5,0.1-2.2,0.3-2.8,0.6c-0.4,0.2-0.5,0.6-0.5,1
		c0,0.6,0.4,1.2,1.5,1.2c0.8,0,1.4-0.3,1.9-0.8V487.3z"/>
	<path fill="#FFFFFF" d="M90.8,491.3c-0.9,0-1.7-0.4-2-1.3c-0.2-0.5-0.2-1.2-0.2-1.9v-3.8h-1.1v-1.2h1.1v-2.2h1.5v2.2h2.1v1.2h-2.1
		v3.8c0,0.6,0,0.9,0.1,1.2c0.1,0.4,0.5,0.6,1.1,0.6c0.5,0,0.9-0.1,1.3-0.4v1.3C92.2,491.2,91.5,491.3,90.8,491.3z"/>
	<path fill="#FFFFFF" d="M96.6,491.3c-0.9,0-1.7-0.4-2-1.3c-0.2-0.5-0.2-1.2-0.2-1.9v-3.8h-1.1v-1.2h1.1v-2.2h1.5v2.2h2.1v1.2h-2.1
		v3.8c0,0.6,0,0.9,0.1,1.2c0.1,0.4,0.5,0.6,1.1,0.6c0.5,0,0.9-0.1,1.3-0.4v1.3C98,491.2,97.4,491.3,96.6,491.3z"/>
	<path fill="#FFFFFF" d="M100,491.1v-12h1.5v12H100z"/>
	<path fill="#FFFFFF" d="M107.5,491.3c-2.5,0-4.1-1.6-4.1-4.2c0-2.5,1.6-4.2,3.7-4.2c2.4,0,3.3,1.7,3.3,4v0.6H105
		c0,1.8,1.3,2.5,2.8,2.5c0.8,0,1.8-0.3,2.6-0.8v1.4C109.6,491,108.7,491.3,107.5,491.3z M108.9,486.3c0-1.1-0.3-2.2-1.8-2.2
		c-1.4,0-2.1,1.1-2.2,2.2H108.9z"/>
	<path fill="#FFFFFF" d="M111.8,485.8c0-1.7,1.3-2.9,3.2-2.9c0.6,0,0.9,0,1.3,0.2h2.6v1.2h-1.3c0.3,0.3,0.5,0.8,0.5,1.4
		c0,1-0.4,1.8-1.3,2.3c-0.6,0.3-1.1,0.4-1.8,0.6c-0.6,0.1-1,0.5-1,0.8c0,0.2,0.1,0.4,0.5,0.5c0.5,0.1,1.6,0.1,2.4,0.2
		c1.6,0.2,2,1.1,2,2.1c0,1.6-1.6,2.8-4.1,2.8c-2,0-3.4-0.8-3.4-2.2c0-1,0.8-1.6,1.9-2c-0.6-0.2-0.9-0.6-0.9-1c0-0.6,0.4-1.1,1.2-1.5
		C112.4,488,111.8,487,111.8,485.8z M116.6,491.6c-0.4-0.1-1.2-0.2-1.9-0.2c-1.2,0-1.9,0.6-1.9,1.3c0,0.7,0.7,1.2,2.1,1.2
		s2.5-0.6,2.5-1.4C117.4,492,117.2,491.8,116.6,491.6z M114.9,484.2c-1,0-1.7,0.7-1.7,1.7c0,0.9,0.7,1.6,1.7,1.6
		c1,0,1.7-0.6,1.7-1.6C116.6,484.8,116.1,484.2,114.9,484.2z"/>
	<path fill="#FFFFFF" d="M120.4,491.1v-8h1.4v1.2c0.4-0.9,1.2-1.4,2.1-1.4c0.3,0,0.7,0,1,0.2v1.4c-0.3-0.2-0.7-0.3-1.1-0.3
		c-0.8,0-1.5,0.4-2,1.4v5.6H120.4z"/>
	<path fill="#FFFFFF" d="M129.3,491.3c-2.4,0-3.8-1.7-3.8-4.2c0-2.5,1.5-4.2,3.8-4.2c2.4,0,3.8,1.7,3.8,4.2
		C133.1,489.7,131.7,491.3,129.3,491.3z M129.4,484.2c-1.4,0-2.3,1.1-2.3,2.9c0,1.8,0.9,2.9,2.3,2.9c1.5,0,2.3-1,2.3-2.9
		C131.7,485.3,130.8,484.2,129.4,484.2z"/>
	<path fill="#FFFFFF" d="M140,491.1v-1c-0.5,0.7-1.3,1.2-2.5,1.2c-1.1,0-1.9-0.4-2.3-1.4c-0.2-0.6-0.3-1.3-0.3-2.4v-4.4h1.5v4.4
		c0,0.7,0,1.3,0.2,1.6c0.2,0.6,0.6,0.9,1.5,0.9c0.8,0,1.5-0.4,1.9-1.1v-5.8h1.5v8H140z"/>
	<path fill="#FFFFFF" d="M144,491.1v-8h1.4v1c0.5-0.6,1.5-1.2,2.6-1.2c1.2,0,2,0.5,2.3,1.7c0.1,0.6,0.2,1.2,0.2,2.1v4.4H149v-4.4
		c0-0.8,0-1.3-0.2-1.7c-0.2-0.5-0.7-0.8-1.3-0.8c-0.8,0-1.7,0.4-2,1.1v5.8H144z"/>
	<path fill="#FFFFFF" d="M158.2,491.1v-0.8c-0.6,0.6-1.5,1-2.5,1c-2,0-3.3-1.6-3.3-4c0-2.5,1.3-4.4,3.8-4.4c0.8,0,1.6,0.2,2,0.7
		v-4.4h1.5v12H158.2z M158.1,484.9c-0.3-0.5-1-0.8-1.8-0.8c-1.4,0-2.5,1-2.5,3.1c0,2.2,1.1,2.9,2.2,2.9c0.8,0,1.7-0.4,2-0.9V484.9z"
		/>
	<path fill="#FFFFFF" d="M165,489c0.8,0.7,1.9,1.1,2.8,1.1c1,0,1.4-0.3,1.4-0.9c0-0.4-0.2-0.7-1.3-1.2l-0.9-0.4
		c-1.2-0.5-1.8-1.2-1.8-2.3c0-1.3,1-2.2,2.8-2.2c0.8,0,1.7,0.2,2.4,0.7v1.5c-0.8-0.6-1.8-0.9-2.5-0.9c-1,0-1.2,0.4-1.2,0.8
		c0,0.4,0.1,0.7,1.2,1.2l0.9,0.4c1.3,0.6,1.9,1.1,1.9,2.3c0,1.4-1.1,2.3-2.8,2.3c-1.1,0-2.1-0.3-2.8-0.8V489z"/>
	<path fill="#FFFFFF" d="M174.7,491.3c-0.9,0-1.7-0.4-2-1.3c-0.2-0.5-0.2-1.2-0.2-1.9v-3.8h-1.1v-1.2h1.1v-2.2h1.5v2.2h2.1v1.2h-2.1
		v3.8c0,0.6,0,0.9,0.1,1.2c0.1,0.4,0.5,0.6,1.1,0.6c0.5,0,0.9-0.1,1.3-0.4v1.3C176.1,491.2,175.5,491.3,174.7,491.3z"/>
	<path fill="#FFFFFF" d="M182.4,491.1v-0.8c-0.6,0.6-1.2,1-2.3,1c-1.5,0-2.5-1.1-2.5-2.4c0-0.8,0.3-1.5,1-1.9
		c0.8-0.5,2.1-0.7,3.8-0.8V486c0-0.5-0.1-0.9-0.3-1.2c-0.3-0.4-0.7-0.5-1.3-0.5c-1,0-2,0.3-2.7,1v-1.3c0.8-0.7,1.9-1,2.8-1
		c1.1,0,2.1,0.3,2.6,1.3c0.2,0.5,0.3,1.2,0.3,2.1v4.8H182.4z M182.3,487.3c-1.5,0.1-2.2,0.3-2.8,0.6c-0.4,0.2-0.5,0.6-0.5,1
		c0,0.6,0.4,1.2,1.5,1.2c0.8,0,1.4-0.3,1.9-0.8V487.3z"/>
	<path fill="#FFFFFF" d="M188.6,491.3c-0.9,0-1.7-0.4-2-1.3c-0.2-0.5-0.2-1.2-0.2-1.9v-3.8h-1.1v-1.2h1.1v-2.2h1.5v2.2h2.1v1.2h-2.1
		v3.8c0,0.6,0,0.9,0.1,1.2c0.1,0.4,0.5,0.6,1.1,0.6c0.5,0,0.9-0.1,1.3-0.4v1.3C189.9,491.2,189.3,491.3,188.6,491.3z"/>
	<path fill="#FFFFFF" d="M195.5,491.3c-2.5,0-4.1-1.6-4.1-4.2c0-2.5,1.6-4.2,3.7-4.2c2.4,0,3.3,1.7,3.3,4v0.6h-5.5
		c0,1.8,1.3,2.5,2.8,2.5c0.8,0,1.8-0.3,2.6-0.8v1.4C197.6,491,196.7,491.3,195.5,491.3z M196.9,486.3c0-1.1-0.3-2.2-1.8-2.2
		c-1.4,0-2.1,1.1-2.2,2.2H196.9z"/>
	<path fill="#FFFFFF" d="M199.7,489c0.8,0.7,1.9,1.1,2.8,1.1c1,0,1.4-0.3,1.4-0.9c0-0.4-0.2-0.7-1.3-1.2l-0.9-0.4
		c-1.2-0.5-1.8-1.2-1.8-2.3c0-1.3,1-2.2,2.8-2.2c0.8,0,1.7,0.2,2.4,0.7v1.5c-0.8-0.6-1.8-0.9-2.5-0.9c-1,0-1.2,0.4-1.2,0.8
		c0,0.4,0.1,0.7,1.2,1.2l0.9,0.4c1.3,0.6,1.9,1.1,1.9,2.3c0,1.4-1.1,2.3-2.8,2.3c-1.1,0-2.1-0.3-2.8-0.8V489z"/>
	<path fill="#FFFFFF" d="M210.5,491.1v-12h1.5v4.9c0.5-0.7,1.4-1.2,2.5-1.2c1.1,0,1.9,0.4,2.3,1.4c0.2,0.6,0.3,1.3,0.3,2.4v4.4h-1.5
		v-4.4c0-0.8,0-1.4-0.2-1.8c-0.2-0.5-0.7-0.8-1.4-0.8c-0.8,0-1.6,0.4-2,1.1v5.8H210.5z"/>
	<path fill="#FFFFFF" d="M223.7,491.1v-0.8c-0.6,0.6-1.2,1-2.3,1c-1.5,0-2.5-1.1-2.5-2.4c0-0.8,0.3-1.5,1-1.9
		c0.8-0.5,2.1-0.7,3.8-0.8V486c0-0.5-0.1-0.9-0.3-1.2c-0.3-0.4-0.7-0.5-1.3-0.5c-1,0-2,0.3-2.7,1v-1.3c0.8-0.7,1.9-1,2.8-1
		c1.1,0,2.1,0.3,2.6,1.3c0.2,0.5,0.3,1.2,0.3,2.1v4.8H223.7z M223.6,487.3c-1.5,0.1-2.2,0.3-2.8,0.6c-0.4,0.2-0.5,0.6-0.5,1
		c0,0.6,0.4,1.2,1.5,1.2c0.8,0,1.4-0.3,1.9-0.8V487.3z"/>
	<path fill="#FFFFFF" d="M229.4,491.1l-3.3-8h1.6c1.8,4.4,2.1,5.2,2.3,6c0.3-0.9,0.6-1.6,2.4-6h1.6l-3.4,8H229.4z"/>
	<path fill="#FFFFFF" d="M236.1,481.5c-0.5,0-0.9-0.4-0.9-0.9c0-0.5,0.4-0.9,0.9-0.9c0.5,0,0.9,0.4,0.9,0.9
		C237,481.1,236.6,481.5,236.1,481.5z M235.3,491.1v-8h1.5v8H235.3z"/>
	<path fill="#FFFFFF" d="M239.3,491.1v-8h1.4v1c0.5-0.6,1.5-1.2,2.6-1.2c1.2,0,2,0.5,2.3,1.7c0.1,0.6,0.2,1.2,0.2,2.1v4.4h-1.5v-4.4
		c0-0.8,0-1.3-0.2-1.7c-0.2-0.5-0.7-0.8-1.3-0.8c-0.8,0-1.7,0.4-2,1.1v5.8H239.3z"/>
	<path fill="#FFFFFF" d="M247.7,485.8c0-1.7,1.3-2.9,3.2-2.9c0.6,0,0.9,0,1.3,0.2h2.6v1.2h-1.3c0.3,0.3,0.5,0.8,0.5,1.4
		c0,1-0.4,1.8-1.3,2.3c-0.6,0.3-1.1,0.4-1.8,0.6c-0.6,0.1-1,0.5-1,0.8c0,0.2,0.1,0.4,0.5,0.5c0.5,0.1,1.6,0.1,2.4,0.2
		c1.6,0.2,2,1.1,2,2.1c0,1.6-1.6,2.8-4.1,2.8c-2,0-3.4-0.8-3.4-2.2c0-1,0.8-1.6,1.9-2c-0.6-0.2-0.9-0.6-0.9-1c0-0.6,0.4-1.1,1.2-1.5
		C248.4,488,247.7,487,247.7,485.8z M252.6,491.6c-0.4-0.1-1.2-0.2-1.9-0.2c-1.2,0-1.9,0.6-1.9,1.3c0,0.7,0.7,1.2,2.1,1.2
		s2.5-0.6,2.5-1.4C253.4,492,253.2,491.8,252.6,491.6z M250.9,484.2c-1,0-1.7,0.7-1.7,1.7c0,0.9,0.7,1.6,1.7,1.6
		c1,0,1.7-0.6,1.7-1.6C252.6,484.8,252.1,484.2,250.9,484.2z"/>
	<path fill="#FFFFFF" d="M36.7,512.1v-0.8c-0.6,0.6-1.2,1-2.3,1c-1.5,0-2.5-1.1-2.5-2.4c0-0.8,0.3-1.5,1-1.9
		c0.8-0.5,2.1-0.7,3.8-0.8V507c0-0.5-0.1-0.9-0.3-1.2c-0.3-0.4-0.7-0.5-1.3-0.5c-1,0-2,0.3-2.7,1v-1.3c0.8-0.7,1.9-1,2.8-1
		c1.1,0,2.1,0.3,2.6,1.3c0.2,0.5,0.3,1.2,0.3,2.1v4.8H36.7z M36.7,508.3c-1.5,0.1-2.2,0.3-2.8,0.6c-0.4,0.2-0.5,0.6-0.5,1
		c0,0.6,0.4,1.2,1.5,1.2c0.8,0,1.4-0.3,1.9-0.8V508.3z"/>
	<path fill="#FFFFFF" d="M44,512.1v-12h1.5v4.9c0.5-0.7,1.4-1.2,2.5-1.2c1.1,0,1.9,0.4,2.3,1.4c0.2,0.6,0.3,1.3,0.3,2.4v4.4H49v-4.4
		c0-0.8,0-1.4-0.2-1.8c-0.2-0.5-0.7-0.8-1.4-0.8c-0.8,0-1.6,0.4-2,1.1v5.8H44z"/>
	<path fill="#FFFFFF" d="M56.4,512.3c-2.5,0-4.1-1.6-4.1-4.2c0-2.5,1.6-4.2,3.7-4.2c2.4,0,3.3,1.7,3.3,4v0.6h-5.5
		c0,1.8,1.3,2.5,2.8,2.5c0.8,0,1.8-0.3,2.6-0.8v1.4C58.5,512,57.6,512.3,56.4,512.3z M57.9,507.3c0-1.1-0.3-2.2-1.8-2.2
		c-1.4,0-2.1,1.1-2.2,2.2H57.9z"/>
	<path fill="#FFFFFF" d="M65.5,512.1v-0.8c-0.6,0.6-1.2,1-2.3,1c-1.5,0-2.5-1.1-2.5-2.4c0-0.8,0.3-1.5,1-1.9
		c0.8-0.5,2.1-0.7,3.8-0.8V507c0-0.5-0.1-0.9-0.3-1.2c-0.3-0.4-0.7-0.5-1.3-0.5c-1,0-2,0.3-2.7,1v-1.3c0.8-0.7,1.9-1,2.8-1
		c1.1,0,2.1,0.3,2.6,1.3c0.2,0.5,0.3,1.2,0.3,2.1v4.8H65.5z M65.5,508.3c-1.5,0.1-2.2,0.3-2.8,0.6c-0.4,0.2-0.5,0.6-0.5,1
		c0,0.6,0.4,1.2,1.5,1.2c0.8,0,1.4-0.3,1.9-0.8V508.3z"/>
	<path fill="#FFFFFF" d="M71.2,512.1l-3.3-8h1.6c1.8,4.4,2.1,5.2,2.3,6c0.3-0.9,0.6-1.6,2.4-6h1.6l-3.4,8H71.2z"/>
	<path fill="#FFFFFF" d="M77.9,515.9l1.6-4l-3.3-7.8h1.6c1.9,4.6,2.3,5.5,2.5,6c0.3-0.9,0.5-1.6,2.2-6H84l-4.5,11.8H77.9z"/>
	<path fill="#FFFFFF" d="M89,512.1v-11.3h1.6v9.8h5v1.5H89z"/>
	<path fill="#FFFFFF" d="M101.6,512.1v-0.8c-0.6,0.6-1.2,1-2.3,1c-1.5,0-2.5-1.1-2.5-2.4c0-0.8,0.3-1.5,1-1.9
		c0.8-0.5,2.1-0.7,3.8-0.8V507c0-0.5-0.1-0.9-0.3-1.2c-0.3-0.4-0.7-0.5-1.3-0.5c-1,0-2,0.3-2.7,1v-1.3c0.8-0.7,1.9-1,2.8-1
		c1.1,0,2.1,0.3,2.6,1.3c0.2,0.5,0.3,1.2,0.3,2.1v4.8H101.6z M101.6,508.3c-1.5,0.1-2.2,0.3-2.8,0.6c-0.4,0.2-0.5,0.6-0.5,1
		c0,0.6,0.4,1.2,1.5,1.2c0.8,0,1.4-0.3,1.9-0.8V508.3z"/>
	<path fill="#FFFFFF" d="M107.9,512.3c-0.9,0-1.7-0.4-2-1.3c-0.2-0.5-0.2-1.2-0.2-1.9v-3.8h-1.1v-1.2h1.1v-2.2h1.5v2.2h2.1v1.2h-2.1
		v3.8c0,0.6,0,0.9,0.1,1.2c0.1,0.4,0.5,0.6,1.1,0.6c0.5,0,0.9-0.1,1.3-0.4v1.3C109.2,512.2,108.6,512.3,107.9,512.3z"/>
	<path fill="#FFFFFF" d="M112,502.5c-0.5,0-0.9-0.4-0.9-0.9c0-0.5,0.4-0.9,0.9-0.9c0.5,0,0.9,0.4,0.9,0.9
		C112.9,502.1,112.5,502.5,112,502.5z M111.2,512.1v-8h1.5v8H111.2z"/>
	<path fill="#FFFFFF" d="M115.2,512.1v-8h1.4v1c0.5-0.6,1.5-1.2,2.6-1.2c1.2,0,2,0.5,2.3,1.7c0.1,0.6,0.2,1.2,0.2,2.1v4.4h-1.5v-4.4
		c0-0.8,0-1.3-0.2-1.7c-0.2-0.5-0.7-0.8-1.3-0.8c-0.8,0-1.7,0.4-2,1.1v5.8H115.2z"/>
	<path fill="#FFFFFF" d="M127.4,512.3c-2.4,0-3.8-1.7-3.8-4.2c0-2.5,1.5-4.2,3.8-4.2c2.4,0,3.8,1.7,3.8,4.2
		C131.2,510.7,129.7,512.3,127.4,512.3z M127.4,505.2c-1.4,0-2.3,1.1-2.3,2.9c0,1.8,0.9,2.9,2.3,2.9c1.5,0,2.3-1,2.3-2.9
		C129.7,506.3,128.9,505.2,127.4,505.2z"/>
	<path fill="#FFFFFF" d="M138.8,512.1l-3.3-8h1.6c1.8,4.4,2.1,5.2,2.3,6c0.3-0.9,0.6-1.6,2.4-6h1.6l-3.4,8H138.8z"/>
	<path fill="#FFFFFF" d="M147.9,512.3c-2.4,0-3.8-1.7-3.8-4.2c0-2.5,1.5-4.2,3.8-4.2c2.4,0,3.8,1.7,3.8,4.2
		C151.7,510.7,150.2,512.3,147.9,512.3z M147.9,505.2c-1.4,0-2.3,1.1-2.3,2.9c0,1.8,0.9,2.9,2.3,2.9c1.5,0,2.3-1,2.3-2.9
		C150.2,506.3,149.4,505.2,147.9,505.2z"/>
	<path fill="#FFFFFF" d="M156,512.3c-0.9,0-1.7-0.4-2-1.3c-0.2-0.5-0.2-1.2-0.2-1.9v-3.8h-1.1v-1.2h1.1v-2.2h1.5v2.2h2.1v1.2h-2.1
		v3.8c0,0.6,0,0.9,0.1,1.2c0.1,0.4,0.5,0.6,1.1,0.6c0.5,0,0.9-0.1,1.3-0.4v1.3C157.4,512.2,156.8,512.3,156,512.3z"/>
	<path fill="#FFFFFF" d="M160.1,502.5c-0.5,0-0.9-0.4-0.9-0.9c0-0.5,0.4-0.9,0.9-0.9c0.5,0,0.9,0.4,0.9,0.9
		C161.1,502.1,160.7,502.5,160.1,502.5z M159.4,512.1v-8h1.5v8H159.4z"/>
	<path fill="#FFFFFF" d="M163.4,512.1v-8h1.4v1c0.5-0.6,1.5-1.2,2.6-1.2c1.2,0,2,0.5,2.3,1.7c0.1,0.6,0.2,1.2,0.2,2.1v4.4h-1.5v-4.4
		c0-0.8,0-1.3-0.2-1.7c-0.2-0.5-0.7-0.8-1.3-0.8c-0.8,0-1.7,0.4-2,1.1v5.8H163.4z"/>
	<path fill="#FFFFFF" d="M171.8,506.8c0-1.7,1.3-2.9,3.2-2.9c0.6,0,0.9,0,1.3,0.2h2.6v1.2h-1.3c0.3,0.3,0.5,0.8,0.5,1.4
		c0,1-0.4,1.8-1.3,2.3c-0.6,0.3-1.1,0.4-1.8,0.6c-0.6,0.1-1,0.5-1,0.8c0,0.2,0.1,0.4,0.5,0.5c0.5,0.1,1.6,0.1,2.4,0.2
		c1.6,0.2,2,1.1,2,2.1c0,1.6-1.6,2.8-4.1,2.8c-2,0-3.4-0.8-3.4-2.2c0-1,0.8-1.6,1.9-2c-0.6-0.2-0.9-0.6-0.9-1c0-0.6,0.4-1.1,1.2-1.5
		C172.4,509,171.8,508,171.8,506.8z M176.7,512.6c-0.4-0.1-1.2-0.2-1.9-0.2c-1.2,0-1.9,0.6-1.9,1.3c0,0.7,0.7,1.2,2.1,1.2
		s2.5-0.6,2.5-1.4C177.4,513,177.2,512.8,176.7,512.6z M175,505.2c-1,0-1.7,0.7-1.7,1.7c0,0.9,0.7,1.6,1.7,1.6c1,0,1.7-0.6,1.7-1.6
		C176.7,505.8,176.1,505.2,175,505.2z"/>
	<path fill="#FFFFFF" d="M183.9,500.2h1.5v4.8c0.6-0.6,1.5-1,2.4-1c2.2,0,3.3,1.5,3.3,4c0,3-1.7,4.4-4,4.4c-1.1,0-2.1-0.2-3.1-0.6
		V500.2z M187.2,511.1c1.3,0,2.4-0.9,2.4-3.1c0-2.1-1.1-2.9-2.2-2.9c-0.9,0-1.6,0.5-2,1v4.6C185.7,511,186.4,511.1,187.2,511.1z"/>
	<path fill="#FFFFFF" d="M193,512.1v-12h1.5v12H193z"/>
	<path fill="#FFFFFF" d="M200.2,512.3c-2.4,0-3.8-1.7-3.8-4.2c0-2.5,1.5-4.2,3.8-4.2c2.4,0,3.8,1.7,3.8,4.2
		C204,510.7,202.5,512.3,200.2,512.3z M200.2,505.2c-1.4,0-2.3,1.1-2.3,2.9c0,1.8,0.9,2.9,2.3,2.9c1.5,0,2.3-1,2.3-2.9
		C202.5,506.3,201.7,505.2,200.2,505.2z"/>
	<path fill="#FFFFFF" d="M209.3,512.3c-2.4,0-3.9-1.6-3.9-4.2c0-2.5,1.7-4.2,4-4.2c0.8,0,1.7,0.2,2.3,0.6v1.5
		c-0.6-0.5-1.2-0.8-2.1-0.8c-1.7,0-2.7,1.3-2.7,2.8c0,1.9,1.2,2.9,2.6,2.9c0.8,0,1.5-0.3,2.2-0.7v1.4
		C211,512.2,210.2,512.3,209.3,512.3z"/>
	<path fill="#FFFFFF" d="M213.5,512.1v-12h1.5v7.2c0.9-0.9,1.2-1.3,3.2-3.3h1.9l-3.6,3.5l4,4.5h-1.9c-2.1-2.4-3.1-3.4-3.6-4.1v4.1
		H213.5z"/>
	<path fill="#FFFFFF" d="M220.7,514.6c0.8-1.3,1.3-2.8,1.3-4.8h1.5c0,2-0.6,3.6-1.6,4.8H220.7z"/>
	<path fill="#FFFFFF" d="M228.4,512.1c2-2.3,3.3-3.8,4.2-5c0.8-1.1,1.2-2,1.2-2.8c0-1.4-0.8-2-2.1-2c-1,0-1.9,0.4-2.8,1.2V502
		c0.9-0.7,2-1.1,3.1-1.1c2.2,0,3.3,1.2,3.3,3.2c0,1.1-0.3,2.1-1.3,3.5c-0.7,1-1.5,1.9-2.7,3.2c0.3,0,0.9,0,4.6,0v1.4H228.4z"/>
	<path fill="#FFFFFF" d="M241.1,512.3c-2.8,0-3.8-2.7-3.8-5.6c0-3.1,1.2-5.8,3.9-5.8c3,0,3.8,2.7,3.8,5.8
		C244.9,509.7,243.8,512.3,241.1,512.3z M241.1,502.4c-1.1,0-2.3,0.9-2.3,4.4c0,3.5,1.3,4.2,2.3,4.2s2.3-0.6,2.3-4.2
		C243.4,503.2,242.4,502.4,241.1,502.4z"/>
	<path fill="#FFFFFF" d="M249.5,512.1V503l-2.2,1.1v-1.6l3.8-1.7v11.3H249.5z"/>
	<path fill="#FFFFFF" d="M259.4,505.1c1.8,0,3.1,1.1,3.1,3.4c0,2.4-1.4,3.8-3.6,3.8c-2.2,0-3.9-1.5-3.9-5.4c0-4.2,2.1-6,4.5-6
		c0.9,0,1.7,0.1,2.3,0.6v1.6c-0.7-0.6-1.5-0.7-2.2-0.7c-2.2,0-3.1,1.6-3.1,4.3C257.1,505.7,258.1,505.1,259.4,505.1z M257.1,509.8
		c0.3,0.7,1,1.2,1.9,1.2c1.1,0,2.1-0.8,2.1-2.4c0-1.6-0.9-2.2-2-2.2c-1.2,0-2.1,0.8-2.3,1.7C256.7,508.6,256.9,509.3,257.1,509.8z"
		/>
	<path fill="#FFFFFF" d="M35.8,533.3c-2.4,0-3.9-1.6-3.9-4.2c0-2.5,1.7-4.2,4-4.2c0.8,0,1.7,0.2,2.3,0.6v1.5
		c-0.6-0.5-1.2-0.8-2.1-0.8c-1.7,0-2.7,1.3-2.7,2.8c0,1.9,1.2,2.9,2.6,2.9c0.8,0,1.5-0.3,2.2-0.7v1.4
		C37.5,533.2,36.7,533.3,35.8,533.3z"/>
	<path fill="#FFFFFF" d="M42.9,533.3c-2.4,0-3.8-1.7-3.8-4.2c0-2.5,1.5-4.2,3.8-4.2c2.4,0,3.8,1.7,3.8,4.2
		C46.7,531.7,45.2,533.3,42.9,533.3z M42.9,526.2c-1.4,0-2.3,1.1-2.3,2.9c0,1.8,0.9,2.9,2.3,2.9c1.5,0,2.3-1,2.3-2.9
		C45.2,527.3,44.4,526.2,42.9,526.2z"/>
	<path fill="#FFFFFF" d="M53.6,533.1v-1c-0.5,0.7-1.3,1.2-2.5,1.2c-1.1,0-1.9-0.4-2.3-1.4c-0.2-0.6-0.3-1.3-0.3-2.4v-4.4h1.5v4.4
		c0,0.7,0,1.3,0.2,1.6c0.2,0.6,0.6,0.9,1.5,0.9c0.8,0,1.5-0.4,1.9-1.1v-5.8h1.5v8H53.6z"/>
	<path fill="#FFFFFF" d="M57.6,533.1v-12h1.5v12H57.6z"/>
	<path fill="#FFFFFF" d="M66.7,533.1v-0.8c-0.6,0.6-1.5,1-2.5,1c-2,0-3.3-1.6-3.3-4c0-2.5,1.3-4.4,3.8-4.4c0.8,0,1.6,0.2,2,0.7v-4.4
		h1.5v12H66.7z M66.7,526.9c-0.3-0.5-1-0.8-1.8-0.8c-1.4,0-2.5,1-2.5,3.1c0,2.2,1.1,2.9,2.2,2.9c0.8,0,1.7-0.4,2-0.9V526.9z"/>
	<path fill="#FFFFFF" d="M73.6,531c0.8,0.7,1.9,1.1,2.8,1.1c1,0,1.4-0.3,1.4-0.9c0-0.4-0.2-0.7-1.3-1.2l-0.9-0.4
		c-1.2-0.5-1.8-1.2-1.8-2.3c0-1.3,1-2.2,2.8-2.2c0.8,0,1.7,0.2,2.4,0.7v1.5c-0.8-0.6-1.8-0.9-2.5-0.9c-1,0-1.2,0.4-1.2,0.8
		c0,0.4,0.1,0.7,1.2,1.2l0.9,0.4c1.3,0.6,1.9,1.1,1.9,2.3c0,1.4-1.1,2.3-2.8,2.3c-1.1,0-2.1-0.3-2.8-0.8V531z"/>
	<path fill="#FFFFFF" d="M80.9,533.1v-12h1.5v4.9c0.5-0.7,1.4-1.2,2.5-1.2c1.1,0,1.9,0.4,2.3,1.4c0.2,0.6,0.3,1.3,0.3,2.4v4.4h-1.5
		v-4.4c0-0.8,0-1.4-0.2-1.8c-0.2-0.5-0.7-0.8-1.4-0.8c-0.8,0-1.6,0.4-2,1.1v5.8H80.9z"/>
	<path fill="#FFFFFF" d="M94.1,533.1v-0.8c-0.6,0.6-1.2,1-2.3,1c-1.5,0-2.5-1.1-2.5-2.4c0-0.8,0.3-1.5,1-1.9
		c0.8-0.5,2.1-0.7,3.8-0.8V528c0-0.5-0.1-0.9-0.3-1.2c-0.3-0.4-0.7-0.5-1.3-0.5c-1,0-2,0.3-2.7,1v-1.3c0.8-0.7,1.9-1,2.8-1
		c1.1,0,2.1,0.3,2.6,1.3c0.2,0.5,0.3,1.2,0.3,2.1v4.8H94.1z M94,529.3c-1.5,0.1-2.2,0.3-2.8,0.6c-0.4,0.2-0.5,0.6-0.5,1
		c0,0.6,0.4,1.2,1.5,1.2c0.8,0,1.4-0.3,1.9-0.8V529.3z"/>
	<path fill="#FFFFFF" d="M97.9,536.9v-11.8h1.4v0.8c0.5-0.6,1.4-1,2.4-1c2.2,0,3.4,1.6,3.4,4c0,2.7-1.4,4.3-3.7,4.3
		c-0.8,0-1.5-0.1-1.9-0.5v4.1H97.9z M101.1,532.1c1.7,0,2.4-1.3,2.4-3c0-1.8-0.8-2.9-2.2-2.9c-0.8,0-1.6,0.5-1.9,1v4.3
		C99.7,531.9,100.6,532.1,101.1,532.1z"/>
	<path fill="#FFFFFF" d="M110.5,533.3c-2.5,0-4.1-1.6-4.1-4.2c0-2.5,1.6-4.2,3.7-4.2c2.4,0,3.3,1.7,3.3,4v0.6H108
		c0,1.8,1.3,2.5,2.8,2.5c0.8,0,1.8-0.3,2.6-0.8v1.4C112.6,533,111.7,533.3,110.5,533.3z M111.9,528.3c0-1.1-0.3-2.2-1.8-2.2
		c-1.4,0-2.1,1.1-2.2,2.2H111.9z"/>
	<path fill="#FFFFFF" d="M123.7,533.1v-1c-0.5,0.7-1.3,1.2-2.5,1.2c-1.1,0-1.9-0.4-2.3-1.4c-0.2-0.6-0.3-1.3-0.3-2.4v-4.4h1.5v4.4
		c0,0.7,0,1.3,0.2,1.6c0.2,0.6,0.6,0.9,1.5,0.9c0.8,0,1.5-0.4,1.9-1.1v-5.8h1.5v8H123.7z"/>
	<path fill="#FFFFFF" d="M127.7,536.9v-11.8h1.4v0.8c0.5-0.6,1.4-1,2.4-1c2.2,0,3.4,1.6,3.4,4c0,2.7-1.4,4.3-3.7,4.3
		c-0.8,0-1.5-0.1-1.9-0.5v4.1H127.7z M130.9,532.1c1.7,0,2.4-1.3,2.4-3c0-1.8-0.8-2.9-2.2-2.9c-0.8,0-1.6,0.5-1.9,1v4.3
		C129.5,531.9,130.3,532.1,130.9,532.1z"/>
	<path fill="#FFFFFF" d="M142.7,533.3c-0.9,0-1.7-0.4-2-1.3c-0.2-0.5-0.2-1.2-0.2-1.9v-3.8h-1.1v-1.2h1.1v-2.2h1.5v2.2h2.1v1.2H142
		v3.8c0,0.6,0,0.9,0.1,1.2c0.1,0.4,0.5,0.6,1.1,0.6c0.5,0,0.9-0.1,1.3-0.4v1.3C144,533.2,143.4,533.3,142.7,533.3z"/>
	<path fill="#FFFFFF" d="M149.3,533.3c-2.4,0-3.8-1.7-3.8-4.2c0-2.5,1.5-4.2,3.8-4.2c2.4,0,3.8,1.7,3.8,4.2
		C153.1,531.7,151.6,533.3,149.3,533.3z M149.3,526.2c-1.4,0-2.3,1.1-2.3,2.9c0,1.8,0.9,2.9,2.3,2.9c1.5,0,2.3-1,2.3-2.9
		C151.6,527.3,150.8,526.2,149.3,526.2z"/>
	<path fill="#FFFFFF" d="M158.4,521.2h1.5v4.8c0.6-0.6,1.5-1,2.4-1c2.2,0,3.3,1.5,3.3,4c0,3-1.7,4.4-4,4.4c-1.1,0-2.1-0.2-3.1-0.6
		V521.2z M161.7,532.1c1.3,0,2.4-0.9,2.4-3.1c0-2.1-1.1-2.9-2.2-2.9c-0.9,0-1.6,0.5-2,1v4.6C160.3,532,161,532.1,161.7,532.1z"/>
	<path fill="#FFFFFF" d="M171,533.3c-2.5,0-4.1-1.6-4.1-4.2c0-2.5,1.6-4.2,3.7-4.2c2.4,0,3.3,1.7,3.3,4v0.6h-5.5
		c0,1.8,1.3,2.5,2.8,2.5c0.8,0,1.8-0.3,2.6-0.8v1.4C173.2,533,172.2,533.3,171,533.3z M172.5,528.3c0-1.1-0.3-2.2-1.8-2.2
		c-1.4,0-2.1,1.1-2.2,2.2H172.5z"/>
	<path fill="#FFFFFF" d="M183.6,533.1v-0.8c-0.6,0.6-1.2,1-2.3,1c-1.5,0-2.5-1.1-2.5-2.4c0-0.8,0.3-1.5,1-1.9
		c0.8-0.5,2.1-0.7,3.8-0.8V528c0-0.5-0.1-0.9-0.3-1.2c-0.3-0.4-0.7-0.5-1.3-0.5c-1,0-2,0.3-2.7,1v-1.3c0.8-0.7,1.9-1,2.8-1
		c1.1,0,2.1,0.3,2.6,1.3c0.2,0.5,0.3,1.2,0.3,2.1v4.8H183.6z M183.6,529.3c-1.5,0.1-2.2,0.3-2.8,0.6c-0.4,0.2-0.5,0.6-0.5,1
		c0,0.6,0.4,1.2,1.5,1.2c0.8,0,1.4-0.3,1.9-0.8V529.3z"/>
	<path fill="#FFFFFF" d="M192.4,533.1l-2.6-8h1.6c1.3,4.5,1.4,4.9,1.6,5.8c0.3-0.9,0.4-1.3,2-5.8h1.1c1.6,4.4,1.8,4.9,2,5.8
		c0.2-0.9,0.4-1.4,1.6-5.8h1.6l-2.6,8h-1.2c-1.7-4.5-1.9-5.1-2.1-5.9c-0.3,0.8-0.5,1.5-2.1,5.9H192.4z"/>
	<path fill="#FFFFFF" d="M207.2,533.1v-0.8c-0.6,0.6-1.2,1-2.3,1c-1.5,0-2.5-1.1-2.5-2.4c0-0.8,0.3-1.5,1-1.9
		c0.8-0.5,2.1-0.7,3.8-0.8V528c0-0.5-0.1-0.9-0.3-1.2c-0.3-0.4-0.7-0.5-1.3-0.5c-1,0-2,0.3-2.7,1v-1.3c0.8-0.7,1.9-1,2.8-1
		c1.1,0,2.1,0.3,2.6,1.3c0.2,0.5,0.3,1.2,0.3,2.1v4.8H207.2z M207.2,529.3c-1.5,0.1-2.2,0.3-2.8,0.6c-0.4,0.2-0.5,0.6-0.5,1
		c0,0.6,0.4,1.2,1.5,1.2c0.8,0,1.4-0.3,1.9-0.8V529.3z"/>
	<path fill="#FFFFFF" d="M213.5,533.3c-0.9,0-1.7-0.4-2-1.3c-0.2-0.5-0.2-1.2-0.2-1.9v-3.8h-1.1v-1.2h1.1v-2.2h1.5v2.2h2.1v1.2h-2.1
		v3.8c0,0.6,0,0.9,0.1,1.2c0.1,0.4,0.5,0.6,1.1,0.6c0.5,0,0.9-0.1,1.3-0.4v1.3C214.8,533.2,214.2,533.3,213.5,533.3z"/>
	<path fill="#FFFFFF" d="M220.3,533.3c-2.5,0-4.1-1.6-4.1-4.2c0-2.5,1.6-4.2,3.7-4.2c2.4,0,3.3,1.7,3.3,4v0.6h-5.5
		c0,1.8,1.3,2.5,2.8,2.5c0.8,0,1.8-0.3,2.6-0.8v1.4C222.4,533,221.5,533.3,220.3,533.3z M221.8,528.3c0-1.1-0.3-2.2-1.8-2.2
		c-1.4,0-2.1,1.1-2.2,2.2H221.8z"/>
	<path fill="#FFFFFF" d="M225.1,533.1v-8h1.4v1.2c0.4-0.9,1.2-1.4,2.1-1.4c0.3,0,0.7,0,1,0.2v1.4c-0.3-0.2-0.7-0.3-1.1-0.3
		c-0.8,0-1.5,0.4-2,1.4v5.6H225.1z"/>
	<path fill="#FFFFFF" d="M230.3,531c0.8,0.7,1.9,1.1,2.8,1.1c1,0,1.4-0.3,1.4-0.9c0-0.4-0.2-0.7-1.3-1.2l-0.9-0.4
		c-1.2-0.5-1.8-1.2-1.8-2.3c0-1.3,1-2.2,2.8-2.2c0.8,0,1.7,0.2,2.4,0.7v1.5c-0.8-0.6-1.8-0.9-2.5-0.9c-1,0-1.2,0.4-1.2,0.8
		c0,0.4,0.1,0.7,1.2,1.2l0.9,0.4c1.3,0.6,1.9,1.1,1.9,2.3c0,1.4-1.1,2.3-2.8,2.3c-1.1,0-2.1-0.3-2.8-0.8V531z"/>
	<path fill="#FFFFFF" d="M237.6,533.1v-12h1.5v4.9c0.5-0.7,1.4-1.2,2.5-1.2c1.1,0,1.9,0.4,2.3,1.4c0.2,0.6,0.3,1.3,0.3,2.4v4.4h-1.5
		v-4.4c0-0.8,0-1.4-0.2-1.8c-0.2-0.5-0.7-0.8-1.4-0.8c-0.8,0-1.6,0.4-2,1.1v5.8H237.6z"/>
	<path fill="#FFFFFF" d="M250,533.3c-2.5,0-4.1-1.6-4.1-4.2c0-2.5,1.6-4.2,3.7-4.2c2.4,0,3.3,1.7,3.3,4v0.6h-5.5
		c0,1.8,1.3,2.5,2.8,2.5c0.8,0,1.8-0.3,2.6-0.8v1.4C252.1,533,251.2,533.3,250,533.3z M251.4,528.3c0-1.1-0.3-2.2-1.8-2.2
		c-1.4,0-2.1,1.1-2.2,2.2H251.4z"/>
	<path fill="#FFFFFF" d="M259.9,533.1v-0.8c-0.6,0.6-1.5,1-2.5,1c-2,0-3.3-1.6-3.3-4c0-2.5,1.3-4.4,3.8-4.4c0.8,0,1.6,0.2,2,0.7
		v-4.4h1.5v12H259.9z M259.9,526.9c-0.3-0.5-1-0.8-1.8-0.8c-1.4,0-2.5,1-2.5,3.1c0,2.2,1.1,2.9,2.2,2.9c0.8,0,1.7-0.4,2-0.9V526.9z"
		/>
	<path fill="#FFFFFF" d="M33.1,557.9l1.6-4l-3.3-7.8h1.6c1.9,4.6,2.3,5.5,2.5,6c0.3-0.9,0.5-1.6,2.2-6h1.6l-4.5,11.8H33.1z"/>
	<path fill="#FFFFFF" d="M44,554.3c-2.5,0-4.1-1.6-4.1-4.2c0-2.5,1.6-4.2,3.7-4.2c2.4,0,3.3,1.7,3.3,4v0.6h-5.5
		c0,1.8,1.3,2.5,2.8,2.5c0.8,0,1.8-0.3,2.6-0.8v1.4C46.1,554,45.2,554.3,44,554.3z M45.4,549.3c0-1.1-0.3-2.2-1.8-2.2
		c-1.4,0-2.1,1.1-2.2,2.2H45.4z"/>
	<path fill="#FFFFFF" d="M53.1,554.1v-0.8c-0.6,0.6-1.2,1-2.3,1c-1.5,0-2.5-1.1-2.5-2.4c0-0.8,0.3-1.5,1-1.9
		c0.8-0.5,2.1-0.7,3.8-0.8V549c0-0.5-0.1-0.9-0.3-1.2c-0.3-0.4-0.7-0.5-1.3-0.5c-1,0-2,0.3-2.7,1v-1.3c0.8-0.7,1.9-1,2.8-1
		c1.1,0,2.1,0.3,2.6,1.3c0.2,0.5,0.3,1.2,0.3,2.1v4.8H53.1z M53.1,550.3c-1.5,0.1-2.2,0.3-2.8,0.6c-0.4,0.2-0.5,0.6-0.5,1
		c0,0.6,0.4,1.2,1.5,1.2c0.8,0,1.4-0.3,1.9-0.8V550.3z"/>
	<path fill="#FFFFFF" d="M56.9,554.1v-8h1.4v1.2c0.4-0.9,1.2-1.4,2.1-1.4c0.3,0,0.7,0,1,0.2v1.4c-0.3-0.2-0.7-0.3-1.1-0.3
		c-0.8,0-1.5,0.4-2,1.4v5.6H56.9z"/>
	<path fill="#FFFFFF" d="M66.8,554.1v-6.8h-1.1v-1.2h1.1v-1c0-0.9,0.1-1.4,0.3-1.9c0.4-0.9,1.3-1.2,2.3-1.2c0.5,0,1.1,0.1,1.4,0.3
		v1.3c-0.3-0.2-0.8-0.3-1.2-0.3c-0.5,0-0.9,0.2-1.1,0.6c-0.1,0.3-0.2,0.7-0.2,1.3v1h1.9v1.2h-1.9v6.8H66.8z"/>
	<path fill="#FFFFFF" d="M74.9,554.3c-2.4,0-3.8-1.7-3.8-4.2c0-2.5,1.5-4.2,3.8-4.2c2.4,0,3.8,1.7,3.8,4.2
		C78.7,552.7,77.2,554.3,74.9,554.3z M74.9,547.2c-1.4,0-2.3,1.1-2.3,2.9c0,1.8,0.9,2.9,2.3,2.9c1.5,0,2.3-1,2.3-2.9
		C77.2,548.3,76.3,547.2,74.9,547.2z"/>
	<path fill="#FFFFFF" d="M80.6,554.1v-8H82v1.2c0.4-0.9,1.2-1.4,2.1-1.4c0.3,0,0.7,0,1,0.2v1.4c-0.3-0.2-0.7-0.3-1.1-0.3
		c-0.8,0-1.5,0.4-2,1.4v5.6H80.6z"/>
	<path fill="#FFFFFF" d="M90.3,554.1v-11.3h1.6v9.8h5v1.5H90.3z"/>
	<path fill="#FFFFFF" d="M102.9,554.1v-0.8c-0.6,0.6-1.2,1-2.3,1c-1.5,0-2.5-1.1-2.5-2.4c0-0.8,0.3-1.5,1-1.9
		c0.8-0.5,2.1-0.7,3.8-0.8V549c0-0.5-0.1-0.9-0.3-1.2c-0.3-0.4-0.7-0.5-1.3-0.5c-1,0-2,0.3-2.7,1v-1.3c0.8-0.7,1.9-1,2.8-1
		c1.1,0,2.1,0.3,2.6,1.3c0.2,0.5,0.3,1.2,0.3,2.1v4.8H102.9z M102.8,550.3c-1.5,0.1-2.2,0.3-2.8,0.6c-0.4,0.2-0.5,0.6-0.5,1
		c0,0.6,0.4,1.2,1.5,1.2c0.8,0,1.4-0.3,1.9-0.8V550.3z"/>
	<path fill="#FFFFFF" d="M109.1,554.3c-0.9,0-1.7-0.4-2-1.3c-0.2-0.5-0.2-1.2-0.2-1.9v-3.8h-1.1v-1.2h1.1v-2.2h1.5v2.2h2.1v1.2h-2.1
		v3.8c0,0.6,0,0.9,0.1,1.2c0.1,0.4,0.5,0.6,1.1,0.6c0.5,0,0.9-0.1,1.3-0.4v1.3C110.5,554.2,109.8,554.3,109.1,554.3z"/>
	<path fill="#FFFFFF" d="M113.2,544.5c-0.5,0-0.9-0.4-0.9-0.9c0-0.5,0.4-0.9,0.9-0.9c0.5,0,0.9,0.4,0.9,0.9
		C114.2,544.1,113.8,544.5,113.2,544.5z M112.5,554.1v-8h1.5v8H112.5z"/>
	<path fill="#FFFFFF" d="M116.5,554.1v-8h1.4v1c0.5-0.6,1.5-1.2,2.6-1.2c1.2,0,2,0.5,2.3,1.7c0.1,0.6,0.2,1.2,0.2,2.1v4.4h-1.5v-4.4
		c0-0.8,0-1.3-0.2-1.7c-0.2-0.5-0.7-0.8-1.3-0.8c-0.8,0-1.7,0.4-2,1.1v5.8H116.5z"/>
	<path fill="#FFFFFF" d="M128.7,554.3c-2.4,0-3.8-1.7-3.8-4.2c0-2.5,1.5-4.2,3.8-4.2c2.4,0,3.8,1.7,3.8,4.2
		C132.5,552.7,131,554.3,128.7,554.3z M128.7,547.2c-1.4,0-2.3,1.1-2.3,2.9c0,1.8,0.9,2.9,2.3,2.9c1.5,0,2.3-1,2.3-2.9
		C131,548.3,130.2,547.2,128.7,547.2z"/>
	<path fill="#FFFFFF" d="M140,554.1l-3.3-8h1.6c1.8,4.4,2.1,5.2,2.3,6c0.3-0.9,0.6-1.6,2.4-6h1.6l-3.4,8H140z"/>
	<path fill="#FFFFFF" d="M149.1,554.3c-2.4,0-3.8-1.7-3.8-4.2c0-2.5,1.5-4.2,3.8-4.2c2.4,0,3.8,1.7,3.8,4.2
		C152.9,552.7,151.5,554.3,149.1,554.3z M149.2,547.2c-1.4,0-2.3,1.1-2.3,2.9c0,1.8,0.9,2.9,2.3,2.9c1.5,0,2.3-1,2.3-2.9
		C151.5,548.3,150.6,547.2,149.2,547.2z"/>
	<path fill="#FFFFFF" d="M157.3,554.3c-0.9,0-1.7-0.4-2-1.3c-0.2-0.5-0.2-1.2-0.2-1.9v-3.8h-1.1v-1.2h1.1v-2.2h1.5v2.2h2.1v1.2h-2.1
		v3.8c0,0.6,0,0.9,0.1,1.2c0.1,0.4,0.5,0.6,1.1,0.6c0.5,0,0.9-0.1,1.3-0.4v1.3C158.6,554.2,158,554.3,157.3,554.3z"/>
	<path fill="#FFFFFF" d="M164.2,554.3c-2.5,0-4.1-1.6-4.1-4.2c0-2.5,1.6-4.2,3.7-4.2c2.4,0,3.3,1.7,3.3,4v0.6h-5.5
		c0,1.8,1.3,2.5,2.8,2.5c0.8,0,1.8-0.3,2.6-0.8v1.4C166.3,554,165.4,554.3,164.2,554.3z M165.6,549.3c0-1.1-0.3-2.2-1.8-2.2
		c-1.4,0-2.1,1.1-2.2,2.2H165.6z"/>
	<path fill="#FFFFFF" d="M169,554.1v-8h1.4v1.2c0.4-0.9,1.2-1.4,2.1-1.4c0.3,0,0.7,0,1,0.2v1.4c-0.3-0.2-0.7-0.3-1.1-0.3
		c-0.8,0-1.5,0.4-2,1.4v5.6H169z"/>
	<path fill="#FFFFFF" d="M174.1,552c0.8,0.7,1.9,1.1,2.8,1.1c1,0,1.4-0.3,1.4-0.9c0-0.4-0.2-0.7-1.3-1.2l-0.9-0.4
		c-1.2-0.5-1.8-1.2-1.8-2.3c0-1.3,1-2.2,2.8-2.2c0.8,0,1.7,0.2,2.4,0.7v1.5c-0.8-0.6-1.8-0.9-2.5-0.9c-1,0-1.2,0.4-1.2,0.8
		c0,0.4,0.1,0.7,1.2,1.2l0.9,0.4c1.3,0.6,1.9,1.1,1.9,2.3c0,1.4-1.1,2.3-2.8,2.3c-1.1,0-2.1-0.3-2.8-0.8V552z"/>
	<path fill="#FFFFFF" d="M182,554.3c-0.6,0-1-0.5-1-1c0-0.6,0.4-1.1,1.1-1.1c0.6,0,1,0.4,1,1S182.7,554.3,182,554.3z"/>
</g>
<g>
	<path fill="#383E42" d="M34.9,141.7c-1,0-3.1,0-3.9,0.1l0.2-1.3l1-0.2c0.8-0.1,1.3-0.6,1.6-2.4l1.7-10.9c0.1-0.4,0.1-0.9,0.1-1.2
		c0-0.8-0.4-1.3-1-1.4l-0.9-0.1l0.2-1.3c0.8,0,2.7,0.1,3.9,0.1c1.5,0,2.8-0.1,4.5-0.1c5.5,0,8.5,3.1,8.5,7.8
		c0,6.7-5.4,11.1-12.1,11.1C37.1,141.8,36.2,141.7,34.9,141.7z M46.4,130.9c0-3.6-1.7-6.1-5-6.1c-0.4,0-0.9,0-1.4,0.1L38,137.9
		c-0.1,0.4-0.1,0.8-0.1,1c0,0.8,0.5,1.1,1.7,1.1C43.6,140.1,46.4,136,46.4,130.9z"/>
	<path fill="#383E42" d="M52.7,136.4c0-5.3,3.4-9.6,8.3-9.6c3.1,0,5.3,2.3,5.3,5.8c0,5.3-3.4,9.6-8.3,9.6
		C54.9,142.2,52.7,139.9,52.7,136.4z M62.2,132.6c0-2.6-0.5-4.1-1.9-4.1c-2.2,0-3.5,4-3.5,7.8c0,2.6,0.5,4.1,1.9,4.1
		C61,140.4,62.2,136.4,62.2,132.6z"/>
	<path fill="#383E42" d="M68,136.5c0-5.4,3.8-9.7,8.2-9.7c2.8,0,4.3,1.2,4.3,3.1c0,3.1-3.2,5.2-8.4,5.5c0,0.1,0,0.3,0,0.4
		c0,2.5,1.2,3.9,3.1,3.9c1.4,0,2.4-0.4,3.3-0.9l0.3,0.8c-0.6,1-2.6,2.6-5.2,2.6C69.9,142.2,68,140.1,68,136.5z M77,129.9
		c0-0.8-0.5-1.3-1.2-1.3c-1.5,0-3.4,2.2-3.7,5.4C75.1,133.6,77,131.7,77,129.9z"/>
	<path fill="#383E42" d="M80.7,141.1l1.2-2.4c1.4,0.9,2.8,1.3,4,1.3c1.3,0,2.1-0.7,2.1-1.5c0-1-1.3-1.8-2.9-2.7
		c-1.5-0.8-3.1-1.9-3.1-4.1c0-2.7,3-4.9,6-4.9c1.4,0,2.8,0.4,4,1l-1.3,2.5c-1-0.7-2-1.3-3.5-1.3c-1,0-1.6,0.5-1.6,1.3
		c0,0.9,0.5,1.3,1.6,2c1.8,1.1,4.2,2.1,4.2,5c0,3.2-3.5,4.9-6.3,4.9C83.6,142.1,82,141.7,80.7,141.1z"/>
	<path fill="#383E42" d="M102.3,130.5c-0.1-0.8-0.3-1.5-1-1.5c-0.4,0-0.9,0.4-1.3,0.7l-0.4-1c0.7-0.8,2.2-1.9,3.9-1.9
		c1.6,0,2.4,1.2,2.5,2.9l0.7,8.7h0.1l3.8-6.3l-0.4-4.6l3.7-0.8l0.9,11.7h0.1c3.4-5.1,3.8-7.3,3.8-9.2c0-0.4-0.2-1.3-0.5-1.6l3.1-0.9
		c0.4,0.5,0.6,1.3,0.6,2c0,2.3-3.1,7-7.6,13.1h-2.9l-0.6-7l-4.5,7h-3L102.3,130.5z"/>
	<path fill="#383E42" d="M123.4,139.6c0-0.6,0.1-1.2,0.3-2.1l0.9-5.9c0.1-0.3,0.1-0.8,0.1-1.1c0-0.7-0.3-1-1.6-1.3l0.2-1.1
		c1.9-0.3,4.2-0.8,6-1.4l-1.7,10.8c-0.1,0.5-0.1,1-0.1,1.3c0,0.7,0.3,1.1,0.9,1.1c0.6,0,1.1-0.2,1.5-0.5l0.4,0.9
		c-0.9,0.8-2.4,1.8-4.4,1.8C124.1,142,123.4,141,123.4,139.6z M125.6,122.2c0-1.2,1-2.2,2.2-2.2c1.3,0,2.2,1,2.2,2.2
		c0,1.2-0.9,2.2-2.2,2.2C126.5,124.4,125.6,123.4,125.6,122.2z"/>
	<path fill="#383E42" d="M140.4,139.6c0-0.7,0.1-1.3,0.2-2.1l1-5.1c0.1-0.6,0.1-1.1,0.1-1.4c0-0.9-0.3-1.5-1.3-1.5
		c-1.1,0-2.3,1-3.1,1.9l-1.6,10.5h-3.9l1.6-10.3c0-0.3,0.1-0.8,0.1-1c0-0.8-0.4-1.1-1.6-1.3l0.1-1.1c2-0.3,4.2-0.8,6.1-1.4l-0.5,2.7
		h0c0.9-1.1,2.8-2.5,4.5-2.5c2.5,0,3.4,1.4,3.4,3.7c0,0.4-0.1,1-0.2,1.9l-1,5c-0.1,0.5-0.1,0.9-0.1,1.3c0,0.7,0.3,1.1,0.9,1.1
		c0.6,0,1-0.2,1.5-0.5l0.5,0.9c-0.9,0.8-2.4,1.8-4.5,1.8C141.1,142,140.4,141,140.4,139.6z"/>
	<path fill="#383E42" d="M157.3,139.6c0-0.7,0.1-1.3,0.2-2.1l1-5.1c0.1-0.6,0.2-1.1,0.2-1.4c0-0.9-0.3-1.5-1.3-1.5
		c-1.1,0-2.3,1-3.1,1.9l-1.6,10.5h-3.9l1.6-10.3c0-0.3,0.1-0.8,0.1-1c0-0.8-0.4-1.1-1.6-1.3l0.1-1.1c2-0.3,4.2-0.8,6.1-1.4l-0.5,2.7
		h0c0.9-1.1,2.8-2.5,4.5-2.5c2.5,0,3.4,1.4,3.4,3.7c0,0.4-0.1,1-0.2,1.9l-1,5c-0.1,0.5-0.2,0.9-0.2,1.3c0,0.7,0.3,1.1,0.9,1.1
		c0.6,0,1.1-0.2,1.5-0.5l0.5,0.9c-0.9,0.8-2.4,1.8-4.5,1.8C158.1,142,157.3,141,157.3,139.6z"/>
	<path fill="#383E42" d="M166.1,139.6c0-0.6,0.2-1.2,0.3-2.1l0.9-5.9c0.1-0.3,0.1-0.8,0.1-1.1c0-0.7-0.3-1-1.6-1.3l0.2-1.1
		c1.9-0.3,4.2-0.8,6-1.4l-1.7,10.8c-0.1,0.5-0.2,1-0.2,1.3c0,0.7,0.3,1.1,0.9,1.1c0.6,0,1.1-0.2,1.5-0.5l0.5,0.9
		c-0.9,0.8-2.4,1.8-4.4,1.8C166.9,142,166.1,141,166.1,139.6z M168.4,122.2c0-1.2,1-2.2,2.2-2.2c1.3,0,2.2,1,2.2,2.2
		c0,1.2-0.9,2.2-2.2,2.2C169.3,124.4,168.4,123.4,168.4,122.2z"/>
	<path fill="#383E42" d="M183.1,139.6c0-0.7,0.1-1.3,0.2-2.1l1-5.1c0.1-0.6,0.1-1.1,0.1-1.4c0-0.9-0.3-1.5-1.3-1.5
		c-1.1,0-2.3,1-3.1,1.9l-1.6,10.5h-3.9l1.6-10.3c0-0.3,0.1-0.8,0.1-1c0-0.8-0.4-1.1-1.7-1.3l0.2-1.1c1.9-0.3,4.2-0.8,6.1-1.4
		l-0.5,2.7h0c0.9-1.1,2.8-2.5,4.5-2.5c2.5,0,3.4,1.4,3.4,3.7c0,0.4-0.1,1-0.2,1.9l-1,5c-0.1,0.5-0.1,0.9-0.1,1.3
		c0,0.7,0.3,1.1,0.9,1.1c0.6,0,1-0.2,1.5-0.5l0.5,0.9c-0.9,0.8-2.4,1.8-4.5,1.8C183.9,142,183.1,141,183.1,139.6z"/>
	<path fill="#383E42" d="M191.2,147.2l0.8-2.3c1,0.5,2.4,0.7,3.5,0.7c2.3,0,3.3-1.2,3.8-3.4l0.2-1.3c0.1-0.7,0.2-1.1,0.4-1.6h0
		c-0.8,1.4-2.4,2.9-4.7,2.9c-2.4,0-4-2.1-4-4.8c0-6.4,4.5-10.4,9.6-10.4c0.8,0,2.2,0.2,2.8,0.2c0.4,0,1.4-0.1,1.8-0.2l-2.1,13.4
		c-0.6,3.8-2.8,7.5-8.3,7.5C193.9,147.9,192.1,147.6,191.2,147.2z M199.7,137.5l1.3-8.5c-0.2-0.2-0.6-0.2-1-0.2
		c-2.6,0-4.9,3.9-4.9,8.3c0,1.4,0.7,2.4,1.7,2.4C198.1,139.5,199.1,138.6,199.7,137.5z"/>
	<path fill="#383E42" d="M33.1,175.8c0-0.5,0.1-1.2,0.2-1.9l1.4-8.4h-2l0.2-1.4c2.4-0.6,4.2-2.6,4.9-4.2h1.5l-0.6,3.7h3.3l-0.3,1.9
		h-3.3l-1.3,8.2c-0.1,0.4-0.1,0.8-0.1,1.3c0,0.8,0.4,1.3,1.3,1.3c0.9,0,1.7-0.3,2.3-0.6l0.2,1c-0.9,0.9-2.7,1.9-5,1.9
		C34,178.5,33.1,177.3,33.1,175.8z"/>
	<path fill="#383E42" d="M51.2,176.1c0-0.7,0.1-1.3,0.2-2.1l1-5.1c0.1-0.6,0.2-1.1,0.2-1.4c0-0.9-0.3-1.5-1.3-1.5
		c-1.1,0-2.3,1-3.1,1.9l-1.6,10.5h-3.9l2.5-16.4c0.1-0.3,0.1-0.8,0.1-1c0-0.8-0.4-1-1.7-1.3l0.2-1.1c1.9-0.3,4.2-0.8,6-1.4l-1.4,8.8
		h0.1c0.9-1.1,2.8-2.5,4.5-2.5c2.5,0,3.4,1.4,3.4,3.7c0,0.4-0.1,1.1-0.2,1.9l-1,5c-0.1,0.4-0.2,0.9-0.2,1.3c0,0.7,0.3,1.1,0.9,1.1
		c0.6,0,1.1-0.2,1.5-0.5l0.5,0.9c-0.9,0.8-2.4,1.8-4.4,1.8C52,178.5,51.2,177.5,51.2,176.1z"/>
	<path fill="#383E42" d="M59.2,173c0-5.4,3.8-9.7,8.2-9.7c2.8,0,4.3,1.2,4.3,3.1c0,3.1-3.2,5.2-8.4,5.5c0,0.1,0,0.3,0,0.4
		c0,2.5,1.2,3.9,3.1,3.9c1.4,0,2.4-0.4,3.3-0.9l0.3,0.8c-0.6,1.1-2.6,2.6-5.2,2.6C61.1,178.7,59.2,176.5,59.2,173z M68.2,166.4
		c0-0.8-0.4-1.3-1.2-1.3c-1.5,0-3.4,2.2-3.7,5.4C66.3,170.1,68.2,168.1,68.2,166.4z"/>
	<path fill="#383E42" d="M78.7,177l1-0.2c0.8-0.1,1.3-0.7,1.6-2.4l1.7-11c0.1-0.4,0.1-0.8,0.1-1.1c0-0.9-0.4-1.3-1-1.3l-1-0.2
		l0.2-1.3c0.8,0,3.1,0.1,4.3,0.1c1.2,0,3.5-0.1,4.3-0.1l-0.2,1.3l-1.1,0.2c-0.8,0.1-1.3,0.6-1.6,2.3l-0.7,4.3h7.9l0.7-4.2
		c0.1-0.4,0.1-0.8,0.1-1.1c0-0.9-0.3-1.3-0.9-1.3l-1-0.2l0.2-1.3c0.8,0,3.1,0.1,4.3,0.1c1.3,0,3.5-0.1,4.3-0.1l-0.2,1.3l-1,0.2
		c-0.8,0.1-1.3,0.6-1.6,2.3l-1.7,11.1c-0.1,0.4-0.1,0.8-0.1,1.1c0,0.9,0.4,1.3,0.9,1.3l1,0.2l-0.2,1.3c-0.8,0-3-0.1-4.3-0.1
		c-1.2,0-3.5,0.1-4.3,0.1l0.2-1.3l1-0.2c0.8-0.1,1.3-0.7,1.6-2.4l0.8-5h-7.9l-0.8,5c-0.1,0.4-0.1,0.8-0.1,1.1c0,0.9,0.4,1.2,1,1.3
		l1,0.2l-0.2,1.3c-0.8,0-3.1-0.1-4.3-0.1c-1.2,0-3.5,0.1-4.3,0.1L78.7,177z"/>
	<path fill="#383E42" d="M102.9,176c0-0.6,0.1-1.2,0.3-2.1l0.9-5.9c0.1-0.3,0.1-0.8,0.1-1.1c0-0.7-0.3-1-1.6-1.3l0.2-1.1
		c1.9-0.3,4.2-0.8,6-1.4l-1.7,10.8c-0.1,0.5-0.1,1-0.1,1.3c0,0.7,0.3,1.1,0.9,1.1c0.6,0,1.1-0.2,1.5-0.5l0.4,0.9
		c-0.9,0.8-2.4,1.8-4.4,1.8C103.7,178.5,102.9,177.5,102.9,176z M105.1,158.7c0-1.2,1-2.2,2.2-2.2c1.3,0,2.2,1,2.2,2.2
		s-0.9,2.2-2.2,2.2C106.1,160.9,105.1,159.9,105.1,158.7z"/>
	<path fill="#383E42" d="M110.2,177.6l1.2-2.4c1.4,0.9,2.8,1.3,4,1.3c1.3,0,2.1-0.7,2.1-1.5c0-1.1-1.3-1.8-2.9-2.7
		c-1.5-0.8-3.1-1.9-3.1-4.1c0-2.7,3-4.9,6-4.9c1.4,0,2.8,0.4,4,1l-1.3,2.5c-1-0.7-2-1.3-3.5-1.3c-1,0-1.6,0.5-1.6,1.3
		c0,0.9,0.5,1.3,1.6,2c1.8,1.1,4.2,2.1,4.2,5c0,3.2-3.5,4.9-6.3,4.9C113.1,178.6,111.5,178.2,110.2,177.6z"/>
	<path fill="#383E42" d="M120.7,182.8l0.9-0.1c0.8-0.1,1.3-0.6,1.6-2.5l1.9-12.3c0-0.3,0.1-0.8,0.1-1c0-0.8-0.4-1-1.6-1.3l0.1-1.1
		c2-0.3,4.1-0.8,6-1.4l-0.5,2.9h0c0.8-1.3,2.4-2.7,4.5-2.7c2.4,0,4.1,2.1,4.1,4.8c0,6.5-4.6,10.3-9.7,10.3c-0.2,0-0.5,0-0.7-0.1
		l-0.3,1.9c-0.1,0.6-0.1,1-0.1,1.3c0,0.9,0.4,1.2,1,1.3l1.3,0.1l-0.2,1.2c-0.8,0-3.4-0.1-4.6-0.1c-1.1,0-3.2,0.1-3.9,0.1
		L120.7,182.8z M133.7,168.4c0-1.4-0.7-2.4-1.7-2.4c-1.2,0-2.3,1-3,2l-1.3,8.4c0.2,0.2,0.6,0.2,1,0.2
		C131.4,176.5,133.7,172.8,133.7,168.4z"/>
	<path fill="#383E42" d="M139.3,173.8c0-6.4,4.4-10.4,9.6-10.4c0.8,0,2.1,0.2,2.8,0.2c0.4,0,1.4-0.1,1.8-0.2l-1.6,10.2
		c-0.1,0.6-0.1,1.1-0.1,1.5c0,0.8,0.3,1.1,0.9,1.1c0.5,0,1-0.2,1.4-0.5l0.5,0.9c-0.8,0.8-2.3,1.8-4.2,1.8c-1.6,0-2.2-0.9-2.2-2.2
		c0-0.2,0-0.5,0.1-0.8h0c-0.9,1.6-2.5,3.1-4.9,3.1C140.9,178.7,139.3,176.6,139.3,173.8z M148,174l1.3-8.5c-0.3-0.2-0.7-0.2-1-0.2
		c-2.6,0-4.8,3.9-4.8,8.3c0,1.4,0.6,2.4,1.6,2.4C146.3,176,147.3,175,148,174z"/>
	<path fill="#383E42" d="M164.8,176c0-0.7,0.1-1.3,0.2-2.1l1-5.1c0.1-0.6,0.1-1.1,0.1-1.4c0-0.9-0.3-1.5-1.3-1.5
		c-1.1,0-2.3,1-3.1,1.9l-1.6,10.5h-3.9l1.6-10.3c0-0.3,0.1-0.8,0.1-1c0-0.8-0.4-1.1-1.6-1.3l0.1-1.1c2-0.3,4.2-0.8,6.1-1.4l-0.4,2.7
		h0c0.9-1.1,2.8-2.5,4.5-2.5c2.5,0,3.4,1.4,3.4,3.7c0,0.4-0.1,1.1-0.2,1.9l-1,5c-0.1,0.4-0.1,0.9-0.1,1.3c0,0.7,0.3,1.1,0.9,1.1
		c0.6,0,1-0.2,1.5-0.5l0.5,0.9c-0.9,0.8-2.4,1.8-4.5,1.8C165.5,178.5,164.8,177.5,164.8,176z"/>
	<path fill="#383E42" d="M173.6,176c0-0.6,0.1-1.2,0.3-2.1l0.9-5.9c0.1-0.3,0.1-0.8,0.1-1.1c0-0.7-0.3-1-1.6-1.3l0.2-1.1
		c2-0.3,4.2-0.8,6-1.4l-1.7,10.8c-0.1,0.5-0.1,1-0.1,1.3c0,0.7,0.3,1.1,0.9,1.1c0.6,0,1.1-0.2,1.5-0.5l0.4,0.9
		c-0.9,0.8-2.4,1.8-4.4,1.8C174.4,178.5,173.6,177.5,173.6,176z M175.8,158.7c0-1.2,1-2.2,2.2-2.2c1.3,0,2.2,1,2.2,2.2
		s-0.9,2.2-2.2,2.2C176.8,160.9,175.8,159.9,175.8,158.7z"/>
	<path fill="#383E42" d="M181.5,172.8c0-5.6,4.3-9.4,8.7-9.4c1.4,0,2.6,0.3,3.6,0.8l-1.1,2.6c-0.9-0.7-2-1.1-3-1.1
		c-2.2,0-4.3,2-4.3,6.5c0,2.7,1.3,4.1,3.2,4.1c1.4,0,2.4-0.4,3.3-0.9l0.4,0.8c-0.6,1.1-2.7,2.6-5.2,2.6
		C183.6,178.7,181.5,176.3,181.5,172.8z"/>
	<path fill="#383E42" d="M202.9,167c-0.1-0.8-0.3-1.5-1-1.5c-0.4,0-0.9,0.4-1.3,0.7l-0.5-1c0.7-0.8,2.2-1.9,3.9-1.9
		c1.6,0,2.4,1.2,2.6,2.9l0.7,8.7h0.1c3.5-5.4,4.1-7.3,4.1-9.2c0-0.4-0.2-1.3-0.5-1.6l3.1-0.9c0.4,0.5,0.6,1.3,0.6,2
		c0,2.3-3.4,7-7.9,13.1H204L202.9,167z"/>
	<path fill="#383E42" d="M215.5,172.9c0-5.3,3.4-9.6,8.3-9.6c3.1,0,5.3,2.3,5.3,5.8c0,5.3-3.4,9.6-8.3,9.6
		C217.7,178.7,215.5,176.4,215.5,172.9z M225,169.1c0-2.6-0.5-4.1-1.9-4.1c-2.2,0-3.5,4-3.5,7.8c0,2.6,0.5,4.1,1.9,4.1
		C223.8,176.9,225,172.9,225,169.1z"/>
	<path fill="#383E42" d="M231.8,175.8c0-0.5,0.1-1.2,0.2-1.9l1.3-8.4h-2l0.2-1.4c2.4-0.6,4.2-2.6,5-4.2h1.5l-0.6,3.7h3.3l-0.3,1.9
		h-3.3l-1.3,8.2c-0.1,0.4-0.1,0.8-0.1,1.3c0,0.8,0.4,1.3,1.3,1.3c0.9,0,1.7-0.3,2.3-0.6l0.2,1c-0.9,0.9-2.7,1.9-5,1.9
		C232.8,178.5,231.8,177.3,231.8,175.8z"/>
	<path fill="#383E42" d="M241.1,173c0-5.4,3.8-9.7,8.2-9.7c2.8,0,4.3,1.2,4.3,3.1c0,3.1-3.2,5.2-8.4,5.5c0,0.1,0,0.3,0,0.4
		c0,2.5,1.2,3.9,3.1,3.9c1.4,0,2.4-0.4,3.3-0.9l0.3,0.8c-0.6,1.1-2.6,2.6-5.2,2.6C243,178.7,241.1,176.5,241.1,173z M250.2,166.4
		c0-0.8-0.5-1.3-1.2-1.3c-1.5,0-3.4,2.2-3.7,5.4C248.2,170.1,250.2,168.1,250.2,166.4z"/>
	<path fill="#383E42" d="M32.2,220.2l0.8-2.3c1,0.4,2.4,0.7,3.5,0.7c2.3,0,3.3-1.2,3.7-3.4l0.2-1.3c0.1-0.7,0.2-1.1,0.4-1.6h0
		c-0.8,1.4-2.4,2.9-4.7,2.9c-2.4,0-4-2.1-4-4.8c0-6.4,4.5-10.4,9.6-10.4c0.8,0,2.2,0.2,2.9,0.2c0.4,0,1.4-0.1,1.8-0.2l-2.1,13.4
		c-0.6,3.8-2.9,7.5-8.3,7.5C34.8,220.9,33.1,220.5,32.2,220.2z M40.7,210.5L42,202c-0.2-0.2-0.6-0.2-1-0.2c-2.6,0-4.9,3.9-4.9,8.3
		c0,1.4,0.7,2.4,1.7,2.4C39,212.5,40,211.5,40.7,210.5z"/>
	<path fill="#383E42" d="M48,209.5c0-5.4,3.8-9.7,8.2-9.7c2.8,0,4.3,1.2,4.3,3.1c0,3.1-3.2,5.2-8.4,5.5c0,0.1,0,0.3,0,0.4
		c0,2.5,1.2,3.9,3.1,3.9c1.4,0,2.4-0.4,3.3-0.9l0.3,0.8c-0.6,1.1-2.6,2.6-5.2,2.6C49.9,215.2,48,213,48,209.5z M57,202.9
		c0-0.8-0.4-1.3-1.2-1.3c-1.5,0-3.4,2.2-3.7,5.4C55.1,206.6,57,204.6,57,202.9z"/>
	<path fill="#383E42" d="M62.5,212.2c0-0.5,0.1-1.2,0.2-1.9l1.4-8.4h-2l0.2-1.4c2.4-0.6,4.2-2.6,4.9-4.2h1.5l-0.6,3.7h3.3l-0.3,1.9
		h-3.3l-1.3,8.2c-0.1,0.4-0.1,0.8-0.1,1.3c0,0.8,0.4,1.3,1.3,1.3c0.9,0,1.7-0.3,2.3-0.6l0.2,1c-0.9,0.9-2.7,1.9-5,1.9
		C63.5,215,62.5,213.8,62.5,212.2z"/>
	<path fill="#383E42" d="M76.3,220.8l0.3-2.6c0.5,0.1,1.1,0.2,1.5,0.2c2.1,0,3.3-1.3,4.4-3.6l-2-11.2c-0.1-0.7-0.3-1.5-1-1.5
		c-0.4,0-0.9,0.4-1.3,0.7l-0.4-1c0.7-0.8,2.2-1.9,3.9-1.9c1.6,0,2.3,1.1,2.6,2.9l1.4,8.6h0.1c3.2-4.9,3.8-6.8,3.8-9.1
		c0-0.4-0.2-1.3-0.5-1.6l3.1-0.9c0.4,0.5,0.6,1.3,0.6,2c0,2.9-4.4,8.7-8.9,15.1c-2.2,3-3.9,4.1-6.4,4.1
		C77.1,220.9,76.6,220.8,76.3,220.8z"/>
	<path fill="#383E42" d="M93.4,209.4c0-5.3,3.4-9.6,8.3-9.6c3.1,0,5.3,2.3,5.3,5.8c0,5.3-3.4,9.6-8.3,9.6
		C95.6,215.2,93.4,212.8,93.4,209.4z M103,205.6c0-2.6-0.5-4.1-1.9-4.1c-2.2,0-3.5,4-3.5,7.8c0,2.6,0.5,4.1,1.9,4.1
		C101.7,213.4,103,209.3,103,205.6z"/>
	<path fill="#383E42" d="M109.7,211.3c0-0.4,0.1-1.2,0.2-1.8l0.8-5c0-0.3,0.1-0.8,0.1-1c0-0.8-0.4-1.1-1.7-1.4l0.2-1.1
		c1.9-0.3,4.1-0.8,6-1.4l-1.5,9.8c-0.1,0.5-0.1,1.1-0.1,1.4c0,0.9,0.3,1.5,1.3,1.5c1.1,0,2.2-1,3-1.9l1.6-10.1l4-0.6l-1.7,11
		c-0.1,0.5-0.1,0.9-0.1,1.3c0,0.6,0.3,0.9,0.9,0.9c0.5,0,1-0.2,1.4-0.5l0.4,0.9c-0.9,0.8-2.3,1.8-4.1,1.8c-1.5,0-2.4-0.8-2.4-2.2
		c0-0.2,0-0.4,0.1-0.8H118c-0.9,1.3-2.7,2.9-4.8,2.9C110.7,215,109.7,213.6,109.7,211.3z"/>
	<path fill="#383E42" d="M133.4,212.5c0-0.6,0.2-1.2,0.3-2.1l0.9-5.9c0.1-0.3,0.1-0.8,0.1-1.1c0-0.7-0.3-1-1.6-1.3l0.2-1.1
		c1.9-0.3,4.2-0.8,6-1.4l-1.7,10.8c-0.1,0.5-0.1,1-0.1,1.3c0,0.7,0.3,1.1,0.9,1.1c0.6,0,1.1-0.2,1.5-0.5l0.4,0.9
		c-0.9,0.8-2.4,1.8-4.4,1.8C134.2,215,133.4,214,133.4,212.5z M135.6,195.2c0-1.2,1-2.2,2.2-2.2c1.3,0,2.2,1,2.2,2.2
		s-0.9,2.2-2.2,2.2C136.6,197.4,135.6,196.4,135.6,195.2z"/>
	<path fill="#383E42" d="M150.4,212.5c0-0.7,0.1-1.3,0.2-2.1l1-5.1c0.1-0.6,0.1-1.1,0.1-1.4c0-0.9-0.3-1.5-1.3-1.5
		c-1.1,0-2.3,1-3.1,1.9l-1.6,10.5h-3.9l1.6-10.3c0-0.3,0.1-0.8,0.1-1c0-0.8-0.4-1.1-1.6-1.3l0.1-1.1c2-0.3,4.2-0.8,6.1-1.4l-0.5,2.7
		h0c0.9-1.1,2.8-2.5,4.5-2.5c2.5,0,3.4,1.4,3.4,3.7c0,0.4-0.1,1.1-0.2,1.9l-1,5c-0.1,0.4-0.1,0.9-0.1,1.3c0,0.7,0.3,1.1,0.9,1.1
		c0.6,0,1-0.2,1.5-0.5l0.5,0.9c-0.9,0.8-2.4,1.8-4.5,1.8C151.2,215,150.4,214,150.4,212.5z"/>
	<path fill="#383E42" d="M159.4,212.2c0-0.5,0.1-1.2,0.2-1.9l1.4-8.4h-2l0.2-1.4c2.4-0.6,4.2-2.6,4.9-4.2h1.5l-0.6,3.7h3.3L168,202
		h-3.3l-1.3,8.2c-0.1,0.4-0.1,0.8-0.1,1.3c0,0.8,0.5,1.3,1.3,1.3c0.9,0,1.7-0.3,2.3-0.6l0.2,1c-0.9,0.9-2.7,1.9-5,1.9
		C160.3,215,159.4,213.8,159.4,212.2z"/>
	<path fill="#383E42" d="M168.7,209.4c0-5.3,3.4-9.6,8.3-9.6c3.1,0,5.3,2.3,5.3,5.8c0,5.3-3.4,9.6-8.3,9.6
		C170.9,215.2,168.7,212.8,168.7,209.4z M178.2,205.6c0-2.6-0.5-4.1-1.9-4.1c-2.2,0-3.5,4-3.5,7.8c0,2.6,0.5,4.1,1.9,4.1
		C176.9,213.4,178.2,209.3,178.2,205.6z"/>
	<path fill="#383E42" d="M191.8,212.2c0-0.5,0.1-1.2,0.2-1.9l1.3-8.4h-2l0.2-1.4c2.4-0.6,4.2-2.6,5-4.2h1.5l-0.6,3.7h3.3l-0.3,1.9
		h-3.3l-1.3,8.2c-0.1,0.4-0.1,0.8-0.1,1.3c0,0.8,0.5,1.3,1.3,1.3c0.9,0,1.7-0.3,2.3-0.6l0.2,1c-0.9,0.9-2.7,1.9-5,1.9
		C192.7,215,191.8,213.8,191.8,212.2z"/>
	<path fill="#383E42" d="M209.9,212.6c0-0.7,0.1-1.3,0.2-2.1l1-5.1c0.1-0.6,0.2-1.1,0.2-1.4c0-0.9-0.3-1.5-1.3-1.5
		c-1.1,0-2.3,1-3.1,1.9l-1.6,10.5h-3.9l2.5-16.4c0.1-0.3,0.1-0.8,0.1-1c0-0.8-0.4-1-1.7-1.3l0.2-1.1c1.9-0.3,4.2-0.8,6-1.4l-1.4,8.8
		h0.1c0.9-1.1,2.8-2.5,4.5-2.5c2.5,0,3.4,1.4,3.4,3.7c0,0.4-0.1,1.1-0.2,1.9l-1,5c-0.1,0.4-0.2,0.9-0.2,1.3c0,0.7,0.3,1.1,0.9,1.1
		c0.6,0,1.1-0.2,1.5-0.5l0.5,0.9c-0.9,0.8-2.4,1.8-4.4,1.8C210.7,215,209.9,214,209.9,212.6z"/>
	<path fill="#383E42" d="M217.8,209.5c0-5.4,3.8-9.7,8.2-9.7c2.8,0,4.3,1.2,4.3,3.1c0,3.1-3.2,5.2-8.4,5.5c0,0.1,0,0.3,0,0.4
		c0,2.5,1.2,3.9,3.1,3.9c1.4,0,2.4-0.4,3.3-0.9l0.3,0.8c-0.6,1.1-2.6,2.6-5.2,2.6C219.8,215.2,217.8,213,217.8,209.5z M226.9,202.9
		c0-0.8-0.4-1.3-1.2-1.3c-1.5,0-3.4,2.2-3.7,5.4C225,206.6,226.9,204.6,226.9,202.9z"/>
	<path fill="#383E42" d="M35.3,236.3c-0.3-1.6-0.9-2.3-1.7-2.5l-0.5-0.1l0.2-1.3c0.8,0,2.6,0.1,3.8,0.1c1.2,0,3.8-0.1,4.5-0.1
		l-0.2,1.3l-1,0.1c-0.7,0.1-1,0.5-1,1.1c0,0.2,0.1,0.8,0.1,1.2l1.5,11.4l4.9-10l-0.2-1.2c-0.3-1.6-0.8-2.3-1.7-2.5l-0.4-0.1l0.2-1.3
		c0.8,0,2.5,0.1,3.8,0.1c1.2,0,3.9-0.1,4.6-0.1l-0.2,1.3l-1.1,0.1c-0.6,0.1-1.1,0.5-1.1,1.1c0,0.2,0,0.7,0.1,1l1.6,11.5l5.3-11.5
		c0.2-0.5,0.5-1.1,0.5-1.5c0-0.3-0.2-0.6-0.8-0.7l-1.1-0.1l0.2-1.3c0.8,0,2.5,0.1,3.6,0.1c1.1,0,2-0.1,2.8-0.1l-0.2,1.3l-0.7,0.1
		c-1,0.2-1.7,1.1-2.3,2.5l-7.3,15.1h-3.2l-1.9-11l-5.4,11h-3.2L35.3,236.3z"/>
	<path fill="#383E42" d="M70.1,249.1c0-0.7,0.1-1.3,0.2-2.1l1-5.1c0.1-0.6,0.2-1.1,0.2-1.4c0-0.9-0.3-1.5-1.3-1.5
		c-1.1,0-2.3,1-3.1,1.9l-1.6,10.5h-3.9l2.5-16.4c0.1-0.3,0.1-0.8,0.1-1c0-0.8-0.4-1-1.7-1.3l0.2-1.1c1.9-0.3,4.2-0.8,6-1.4l-1.4,8.8
		h0.1c0.9-1.1,2.8-2.5,4.5-2.5c2.5,0,3.4,1.4,3.4,3.7c0,0.4-0.1,1-0.2,1.9l-1,5c-0.1,0.5-0.2,0.9-0.2,1.3c0,0.7,0.3,1.1,0.9,1.1
		c0.6,0,1.1-0.2,1.5-0.5l0.5,0.9c-0.9,0.8-2.4,1.8-4.4,1.8C70.9,251.5,70.1,250.5,70.1,249.1z"/>
	<path fill="#383E42" d="M79,249c0-0.6,0.2-1.2,0.3-2.1l0.9-5.9c0.1-0.3,0.1-0.8,0.1-1.1c0-0.7-0.3-1.1-1.6-1.3l0.2-1.1
		c1.9-0.3,4.2-0.8,6-1.4l-1.7,10.8c-0.1,0.5-0.1,1-0.1,1.3c0,0.7,0.3,1.1,0.9,1.1c0.6,0,1.1-0.2,1.5-0.5l0.4,0.9
		c-0.9,0.8-2.4,1.8-4.4,1.8C79.7,251.5,79,250.5,79,249z M81.2,231.7c0-1.2,1-2.2,2.2-2.2c1.3,0,2.2,1,2.2,2.2
		c0,1.2-0.9,2.2-2.2,2.2C82.1,233.8,81.2,232.9,81.2,231.7z"/>
	<path fill="#383E42" d="M88,248.7c0-0.5,0.1-1.2,0.2-1.9l1.4-8.4h-2l0.2-1.4c2.4-0.6,4.2-2.5,4.9-4.2h1.5l-0.6,3.7H97l-0.3,1.9
		h-3.3l-1.3,8.2c-0.1,0.4-0.1,0.8-0.1,1.3c0,0.8,0.4,1.3,1.3,1.3c0.9,0,1.7-0.3,2.3-0.6l0.2,1c-0.9,0.9-2.7,1.9-5,1.9
		C88.9,251.5,88,250.2,88,248.7z"/>
	<path fill="#383E42" d="M97.3,245.9c0-5.4,3.8-9.7,8.2-9.7c2.8,0,4.3,1.2,4.3,3.1c0,3.1-3.2,5.2-8.4,5.6c0,0.1,0,0.3,0,0.4
		c0,2.5,1.2,3.9,3.1,3.9c1.4,0,2.4-0.4,3.3-0.9l0.3,0.8c-0.6,1-2.6,2.6-5.2,2.6C99.2,251.6,97.3,249.5,97.3,245.9z M106.3,239.3
		c0-0.8-0.4-1.3-1.2-1.3c-1.5,0-3.4,2.2-3.7,5.4C104.4,243.1,106.3,241.1,106.3,239.3z"/>
	<path fill="#383E42" d="M116.8,250l1-0.2c0.8-0.1,1.3-0.7,1.6-2.4l1.7-11c0.1-0.4,0.1-0.8,0.1-1.1c0-0.9-0.4-1.3-1-1.3l-1-0.2
		l0.2-1.3c0.8,0,3.1,0.1,4.3,0.1c1.2,0,3.5-0.1,4.3-0.1l-0.2,1.3l-1.1,0.2c-0.8,0.1-1.3,0.6-1.6,2.3l-0.7,4.3h7.9l0.7-4.2
		c0.1-0.5,0.1-0.8,0.1-1.1c0-0.9-0.3-1.3-0.9-1.3l-1-0.2l0.2-1.3c0.8,0,3.1,0.1,4.3,0.1c1.3,0,3.5-0.1,4.3-0.1l-0.2,1.3l-1,0.2
		c-0.8,0.1-1.3,0.6-1.6,2.3l-1.7,11.1c-0.1,0.4-0.1,0.8-0.1,1.1c0,0.9,0.4,1.3,0.9,1.3l1,0.2l-0.2,1.3c-0.8,0-3-0.1-4.3-0.1
		c-1.2,0-3.5,0.1-4.3,0.1l0.2-1.3l1-0.2c0.8-0.1,1.3-0.7,1.6-2.4l0.8-5h-7.9l-0.8,5c-0.1,0.4-0.1,0.8-0.1,1.1c0,0.9,0.4,1.2,1,1.3
		l1,0.2l-0.2,1.3c-0.8,0-3.1-0.1-4.3-0.1c-1.2,0-3.5,0.1-4.3,0.1L116.8,250z"/>
	<path fill="#383E42" d="M140.2,245.8c0-5.3,3.4-9.6,8.3-9.6c3.1,0,5.3,2.3,5.3,5.8c0,5.3-3.4,9.6-8.3,9.6
		C142.4,251.6,140.2,249.3,140.2,245.8z M149.7,242.1c0-2.6-0.5-4.1-1.9-4.1c-2.2,0-3.5,4.1-3.5,7.8c0,2.6,0.5,4.1,1.9,4.1
		C148.4,249.9,149.7,245.8,149.7,242.1z"/>
	<path fill="#383E42" d="M156.5,247.8c0-0.4,0.1-1.2,0.2-1.8l0.8-5c0-0.3,0.1-0.8,0.1-1c0-0.8-0.4-1.1-1.7-1.3l0.2-1.1
		c1.9-0.3,4.1-0.8,6-1.4l-1.5,9.8c-0.1,0.5-0.1,1-0.1,1.4c0,0.9,0.3,1.5,1.3,1.5c1.1,0,2.2-1,3-1.9l1.6-10.1l4-0.6l-1.7,11
		c-0.1,0.5-0.1,0.9-0.1,1.3c0,0.6,0.3,0.9,0.9,0.9c0.5,0,1-0.2,1.4-0.5l0.5,0.9c-0.9,0.8-2.3,1.8-4.1,1.8c-1.5,0-2.4-0.8-2.4-2.2
		c0-0.2,0-0.4,0.1-0.8h-0.1c-0.9,1.3-2.7,2.9-4.8,2.9C157.5,251.5,156.5,250,156.5,247.8z"/>
	<path fill="#383E42" d="M171.8,250.6l1.2-2.4c1.4,0.9,2.8,1.3,4,1.3c1.3,0,2.1-0.7,2.1-1.5c0-1-1.3-1.8-2.9-2.7
		c-1.5-0.8-3.1-1.9-3.1-4.1c0-2.7,3-4.9,6-4.9c1.4,0,2.8,0.4,4,1l-1.3,2.5c-1-0.7-2-1.3-3.5-1.3c-1,0-1.6,0.5-1.6,1.3
		c0,0.9,0.5,1.3,1.6,2c1.8,1.1,4.2,2.1,4.2,5c0,3.2-3.5,4.9-6.3,4.9C174.7,251.6,173.1,251.1,171.8,250.6z"/>
	<path fill="#383E42" d="M184.6,245.9c0-5.4,3.8-9.7,8.2-9.7c2.8,0,4.3,1.2,4.3,3.1c0,3.1-3.2,5.2-8.4,5.6c0,0.1,0,0.3,0,0.4
		c0,2.5,1.2,3.9,3.1,3.9c1.4,0,2.4-0.4,3.3-0.9l0.3,0.8c-0.6,1-2.6,2.6-5.2,2.6C186.5,251.6,184.6,249.5,184.6,245.9z M193.6,239.3
		c0-0.8-0.5-1.3-1.2-1.3c-1.5,0-3.4,2.2-3.7,5.4C191.7,243.1,193.6,241.1,193.6,239.3z"/>
	<path fill="#383E42" d="M198.5,249.1c0-1.3,1.1-2.4,2.4-2.4s2.4,1.1,2.4,2.4s-1.1,2.4-2.4,2.4S198.5,250.5,198.5,249.1z
		 M205.2,236.3c0-1-0.7-1.6-2.1-1.6c-1,0-2.1,0.3-3.1,0.8l-0.3-1.6c1.1-0.8,2.9-1.7,5-1.7c3.2,0,4.8,1.4,4.8,3.6
		c0,5-7.1,4.7-7.3,9.4h-1.9C200,240,205.2,239.2,205.2,236.3z"/>
</g>
<g>
	<path fill="#E21C24" d="M32.4,95.2l0.4,0c0.6-0.1,0.8-0.5,0.9-1.2l0.6-5.8c0-0.1,0-0.3,0-0.4c0-0.6-0.2-0.8-0.7-0.9l-0.6-0.1v-0.8
		c0.4,0,1.4,0,2,0c0.4,0,1.7,0,2.2,0l2.4,6.7l2.3-6.7c0.5,0,1.8,0,2.1,0c0.6,0,1.6,0,2,0v0.8l-0.6,0.1c-0.5,0-0.7,0.2-0.7,0.9
		c0,0.1,0,0.3,0,0.4l0.6,5.8c0.1,0.8,0.4,1.1,0.9,1.2l0.4,0.1v0.7c-0.4,0-1.8,0-2.4,0c-0.7,0-2.1,0-2.5,0v-0.7l0.5,0
		c0.4,0,0.6-0.3,0.6-0.8c0-0.1,0-0.3,0-0.4l-0.6-5.6l-2.7,7.6h-1.4l-2.7-7.6l-0.6,5.6c0,0.1,0,0.3,0,0.4c0,0.5,0.3,0.7,0.6,0.8
		l0.5,0v0.7c-0.4,0-1.3,0-2,0c-0.7,0-1.2,0-1.6,0V95.2z"/>
	<path fill="#E21C24" d="M50.3,95.2l0.6-0.1c0.4,0,0.7-0.3,0.7-1.3v-1.9L49.1,88c-0.4-0.7-0.7-1.2-1.2-1.3l-0.2,0v-0.7
		c0.4,0,1.6,0,2.2,0c0.6,0,2.4,0,2.8,0v0.7l-0.5,0.1c-0.3,0-0.5,0.2-0.5,0.5c0,0.2,0.1,0.4,0.2,0.7l1.6,2.7l1.6-2.7
		c0.1-0.2,0.2-0.5,0.2-0.7c0-0.3-0.2-0.4-0.5-0.5l-0.5-0.1v-0.7c0.4,0,1.4,0,2,0c0.6,0,1.2,0,1.6,0v0.7l-0.3,0
		c-0.5,0.1-0.8,0.6-1.3,1.3l-2.1,3.6v2.2c0,1,0.2,1.3,0.7,1.3l0.6,0.1v0.7c-0.4,0-1.8,0-2.5,0c-0.7,0-2.1,0-2.5,0V95.2z"/>
	<path fill="#E21C24" d="M61,95.2l0.6-0.1c0.4,0,0.7-0.3,0.7-1.3V87h-1.3c-0.6,0-0.9,0.2-1,0.7l-0.1,0.8H59c0-0.8,0.1-1.8,0.1-2.5
		c1.4,0,3,0.1,4.4,0.1c1.4,0,3,0,4.4-0.1c0,0.7,0,1.7,0.1,2.5h-0.8l-0.1-0.8c-0.1-0.4-0.4-0.7-1-0.7h-1.3v6.9c0,1,0.2,1.3,0.7,1.3
		l0.5,0.1v0.7c-0.4,0-1.8,0-2.4,0c-0.6,0-2.1,0-2.5,0V95.2z"/>
	<path fill="#E21C24" d="M69.6,95.2l0.5-0.1c0.4,0,0.7-0.3,0.7-1.3v-5.7c0-1-0.2-1.2-0.7-1.3l-0.5-0.1v-0.8c0.4,0,1.8,0,2.5,0
		c0.6,0,2,0,2.4,0v0.8L74,86.8c-0.4,0-0.7,0.3-0.7,1.3v2.1h4v-2.1c0-1-0.2-1.2-0.7-1.3l-0.5-0.1v-0.8c0.4,0,1.8,0,2.4,0s2,0,2.4,0
		v0.8l-0.5,0.1c-0.4,0.1-0.7,0.3-0.7,1.3v5.7c0,1,0.2,1.3,0.7,1.3l0.5,0.1v0.7c-0.4,0-1.8,0-2.4,0s-2,0-2.4,0v-0.7l0.5-0.1
		c0.4,0,0.7-0.3,0.7-1.3v-2.6h-4v2.6c0,1,0.2,1.3,0.7,1.3l0.5,0.1v0.7c-0.4,0-1.8,0-2.4,0c-0.7,0-2.1,0-2.5,0V95.2z"/>
	<path fill="#383E42" d="M87.7,86h2.7c0.7,0,1.4,0.1,1.9,0.3c1,0.4,1.4,1.2,1.4,2.2c0,1-0.5,1.8-1.5,2.2c1.5,0.3,2.2,1.1,2.2,2.4
		c0,1-0.4,1.9-1.4,2.4c-0.5,0.3-1.3,0.4-2.3,0.4h-2.9V86z M90.4,90.4c0.6,0,1.1-0.1,1.5-0.3c0.5-0.4,0.7-1,0.7-1.5
		c0-0.6-0.2-1.1-0.7-1.4c-0.3-0.2-0.9-0.3-1.5-0.3h-1.7v3.5H90.4z M90.6,95c0.7,0,1.3-0.1,1.7-0.2c0.6-0.3,1-0.8,1-1.7
		c0-0.8-0.5-1.5-1.2-1.7c-0.4-0.1-0.9-0.1-1.5-0.1h-1.8V95H90.6z"/>
	<path fill="#383E42" d="M98.1,86v5.8c0,0.8,0,1.4,0.2,1.9c0.3,1,1.4,1.5,2.6,1.5c1.5,0,2.4-0.6,2.7-1.7c0.1-0.5,0.1-1.1,0.1-1.7V86
		h1v5.7c0,0.8-0.1,1.6-0.3,2.2c-0.4,1.4-1.7,2.2-3.6,2.2c-1.7,0-3.1-0.6-3.5-2.1c-0.2-0.6-0.3-1.3-0.3-2.1V86H98.1z"/>
	<path fill="#383E42" d="M107.4,94c0.8,0.7,2,1.2,3,1.2c1.5,0,2.1-0.7,2.1-1.6c0-0.7-0.5-1.2-1.8-1.9l-1.2-0.6
		c-1.5-0.8-2.1-1.5-2.1-2.6c0-1.6,1.1-2.5,3.1-2.5c0.9,0,1.8,0.3,2.5,0.7v1.1c-0.8-0.6-1.7-0.9-2.6-0.9c-1.3,0-1.9,0.7-1.9,1.6
		c0,0.9,0.5,1.3,1.5,1.8l1.2,0.6c1.9,0.9,2.3,1.7,2.3,2.8c0,1.6-1.1,2.6-3.2,2.6c-1.2,0-2.3-0.4-2.9-1V94z"/>
	<path fill="#383E42" d="M118.2,95.9V87h-3v-1h7.1v1h-3v8.9H118.2z"/>
	<path fill="#383E42" d="M124.7,95.9V86h5.3v1h-4.3v3.3h4v1h-4V95h4.5v1H124.7z"/>
	<path fill="#383E42" d="M133.2,95.9V86h1.7c0.8,0,1.7,0,2.2,0.1c1.4,0.3,2.1,1.1,2.1,2.5c0,1.5-0.8,2.2-2,2.6
		c0.9,0.3,1.3,1.1,3.1,4.7h-1.1c-1.7-3.4-2.1-3.9-2.6-4.2c-0.2-0.1-0.6-0.2-1-0.2h-1.3v4.3H133.2z M135.7,90.7c0.3,0,0.7,0,1.1-0.2
		c0.7-0.3,1.3-0.8,1.3-1.8c0-0.8-0.4-1.7-1.7-1.8c-0.4,0-1,0-1.4,0h-0.7v3.8H135.7z"/>
	<path fill="#383E42" d="M141.9,94c0.8,0.7,2,1.2,3,1.2c1.5,0,2.1-0.7,2.1-1.6c0-0.7-0.5-1.2-1.8-1.9l-1.2-0.6
		c-1.5-0.8-2.1-1.5-2.1-2.6c0-1.6,1.1-2.5,3.1-2.5c0.9,0,1.8,0.3,2.5,0.7v1.1c-0.8-0.6-1.7-0.9-2.6-0.9c-1.3,0-1.9,0.7-1.9,1.6
		c0,0.9,0.5,1.3,1.5,1.8l1.2,0.6c1.9,0.9,2.3,1.7,2.3,2.8c0,1.6-1.1,2.6-3.2,2.6c-1.2,0-2.3-0.4-2.9-1V94z"/>
</g>
<g opacity="0.2">
	<path fill="#004A8F" d="M234.6,88.2h2.5l0.4-2.7h1.7l-0.4,2.7h2.1l0.4-2.7h1.7l-0.4,2.7h2.5l-0.3,1.7h-2.5l-0.3,2.2h2.5l-0.3,1.7
		h-2.5l-0.4,2.8h-1.7l0.4-2.8h-2.1l-0.4,2.8h-1.7l0.4-2.8h-2.5L234,92h2.5l0.3-2.2h-2.5L234.6,88.2z M238.2,92h2.1l0.3-2.2h-2.1
		L238.2,92z"/>
</g>
<line fill="none" stroke="#B6B6B6" stroke-miterlimit="10" x1="32" y1="104.5" x2="149" y2="104.5"/>
<g opacity="0.2">
	<path fill="#004A8F" d="M250,113.1l3.8-19.2l-4.7,1.4l1.2-6.6l12.8-3.8l-5.5,28.3H250z"/>
</g>
<g>
	<path fill="#E60900" d="M33.3,346.9v-10.6h2.3c3.4,4.8,3.8,5.4,4.5,6.4c0-1.2-0.1-2.8-0.1-6.4h2.3v10.6h-2.1
		c-3.5-5.1-4.1-6-4.6-6.9c0,0.9,0,1.5,0,6.9H33.3z"/>
	<path fill="#E60900" d="M50,347.1c-3,0-5.1-2.2-5.1-5.5c0-3.3,2.2-5.5,5.3-5.5c3.2,0,5.1,2.2,5.1,5.4C55.3,345,53.1,347.1,50,347.1
		z M50.1,338.3c-1.6,0-2.7,1.1-2.7,3.3c0,2.2,1.1,3.4,2.7,3.4c1.6,0,2.7-1.1,2.7-3.3C52.8,339.4,51.7,338.3,50.1,338.3z"/>
	<path fill="#E60900" d="M59.5,346.9v-8.4h-2.9v-2.2h8.3v2.2h-3v8.4H59.5z"/>
	<path fill="#E60900" d="M78.6,346.5c0.6,0.4,1.5,0.8,2.8,1.2l-0.8,1.8c-1.7-0.5-3.9-1.7-4.7-2.3h-0.1c-3,0-5.1-2.2-5.1-5.5
		c0-3.3,2.2-5.5,5.3-5.5c3.2,0,5.1,2.2,5.1,5.4C81.2,343.9,80.2,345.6,78.6,346.5z M76,338.3c-1.6,0-2.7,1.1-2.7,3.3
		c0,2.2,1.1,3.4,2.7,3.4c1.6,0,2.7-1.1,2.7-3.3C78.6,339.4,77.6,338.3,76,338.3z"/>
	<path fill="#E60900" d="M86,336.3v6c0,0.6,0,1.1,0.2,1.5c0.3,0.7,1,1.1,1.9,1.1c1,0,1.7-0.3,1.9-1.1c0.1-0.4,0.2-0.9,0.2-1.5v-6
		h2.4v6.1c0,1.1-0.2,2-0.5,2.7c-0.6,1.3-2,2-4.1,2c-1.9,0-3.3-0.6-4-1.9c-0.3-0.6-0.5-1.6-0.5-2.7v-6.2H86z"/>
	<path fill="#E60900" d="M95.6,346.9v-10.6h2.4v10.6H95.6z"/>
	<path fill="#E60900" d="M103.2,346.9v-8.4h-2.9v-2.2h8.3v2.2h-3v8.4H103.2z"/>
	<path fill="#E60900" d="M110.7,346.9v-10.6h6.7v2.2h-4.3v1.9h3.9v2.1h-3.9v2.2h4.6v2.2H110.7z"/>
</g>
<line fill="none" stroke="#B6B6B6" stroke-miterlimit="10" x1="32" y1="355.5" x2="118" y2="355.5"/>
</svg>
